<svg id="svg" version="1.1" xmlns="http://www.w3.org/2000/svg" xmlns:xlink="http://www.w3.org/1999/xlink" width="400" height="400" viewBox="0, 0, 400,400"><g id="svgg"><path id="path0" d="M178.000 98.168 C 160.473 105.989,144.528 113.138,142.622 114.029 C 141.479 114.563,140.454 115.000,140.344 115.000 C 139.869 115.000,139.629 115.724,139.714 116.900 C 139.762 117.560,139.894 122.285,140.007 127.400 C 140.358 143.265,141.379 181.778,141.514 184.234 L 141.642 186.569 140.505 187.977 C 138.606 190.327,136.399 189.578,159.400 194.393 C 179.277 198.554,207.433 204.430,209.260 204.798 C 210.745 205.098,208.305 207.054,230.717 187.600 C 238.847 180.543,242.438 177.556,243.896 176.636 C 244.998 175.941,246.058 175.188,246.250 174.964 C 246.706 174.432,246.805 105.808,246.350 105.455 C 246.213 105.349,245.200 105.113,244.100 104.932 C 243.000 104.751,238.635 104.016,234.400 103.297 C 222.628 101.300,186.165 95.155,185.600 95.073 C 185.273 95.025,182.645 96.096,178.000 98.168 M187.528 96.693 C 188.393 96.854,201.205 99.015,216.000 101.494 C 230.795 103.974,243.125 106.056,243.400 106.121 C 243.799 106.215,239.985 108.201,224.600 115.911 L 205.300 125.584 184.900 122.294 C 152.019 116.990,143.309 115.555,143.149 115.412 C 143.066 115.339,148.421 112.857,155.049 109.897 C 161.677 106.937,171.150 102.692,176.100 100.463 C 181.050 98.235,185.293 96.409,185.528 96.406 C 185.763 96.403,186.663 96.532,187.528 96.693 M245.403 140.580 L 245.414 174.234 231.757 182.788 C 224.246 187.493,215.445 193.013,212.200 195.054 L 206.300 198.766 206.169 197.733 C 206.013 196.503,205.972 127.531,206.127 126.784 C 206.217 126.349,245.019 106.671,245.347 106.895 C 245.372 106.912,245.398 122.071,245.403 140.580 M161.900 119.590 C 185.599 123.451,204.336 126.562,204.850 126.720 C 205.265 126.847,205.410 198.600,204.996 198.600 C 204.884 198.600,196.716 197.021,186.846 195.091 C 176.976 193.161,163.140 190.457,156.100 189.082 C 149.060 187.708,143.157 186.540,142.983 186.489 C 142.714 186.408,142.661 185.913,142.626 183.147 C 142.603 181.361,142.275 168.155,141.896 153.800 C 141.517 139.445,141.158 125.585,141.098 123.000 C 141.038 120.415,140.945 117.828,140.893 117.250 C 140.840 116.672,140.865 116.200,140.948 116.200 C 141.032 116.200,150.460 117.725,161.900 119.590 " stroke="none" fill="#050506" fill-rule="evenodd"></path><path id="path1" d="M243.048 106.166 C 243.292 106.262,239.112 108.443,229.183 113.402 C 221.365 117.306,214.923 120.571,214.868 120.658 C 214.812 120.745,221.294 117.553,229.273 113.564 C 242.452 106.975,244.280 105.970,243.000 106.017 C 242.774 106.025,242.786 106.062,243.048 106.166 M244.200 107.400 C 243.595 107.720,243.171 107.985,243.258 107.991 C 243.345 107.996,243.769 107.820,244.200 107.600 C 244.631 107.380,245.032 107.200,245.091 107.200 C 245.150 107.200,245.222 121.983,245.250 140.050 L 245.301 172.900 245.351 139.850 C 245.378 121.672,245.378 106.804,245.350 106.809 C 245.322 106.815,244.805 107.080,244.200 107.400 M140.893 117.250 C 140.945 117.828,141.038 120.415,141.098 123.000 C 141.158 125.585,141.517 139.445,141.896 153.800 C 142.275 168.155,142.603 181.361,142.626 183.147 C 142.661 185.913,142.714 186.408,142.983 186.489 C 143.157 186.540,149.060 187.708,156.100 189.082 C 163.140 190.457,176.976 193.161,186.846 195.091 C 196.716 197.021,204.884 198.600,204.996 198.600 C 205.410 198.600,205.265 126.847,204.850 126.720 C 204.177 126.513,141.532 116.200,140.948 116.200 C 140.865 116.200,140.840 116.672,140.893 117.250 M214.200 122.300 C 209.745 124.543,206.190 126.378,206.300 126.378 C 206.410 126.378,210.145 124.543,214.600 122.300 C 219.055 120.057,222.610 118.222,222.500 118.222 C 222.390 118.222,218.655 120.057,214.200 122.300 M205.943 125.123 C 205.876 125.191,205.523 125.317,205.160 125.403 C 204.586 125.539,204.567 125.562,205.012 125.580 C 205.293 125.591,205.698 125.468,205.912 125.306 C 206.125 125.145,206.248 125.010,206.183 125.006 C 206.119 125.003,206.011 125.055,205.943 125.123 M206.098 162.200 C 206.098 181.395,206.121 189.248,206.150 179.650 C 206.179 170.053,206.179 154.348,206.150 144.750 C 206.121 135.153,206.098 143.005,206.098 162.200 M245.400 173.534 C 245.400 173.718,245.243 174.046,245.050 174.263 C 244.710 174.647,244.713 174.651,245.150 174.422 C 245.538 174.219,245.830 173.200,245.500 173.200 C 245.445 173.200,245.400 173.350,245.400 173.534 M237.600 178.918 C 233.805 181.291,230.610 183.331,230.500 183.453 C 230.263 183.714,229.715 184.048,237.800 179.007 C 243.809 175.261,244.834 174.596,244.590 174.603 C 244.541 174.604,241.395 176.546,237.600 178.918 M229.450 184.023 C 228.768 184.460,228.548 184.753,229.150 184.422 C 229.609 184.169,230.328 183.614,230.200 183.610 C 230.145 183.608,229.808 183.794,229.450 184.023 M227.850 185.023 C 227.168 185.460,226.948 185.753,227.550 185.422 C 228.009 185.169,228.728 184.614,228.600 184.610 C 228.545 184.608,228.207 184.794,227.850 185.023 M222.900 188.124 C 220.700 189.505,218.810 190.734,218.700 190.854 C 218.468 191.109,218.367 191.170,223.250 188.116 C 226.438 186.122,227.254 185.569,226.950 185.606 C 226.923 185.610,225.100 186.742,222.900 188.124 M215.100 193.024 C 213.340 194.131,211.810 195.135,211.700 195.255 C 211.472 195.504,211.481 195.499,215.450 193.015 C 217.955 191.448,218.641 190.972,218.350 191.006 C 218.322 191.009,216.860 191.917,215.100 193.024 M210.650 195.823 C 209.968 196.260,209.748 196.553,210.350 196.222 C 210.809 195.969,211.528 195.414,211.400 195.410 C 211.345 195.408,211.007 195.594,210.650 195.823 M208.896 196.928 C 207.876 197.605,207.516 197.962,208.313 197.507 C 209.015 197.107,209.951 196.411,209.796 196.404 C 209.739 196.402,209.334 196.638,208.896 196.928 M206.850 198.223 C 206.168 198.660,205.948 198.953,206.550 198.622 C 207.009 198.369,207.728 197.814,207.600 197.810 C 207.545 197.808,207.207 197.994,206.850 198.223 " stroke="none" fill="#1c2c83" fill-rule="evenodd"></path><path id="path2" d="M175.694 100.761 C 170.410 103.148,160.943 107.395,154.657 110.200 C 145.859 114.125,143.326 115.332,143.663 115.441 C 143.903 115.518,148.870 116.351,154.700 117.291 C 160.530 118.231,173.625 120.352,183.800 122.005 C 193.975 123.657,202.963 125.109,203.772 125.232 L 205.245 125.455 224.302 115.878 C 234.784 110.610,243.335 106.274,243.305 106.241 C 243.274 106.209,230.416 104.029,214.731 101.397 C 199.045 98.764,186.007 96.568,185.756 96.516 C 185.450 96.453,182.147 97.846,175.694 100.761 M225.516 116.846 L 206.200 126.491 206.200 162.557 C 206.200 191.357,206.250 198.593,206.450 198.473 C 206.588 198.391,210.300 196.059,214.700 193.291 C 219.100 190.524,227.695 185.134,233.800 181.315 C 239.905 177.495,244.990 174.264,245.100 174.135 C 245.359 173.831,245.272 107.200,245.013 107.200 C 244.914 107.200,236.140 111.541,225.516 116.846 " stroke="none" fill="#1c3696" fill-rule="evenodd"></path></g></svg>