<?xml version="1.0" standalone="yes"?>
<svg xmlns="http://www.w3.org/2000/svg" width="2000" height="2000">
<path style="fill:#010101; stroke:none;" d="M0 0L0 2000L2000 2000L2000 0L0 0z"/>
<path style="fill:#16171e; stroke:none;" d="M926.667 481.333L927.333 481.667L926.667 481.333z"/>
<path style="fill:#131941; stroke:none;" d="M924 482L925 483L924 482z"/>
<path style="fill:#162268; stroke:none;" d="M925 482L926 483L925 482z"/>
<path style="fill:#1d2e94; stroke:none;" d="M716 577L796 590.272L935 612.754L998 623.08L1028 626.606L1049 616.247L1091 595.247L1217 532C1208.41 526.097 1191.28 526.466 1181 524.753L1097 510.586L983 491.586C965.655 488.678 945.547 481.919 928 482.356C921.054 482.529 913.235 487.884 907 490.694C893.672 496.703 880.293 502.605 867 508.691C832.138 524.654 796.955 539.937 762 555.694C747.742 562.122 728.047 567.055 716 577z"/>
<path style="fill:#162268; stroke:none;" d="M930 482L931 483L930 482z"/>
<path style="fill:#131941; stroke:none;" d="M931.667 482.333L932.333 482.667L931.667 482.333M922 483L923 484L922 483z"/>
<path style="fill:#162268; stroke:none;" d="M935.667 483.333L936.333 483.667L935.667 483.333z"/>
<path style="fill:#131941; stroke:none;" d="M937 483L938 484L937 483z"/>
<path style="fill:#16171e; stroke:none;" d="M938 483L939 484L938 483z"/>
<path style="fill:#162268; stroke:none;" d="M920 484L921 485L920 484M941.667 484.333L942.333 484.667L941.667 484.333z"/>
<path style="fill:#131941; stroke:none;" d="M943 484L944 485L943 484z"/>
<path style="fill:#16171e; stroke:none;" d="M944 484L945 485L944 484M917 485L918 486L917 485z"/>
<path style="fill:#162268; stroke:none;" d="M918 485L919 486L918 485M947.667 485.333L948.333 485.667L947.667 485.333z"/>
<path style="fill:#131941; stroke:none;" d="M949 485L950 486L949 485z"/>
<path style="fill:#16171e; stroke:none;" d="M950 485L951 486L950 485z"/>
<path style="fill:#131941; stroke:none;" d="M915 486L916 487L915 486z"/>
<path style="fill:#162268; stroke:none;" d="M916 486L917 487L916 486M953 486L954 487L953 486z"/>
<path style="fill:#131941; stroke:none;" d="M954.667 486.333L955.333 486.667L954.667 486.333M913 487L914 488L913 487z"/>
<path style="fill:#162268; stroke:none;" d="M914 487L915 488L914 487M959 487L960 488L959 487z"/>
<path style="fill:#131941; stroke:none;" d="M960.667 487.333L961.333 487.667L960.667 487.333M911 488L912 489L911 488z"/>
<path style="fill:#162268; stroke:none;" d="M964.667 488.333L965.333 488.667L964.667 488.333z"/>
<path style="fill:#131941; stroke:none;" d="M966.667 488.333L967.333 488.667L966.667 488.333z"/>
<path style="fill:#162268; stroke:none;" d="M909 489L910 490L909 489M970.667 489.333L971.333 489.667L970.667 489.333z"/>
<path style="fill:#131941; stroke:none;" d="M972.667 489.333L973.333 489.667L972.667 489.333z"/>
<path style="fill:#16171e; stroke:none;" d="M906 490L907 491L906 490z"/>
<path style="fill:#162268; stroke:none;" d="M907 490L908 491L907 490M976.667 490.333L977.333 490.667L976.667 490.333z"/>
<path style="fill:#131941; stroke:none;" d="M978.667 490.333L979.333 490.667L978.667 490.333M904 491L905 492L904 491z"/>
<path style="fill:#162268; stroke:none;" d="M905 491L906 492L905 491M982.667 491.333L983.333 491.667L982.667 491.333z"/>
<path style="fill:#131941; stroke:none;" d="M984.667 491.333L985.333 491.667L984.667 491.333M902 492L903 493L902 492z"/>
<path style="fill:#162268; stroke:none;" d="M988.667 492.333L989.333 492.667L988.667 492.333z"/>
<path style="fill:#131941; stroke:none;" d="M990 492L991 493L990 492z"/>
<path style="fill:#16171e; stroke:none;" d="M991 492L992 493L991 492z"/>
<path style="fill:#131941; stroke:none;" d="M900 493L901 494L900 493z"/>
<path style="fill:#162268; stroke:none;" d="M994.667 493.333L995.333 493.667L994.667 493.333z"/>
<path style="fill:#131941; stroke:none;" d="M996 493L997 494L996 493z"/>
<path style="fill:#16171e; stroke:none;" d="M997 493L998 494L997 493M897 494L898 495L897 494z"/>
<path style="fill:#162268; stroke:none;" d="M898 494L899 495L898 494M1000.67 494.333L1001.33 494.667L1000.67 494.333z"/>
<path style="fill:#131941; stroke:none;" d="M1002 494L1003 495L1002 494z"/>
<path style="fill:#16171e; stroke:none;" d="M1003 494L1004 495L1003 494z"/>
<path style="fill:#131941; stroke:none;" d="M895 495L896 496L895 495z"/>
<path style="fill:#162268; stroke:none;" d="M896 495L897 496L896 495M1006.67 495.333L1007.33 495.667L1006.67 495.333z"/>
<path style="fill:#131941; stroke:none;" d="M1008 495L1009 496L1008 495z"/>
<path style="fill:#16171e; stroke:none;" d="M1009 495L1010 496L1009 495z"/>
<path style="fill:#131941; stroke:none;" d="M893 496L894 497L893 496z"/>
<path style="fill:#162268; stroke:none;" d="M894 496L895 497L894 496M1012.67 496.333L1013.33 496.667L1012.67 496.333z"/>
<path style="fill:#131941; stroke:none;" d="M1014 496L1015 497L1014 496z"/>
<path style="fill:#16171e; stroke:none;" d="M1015 496L1016 497L1015 496z"/>
<path style="fill:#131941; stroke:none;" d="M891 497L892 498L891 497z"/>
<path style="fill:#162268; stroke:none;" d="M1018.67 497.333L1019.33 497.667L1018.67 497.333z"/>
<path style="fill:#131941; stroke:none;" d="M1020 497L1021 498L1020 497z"/>
<path style="fill:#16171e; stroke:none;" d="M1021 497L1022 498L1021 497z"/>
<path style="fill:#162268; stroke:none;" d="M889 498L890 499L889 498M1024.67 498.333L1025.33 498.667L1024.67 498.333z"/>
<path style="fill:#131941; stroke:none;" d="M1026 498L1027 499L1026 498z"/>
<path style="fill:#16171e; stroke:none;" d="M1027 498L1028 499L1027 498M886 499L887 500L886 499z"/>
<path style="fill:#162268; stroke:none;" d="M887 499L888 500L887 499M1030.67 499.333L1031.33 499.667L1030.67 499.333z"/>
<path style="fill:#131941; stroke:none;" d="M1032 499L1033 500L1032 499z"/>
<path style="fill:#16171e; stroke:none;" d="M1033 499L1034 500L1033 499z"/>
<path style="fill:#131941; stroke:none;" d="M884 500L885 501L884 500z"/>
<path style="fill:#162268; stroke:none;" d="M885 500L886 501L885 500M1036.67 500.333L1037.33 500.667L1036.67 500.333z"/>
<path style="fill:#131941; stroke:none;" d="M1038 500L1039 501L1038 500z"/>
<path style="fill:#16171e; stroke:none;" d="M1039 500L1040 501L1039 500z"/>
<path style="fill:#131941; stroke:none;" d="M882 501L883 502L882 501z"/>
<path style="fill:#162268; stroke:none;" d="M1042.67 501.333L1043.33 501.667L1042.67 501.333z"/>
<path style="fill:#131941; stroke:none;" d="M1044 501L1045 502L1044 501z"/>
<path style="fill:#16171e; stroke:none;" d="M1045 501L1046 502L1045 501z"/>
<path style="fill:#162268; stroke:none;" d="M880 502L881 503L880 502M1048.67 502.333L1049.33 502.667L1048.67 502.333z"/>
<path style="fill:#131941; stroke:none;" d="M1050 502L1051 503L1050 502z"/>
<path style="fill:#16171e; stroke:none;" d="M1051 502L1052 503L1051 502M877 503L878 504L877 503z"/>
<path style="fill:#162268; stroke:none;" d="M878 503L879 504L878 503M1054.67 503.333L1055.33 503.667L1054.67 503.333z"/>
<path style="fill:#131941; stroke:none;" d="M1056 503L1057 504L1056 503z"/>
<path style="fill:#16171e; stroke:none;" d="M1057 503L1058 504L1057 503z"/>
<path style="fill:#131941; stroke:none;" d="M875 504L876 505L875 504z"/>
<path style="fill:#162268; stroke:none;" d="M876 504L877 505L876 504M1060.67 504.333L1061.33 504.667L1060.67 504.333z"/>
<path style="fill:#131941; stroke:none;" d="M1062 504L1063 505L1062 504z"/>
<path style="fill:#16171e; stroke:none;" d="M1063 504L1064 505L1063 504z"/>
<path style="fill:#131941; stroke:none;" d="M873 505L874 506L873 505z"/>
<path style="fill:#162268; stroke:none;" d="M1066 505L1067 506L1066 505z"/>
<path style="fill:#131941; stroke:none;" d="M1067.67 505.333L1068.33 505.667L1067.67 505.333M871 506L872 507L871 506z"/>
<path style="fill:#162268; stroke:none;" d="M1072 506L1073 507L1072 506z"/>
<path style="fill:#131941; stroke:none;" d="M1073.67 506.333L1074.33 506.667L1073.67 506.333z"/>
<path style="fill:#16171e; stroke:none;" d="M868 507L869 508L868 507z"/>
<path style="fill:#162268; stroke:none;" d="M869 507L870 508L869 507M1078 507L1079 508L1078 507z"/>
<path style="fill:#131941; stroke:none;" d="M1079.67 507.333L1080.33 507.667L1079.67 507.333M866 508L867 509L866 508z"/>
<path style="fill:#162268; stroke:none;" d="M867 508L868 509L867 508M1084 508L1085 509L1084 508z"/>
<path style="fill:#131941; stroke:none;" d="M1085.67 508.333L1086.33 508.667L1085.67 508.333M864 509L865 510L864 509z"/>
<path style="fill:#162268; stroke:none;" d="M865 509L866 510L865 509M1090 509L1091 510L1090 509z"/>
<path style="fill:#131941; stroke:none;" d="M1091.67 509.333L1092.33 509.667L1091.67 509.333M862 510L863 511L862 510z"/>
<path style="fill:#162268; stroke:none;" d="M1096 510L1097 511L1096 510z"/>
<path style="fill:#131941; stroke:none;" d="M1097.67 510.333L1098.33 510.667L1097.67 510.333z"/>
<path style="fill:#162268; stroke:none;" d="M860 511L861 512L860 511M1102 511L1103 512L1102 511z"/>
<path style="fill:#131941; stroke:none;" d="M1103.67 511.333L1104.33 511.667L1103.67 511.333z"/>
<path style="fill:#16171e; stroke:none;" d="M857 512L858 513L857 512z"/>
<path style="fill:#162268; stroke:none;" d="M858 512L859 513L858 512M1108 512L1109 513L1108 512z"/>
<path style="fill:#131941; stroke:none;" d="M1109 512L1110 513L1109 512z"/>
<path style="fill:#16171e; stroke:none;" d="M1110 512L1111 513L1110 512z"/>
<path style="fill:#131941; stroke:none;" d="M855 513L856 514L855 513z"/>
<path style="fill:#162268; stroke:none;" d="M856 513L857 514L856 513M1114 513L1115 514L1114 513z"/>
<path style="fill:#131941; stroke:none;" d="M1115 513L1116 514L1115 513z"/>
<path style="fill:#16171e; stroke:none;" d="M1116 513L1117 514L1116 513z"/>
<path style="fill:#131941; stroke:none;" d="M853 514L854 515L853 514z"/>
<path style="fill:#162268; stroke:none;" d="M1120 514L1121 515L1120 514z"/>
<path style="fill:#131941; stroke:none;" d="M1121 514L1122 515L1121 514z"/>
<path style="fill:#16171e; stroke:none;" d="M1122 514L1123 515L1122 514z"/>
<path style="fill:#131941; stroke:none;" d="M851 515L852 516L851 515z"/>
<path style="fill:#162268; stroke:none;" d="M1125.67 515.333L1126.33 515.667L1125.67 515.333z"/>
<path style="fill:#131941; stroke:none;" d="M1127 515L1128 516L1127 515z"/>
<path style="fill:#16171e; stroke:none;" d="M1128 515L1129 516L1128 515M848 516L849 517L848 516z"/>
<path style="fill:#162268; stroke:none;" d="M849 516L850 517L849 516M1131.67 516.333L1132.33 516.667L1131.67 516.333z"/>
<path style="fill:#131941; stroke:none;" d="M1133 516L1134 517L1133 516z"/>
<path style="fill:#16171e; stroke:none;" d="M1134 516L1135 517L1134 516z"/>
<path style="fill:#131941; stroke:none;" d="M846 517L847 518L846 517z"/>
<path style="fill:#162268; stroke:none;" d="M847 517L848 518L847 517M1137.67 517.333L1138.33 517.667L1137.67 517.333z"/>
<path style="fill:#131941; stroke:none;" d="M1139 517L1140 518L1139 517z"/>
<path style="fill:#16171e; stroke:none;" d="M1140 517L1141 518L1140 517z"/>
<path style="fill:#131941; stroke:none;" d="M844 518L845 519L844 518z"/>
<path style="fill:#162268; stroke:none;" d="M1143.67 518.333L1144.33 518.667L1143.67 518.333z"/>
<path style="fill:#131941; stroke:none;" d="M1145 518L1146 519L1145 518z"/>
<path style="fill:#16171e; stroke:none;" d="M1146 518L1147 519L1146 518z"/>
<path style="fill:#131941; stroke:none;" d="M842 519L843 520L842 519z"/>
<path style="fill:#162268; stroke:none;" d="M1149.67 519.333L1150.33 519.667L1149.67 519.333z"/>
<path style="fill:#131941; stroke:none;" d="M1151 519L1152 520L1151 519z"/>
<path style="fill:#16171e; stroke:none;" d="M1152 519L1153 520L1152 519M839 520L840 521L839 520z"/>
<path style="fill:#162268; stroke:none;" d="M840 520L841 521L840 520M1155.67 520.333L1156.33 520.667L1155.67 520.333z"/>
<path style="fill:#131941; stroke:none;" d="M1157 520L1158 521L1157 520z"/>
<path style="fill:#16171e; stroke:none;" d="M1158 520L1159 521L1158 520z"/>
<path style="fill:#131941; stroke:none;" d="M837 521L838 522L837 521z"/>
<path style="fill:#162268; stroke:none;" d="M838 521L839 522L838 521M1161.67 521.333L1162.33 521.667L1161.67 521.333z"/>
<path style="fill:#131941; stroke:none;" d="M1163 521L1164 522L1163 521z"/>
<path style="fill:#16171e; stroke:none;" d="M1164 521L1165 522L1164 521z"/>
<path style="fill:#131941; stroke:none;" d="M835 522L836 523L835 522z"/>
<path style="fill:#162268; stroke:none;" d="M836 522L837 523L836 522M1167.67 522.333L1168.33 522.667L1167.67 522.333z"/>
<path style="fill:#131941; stroke:none;" d="M1169 522L1170 523L1169 522z"/>
<path style="fill:#16171e; stroke:none;" d="M1170 522L1171 523L1170 522z"/>
<path style="fill:#131941; stroke:none;" d="M833 523L834 524L833 523z"/>
<path style="fill:#162268; stroke:none;" d="M1173.67 523.333L1174.33 523.667L1173.67 523.333z"/>
<path style="fill:#131941; stroke:none;" d="M1175 523L1176 524L1175 523z"/>
<path style="fill:#16171e; stroke:none;" d="M1176 523L1177 524L1176 523z"/>
<path style="fill:#162268; stroke:none;" d="M831 524L832 525L831 524M1179.67 524.333L1180.33 524.667L1179.67 524.333z"/>
<path style="fill:#131941; stroke:none;" d="M1181 524L1182 525L1181 524z"/>
<path style="fill:#16171e; stroke:none;" d="M1182 524L1183 525L1182 524M828 525L829 526L828 525z"/>
<path style="fill:#162268; stroke:none;" d="M829 525L830 526L829 525M1185.67 525.333L1186.33 525.667L1185.67 525.333z"/>
<path style="fill:#131941; stroke:none;" d="M1187 525L1188 526L1187 525z"/>
<path style="fill:#16171e; stroke:none;" d="M1188 525L1189 526L1188 525z"/>
<path style="fill:#131941; stroke:none;" d="M826 526L827 527L826 526z"/>
<path style="fill:#162268; stroke:none;" d="M827 526L828 527L827 526M1191 526L1192 527L1191 526z"/>
<path style="fill:#131941; stroke:none;" d="M1192.67 526.333L1193.33 526.667L1192.67 526.333z"/>
<path style="fill:#16171e; stroke:none;" d="M1194 526L1195 527L1194 526z"/>
<path style="fill:#131941; stroke:none;" d="M824 527L825 528L824 527z"/>
<path style="fill:#162268; stroke:none;" d="M1197 527L1198 528L1197 527z"/>
<path style="fill:#131941; stroke:none;" d="M1198.67 527.333L1199.33 527.667L1198.67 527.333z"/>
<path style="fill:#16171e; stroke:none;" d="M1200 527L1201 528L1200 527z"/>
<path style="fill:#162268; stroke:none;" d="M822 528L823 529L822 528M1203.67 528.333L1204.33 528.667L1203.67 528.333z"/>
<path style="fill:#131941; stroke:none;" d="M1205 528L1206 529L1205 528z"/>
<path style="fill:#16171e; stroke:none;" d="M1206 528L1207 529L1206 528M819 529L820 530L819 529z"/>
<path style="fill:#162268; stroke:none;" d="M820 529L821 530L820 529M1209.67 529.333L1210.33 529.667L1209.67 529.333z"/>
<path style="fill:#131941; stroke:none;" d="M1211 529L1212 530L1211 529z"/>
<path style="fill:#16171e; stroke:none;" d="M1212 529L1213 530L1212 529z"/>
<path style="fill:#131941; stroke:none;" d="M817 530L818 531L817 530z"/>
<path style="fill:#162268; stroke:none;" d="M818 530L819 531L818 530M1215 530L1215 531L1218 532L1215 530z"/>
<path style="fill:#131941; stroke:none;" d="M1217 530L1219 532L1217 530z"/>
<path style="fill:#16171e; stroke:none;" d="M1218 530L1219 531L1218 530z"/>
<path style="fill:#131941; stroke:none;" d="M815 531L816 532L815 531M813 532L814 533L813 532M1216 532L1217 533L1216 532z"/>
<path style="fill:#16171e; stroke:none;" d="M1226 532L1030 631L1030 632C1081.18 610.692 1130.4 582.048 1180 557.247C1191.61 551.444 1203.4 546.045 1215 540.247C1218.41 538.541 1226.11 536.382 1226 532M810 533L811 534L810 533z"/>
<path style="fill:#162268; stroke:none;" d="M811 533L812 534L811 533z"/>
<path style="fill:#131941; stroke:none;" d="M1214 533L1215 534L1214 533M808 534L809 535L808 534z"/>
<path style="fill:#162268; stroke:none;" d="M809 534L810 535L809 534z"/>
<path style="fill:#131941; stroke:none;" d="M1212 534L1213 535L1212 534z"/>
<path style="fill:#162268; stroke:none;" d="M1226 534L1226 743L1227 743L1227 596L1227 554L1226 534z"/>
<path style="fill:#131941; stroke:none;" d="M806 535L807 536L806 535z"/>
<path style="fill:#162268; stroke:none;" d="M807 535L808 536L807 535z"/>
<path style="fill:#131941; stroke:none;" d="M1210 535L1211 536L1210 535z"/>
<path style="fill:#162268; stroke:none;" d="M1224 535L1225 536L1224 535z"/>
<path style="fill:#1d2e94; stroke:none;" d="M1225 535L1085 604.753L1047 623.753L1032.03 632.39L1031 660L1031 730L1031 993L1079 963.681L1174 904.05L1210 881.601L1225.97 870.671L1227 848L1227 790L1226 611L1226 559L1225 535z"/>
<path style="fill:#131941; stroke:none;" d="M804 536L805 537L804 536M1208 536L1209 537L1208 536z"/>
<path style="fill:#162268; stroke:none;" d="M1222 536L1223 537L1222 536z"/>
<path style="fill:#16171e; stroke:none;" d="M801 537L802 538L801 537z"/>
<path style="fill:#162268; stroke:none;" d="M802 537L803 538L802 537z"/>
<path style="fill:#131941; stroke:none;" d="M1206 537L1207 538L1206 537z"/>
<path style="fill:#162268; stroke:none;" d="M1220 537L1221 538L1220 537z"/>
<path style="fill:#131941; stroke:none;" d="M799 538L800 539L799 538z"/>
<path style="fill:#162268; stroke:none;" d="M800 538L801 539L800 538z"/>
<path style="fill:#131941; stroke:none;" d="M1204 538L1205 539L1204 538z"/>
<path style="fill:#162268; stroke:none;" d="M1218 538L1219 539L1218 538z"/>
<path style="fill:#131941; stroke:none;" d="M797 539L798 540L797 539z"/>
<path style="fill:#162268; stroke:none;" d="M798 539L799 540L798 539z"/>
<path style="fill:#131941; stroke:none;" d="M1202 539L1203 540L1202 539z"/>
<path style="fill:#162268; stroke:none;" d="M1216 539L1217 540L1216 539z"/>
<path style="fill:#131941; stroke:none;" d="M795 540L796 541L795 540M1200 540L1201 541L1200 540z"/>
<path style="fill:#162268; stroke:none;" d="M1214 540L1215 541L1214 540M793 541L794 542L793 541z"/>
<path style="fill:#131941; stroke:none;" d="M1198 541L1199 542L1198 541z"/>
<path style="fill:#162268; stroke:none;" d="M1212 541L1213 542L1212 541z"/>
<path style="fill:#16171e; stroke:none;" d="M790 542L791 543L790 542z"/>
<path style="fill:#162268; stroke:none;" d="M791 542L792 543L791 542z"/>
<path style="fill:#131941; stroke:none;" d="M1196 542L1197 543L1196 542z"/>
<path style="fill:#162268; stroke:none;" d="M1210 542L1211 543L1210 542z"/>
<path style="fill:#131941; stroke:none;" d="M788 543L789 544L788 543z"/>
<path style="fill:#162268; stroke:none;" d="M789 543L790 544L789 543z"/>
<path style="fill:#131941; stroke:none;" d="M1194 543L1195 544L1194 543z"/>
<path style="fill:#162268; stroke:none;" d="M1208 543L1209 544L1208 543z"/>
<path style="fill:#131941; stroke:none;" d="M786 544L787 545L786 544M1192 544L1193 545L1192 544z"/>
<path style="fill:#162268; stroke:none;" d="M1206 544L1207 545L1206 544z"/>
<path style="fill:#131941; stroke:none;" d="M784 545L785 546L784 545M1190 545L1191 546L1190 545M1203 545L1204 546L1203 545z"/>
<path style="fill:#162268; stroke:none;" d="M1204 545L1205 546L1204 545z"/>
<path style="fill:#16171e; stroke:none;" d="M781 546L782 547L781 546z"/>
<path style="fill:#162268; stroke:none;" d="M782 546L783 547L782 546z"/>
<path style="fill:#131941; stroke:none;" d="M1188 546L1189 547L1188 546M1201 546L1202 547L1201 546z"/>
<path style="fill:#162268; stroke:none;" d="M1202 546L1203 547L1202 546z"/>
<path style="fill:#131941; stroke:none;" d="M779 547L780 548L779 547z"/>
<path style="fill:#162268; stroke:none;" d="M780 547L781 548L780 547z"/>
<path style="fill:#131941; stroke:none;" d="M1186 547L1187 548L1186 547M1199 547L1200 548L1199 547z"/>
<path style="fill:#162268; stroke:none;" d="M1200 547L1201 548L1200 547z"/>
<path style="fill:#131941; stroke:none;" d="M777 548L778 549L777 548M1184 548L1185 549L1184 548M1197 548L1198 549L1197 548z"/>
<path style="fill:#162268; stroke:none;" d="M1198 548L1199 549L1198 548z"/>
<path style="fill:#131941; stroke:none;" d="M775 549L776 550L775 549M1182 549L1183 550L1182 549M1195 549L1196 550L1195 549z"/>
<path style="fill:#162268; stroke:none;" d="M1196 549L1197 550L1196 549z"/>
<path style="fill:#16171e; stroke:none;" d="M772 550L773 551L772 550z"/>
<path style="fill:#162268; stroke:none;" d="M773 550L774 551L773 550z"/>
<path style="fill:#131941; stroke:none;" d="M1180 550L1181 551L1180 550M1193 550L1194 551L1193 550z"/>
<path style="fill:#162268; stroke:none;" d="M1194 550L1195 551L1194 550z"/>
<path style="fill:#131941; stroke:none;" d="M770 551L771 552L770 551z"/>
<path style="fill:#162268; stroke:none;" d="M771 551L772 552L771 551z"/>
<path style="fill:#131941; stroke:none;" d="M1178 551L1179 552L1178 551M1191 551L1192 552L1191 551z"/>
<path style="fill:#162268; stroke:none;" d="M1192 551L1193 552L1192 551z"/>
<path style="fill:#131941; stroke:none;" d="M768 552L769 553L768 552z"/>
<path style="fill:#162268; stroke:none;" d="M769 552L770 553L769 552z"/>
<path style="fill:#131941; stroke:none;" d="M1176 552L1177 553L1176 552M1189 552L1190 553L1189 552z"/>
<path style="fill:#162268; stroke:none;" d="M1190 552L1191 553L1190 552z"/>
<path style="fill:#16171e; stroke:none;" d="M754 553L755 554L754 553z"/>
<path style="fill:#131941; stroke:none;" d="M766 553L767 554L766 553M1174 553L1175 554L1174 553M1187 553L1188 554L1187 553z"/>
<path style="fill:#162268; stroke:none;" d="M1188 553L1189 554L1188 553z"/>
<path style="fill:#16171e; stroke:none;" d="M763 554L764 555L763 554z"/>
<path style="fill:#162268; stroke:none;" d="M764 554L765 555L764 554z"/>
<path style="fill:#131941; stroke:none;" d="M1172 554L1173 555L1172 554M1185 554L1186 555L1185 554z"/>
<path style="fill:#162268; stroke:none;" d="M1186 554L1187 555L1186 554z"/>
<path style="fill:#131941; stroke:none;" d="M761 555L762 556L761 555z"/>
<path style="fill:#162268; stroke:none;" d="M762 555L763 556L762 555z"/>
<path style="fill:#131941; stroke:none;" d="M1170 555L1171 556L1170 555M1183 555L1184 556L1183 555z"/>
<path style="fill:#162268; stroke:none;" d="M1184 555L1185 556L1184 555z"/>
<path style="fill:#16171e; stroke:none;" d="M747 556L748 557L747 556z"/>
<path style="fill:#131941; stroke:none;" d="M759 556L760 557L759 556z"/>
<path style="fill:#162268; stroke:none;" d="M760 556L761 557L760 556z"/>
<path style="fill:#131941; stroke:none;" d="M1168 556L1169 557L1168 556M1181 556L1182 557L1181 556z"/>
<path style="fill:#162268; stroke:none;" d="M1182 556L1183 557L1182 556z"/>
<path style="fill:#16171e; stroke:none;" d="M745 557L746 558L745 557z"/>
<path style="fill:#131941; stroke:none;" d="M757 557L758 558L757 557M1166 557L1167 558L1166 557M1179 557L1180 558L1179 557z"/>
<path style="fill:#162268; stroke:none;" d="M1180 557L1181 558L1180 557z"/>
<path style="fill:#16171e; stroke:none;" d="M740 559L740 560L744 559L740 559z"/>
<path style="fill:#162268; stroke:none;" d="M755 558L756 559L755 558z"/>
<path style="fill:#131941; stroke:none;" d="M1164 558L1165 559L1164 558M1177 558L1178 559L1177 558z"/>
<path style="fill:#162268; stroke:none;" d="M1178 558L1179 559L1178 558z"/>
<path style="fill:#16171e; stroke:none;" d="M752 559L753 560L752 559z"/>
<path style="fill:#162268; stroke:none;" d="M753 559L754 560L753 559z"/>
<path style="fill:#131941; stroke:none;" d="M1162 559L1163 560L1162 559M1175 559L1176 560L1175 559z"/>
<path style="fill:#162268; stroke:none;" d="M1176 559L1177 560L1176 559z"/>
<path style="fill:#16171e; stroke:none;" d="M738 560L739 561L738 560z"/>
<path style="fill:#131941; stroke:none;" d="M750 560L751 561L750 560z"/>
<path style="fill:#162268; stroke:none;" d="M751 560L752 561L751 560z"/>
<path style="fill:#131941; stroke:none;" d="M1160 560L1161 561L1160 560M1173 560L1174 561L1173 560z"/>
<path style="fill:#162268; stroke:none;" d="M1174 560L1175 561L1174 560z"/>
<path style="fill:#16171e; stroke:none;" d="M736 561L737 562L736 561z"/>
<path style="fill:#131941; stroke:none;" d="M748 561L749 562L748 561M1158 561L1159 562L1158 561M1171 561L1172 562L1171 561z"/>
<path style="fill:#162268; stroke:none;" d="M1172 561L1173 562L1172 561z"/>
<path style="fill:#16171e; stroke:none;" d="M731 563L731 564L735 563L731 563z"/>
<path style="fill:#162268; stroke:none;" d="M746 562L747 563L746 562z"/>
<path style="fill:#131941; stroke:none;" d="M1156 562L1157 563L1156 562M1169 562L1170 563L1169 562z"/>
<path style="fill:#162268; stroke:none;" d="M1170 562L1171 563L1170 562z"/>
<path style="fill:#16171e; stroke:none;" d="M743 563L744 564L743 563z"/>
<path style="fill:#162268; stroke:none;" d="M744 563L745 564L744 563z"/>
<path style="fill:#131941; stroke:none;" d="M1154 563L1155 564L1154 563M1167 563L1168 564L1167 563z"/>
<path style="fill:#162268; stroke:none;" d="M1168 563L1169 564L1168 563z"/>
<path style="fill:#16171e; stroke:none;" d="M729 564L730 565L729 564z"/>
<path style="fill:#131941; stroke:none;" d="M741 564L742 565L741 564z"/>
<path style="fill:#162268; stroke:none;" d="M742 564L743 565L742 564M1152 564L1153 565L1152 564z"/>
<path style="fill:#131941; stroke:none;" d="M1165 564L1166 565L1165 564z"/>
<path style="fill:#162268; stroke:none;" d="M1166 564L1167 565L1166 564z"/>
<path style="fill:#16171e; stroke:none;" d="M720 568L720 569L728 566L720 568z"/>
<path style="fill:#131941; stroke:none;" d="M739 565L740 566L739 565z"/>
<path style="fill:#162268; stroke:none;" d="M1150 565L1151 566L1150 565z"/>
<path style="fill:#131941; stroke:none;" d="M1163 565L1164 566L1163 565z"/>
<path style="fill:#162268; stroke:none;" d="M1164 565L1165 566L1164 565M737 566L738 567L737 566M1148 566L1149 567L1148 566M1161 566L1162 567L1161 566z"/>
<path style="fill:#16171e; stroke:none;" d="M734 567L735 568L734 567z"/>
<path style="fill:#162268; stroke:none;" d="M735 567L736 568L735 567M1146 567L1147 568L1146 567M1159 567L1160 568L1159 567z"/>
<path style="fill:#131941; stroke:none;" d="M732 568L733 569L732 568z"/>
<path style="fill:#162268; stroke:none;" d="M733 568L734 569L733 568M1144 568L1145 569L1144 568M1157 568L1158 569L1157 568z"/>
<path style="fill:#16171e; stroke:none;" d="M700 577L700 578L719 570L700 577z"/>
<path style="fill:#131941; stroke:none;" d="M730 569L731 570L730 569z"/>
<path style="fill:#162268; stroke:none;" d="M1142 569L1143 570L1142 569M1155 569L1156 570L1155 569z"/>
<path style="fill:#131941; stroke:none;" d="M728 570L729 571L728 570z"/>
<path style="fill:#162268; stroke:none;" d="M1140 570L1141 571L1140 570M1153 570L1154 571L1153 570z"/>
<path style="fill:#16171e; stroke:none;" d="M725 571L726 572L725 571z"/>
<path style="fill:#162268; stroke:none;" d="M726 571L727 572L726 571z"/>
<path style="fill:#131941; stroke:none;" d="M1138 571L1139 572L1138 571z"/>
<path style="fill:#162268; stroke:none;" d="M1151 571L1152 572L1151 571z"/>
<path style="fill:#131941; stroke:none;" d="M723 572L724 573L723 572z"/>
<path style="fill:#162268; stroke:none;" d="M724 572L725 573L724 572z"/>
<path style="fill:#131941; stroke:none;" d="M1136 572L1137 573L1136 572z"/>
<path style="fill:#162268; stroke:none;" d="M1149 572L1150 573L1149 572z"/>
<path style="fill:#131941; stroke:none;" d="M721 573L722 574L721 573M1134 573L1135 574L1134 573z"/>
<path style="fill:#162268; stroke:none;" d="M1147 573L1148 574L1147 573M719 574L720 575L719 574z"/>
<path style="fill:#131941; stroke:none;" d="M1132 574L1133 575L1132 574z"/>
<path style="fill:#162268; stroke:none;" d="M1145 574L1146 575L1145 574z"/>
<path style="fill:#16171e; stroke:none;" d="M716 575L717 576L716 575z"/>
<path style="fill:#162268; stroke:none;" d="M717 575L718 576L717 575z"/>
<path style="fill:#131941; stroke:none;" d="M1130 575L1131 576L1130 575z"/>
<path style="fill:#162268; stroke:none;" d="M1143 575L1144 576L1143 575z"/>
<path style="fill:#131941; stroke:none;" d="M714 576L716 578L714 576z"/>
<path style="fill:#162268; stroke:none;" d="M715 576L716 577L715 576z"/>
<path style="fill:#131941; stroke:none;" d="M1128 576L1129 577L1128 576z"/>
<path style="fill:#162268; stroke:none;" d="M1141 576L1142 577L1141 576z"/>
<path style="fill:#16171e; stroke:none;" d="M713.667 577.333L714.333 577.667L713.667 577.333z"/>
<path style="fill:#162268; stroke:none;" d="M716 577L717 578L716 577z"/>
<path style="fill:#131941; stroke:none;" d="M1126 577L1127 578L1126 577z"/>
<path style="fill:#162268; stroke:none;" d="M1139 577L1140 578L1139 577z"/>
<path style="fill:#16171e; stroke:none;" d="M719.667 578.333L720.333 578.667L719.667 578.333z"/>
<path style="fill:#131941; stroke:none;" d="M721 578L722 579L721 578z"/>
<path style="fill:#162268; stroke:none;" d="M722.667 578.333L723.333 578.667L722.667 578.333z"/>
<path style="fill:#131941; stroke:none;" d="M1124 578L1125 579L1124 578z"/>
<path style="fill:#162268; stroke:none;" d="M1137 578L1138 579L1137 578z"/>
<path style="fill:#16171e; stroke:none;" d="M725.667 579.333L726.333 579.667L725.667 579.333z"/>
<path style="fill:#131941; stroke:none;" d="M727 579L728 580L727 579z"/>
<path style="fill:#162268; stroke:none;" d="M728.667 579.333L729.333 579.667L728.667 579.333z"/>
<path style="fill:#131941; stroke:none;" d="M1122 579L1123 580L1122 579z"/>
<path style="fill:#162268; stroke:none;" d="M1135 579L1136 580L1135 579z"/>
<path style="fill:#16171e; stroke:none;" d="M731.667 580.333L732.333 580.667L731.667 580.333z"/>
<path style="fill:#131941; stroke:none;" d="M733 580L734 581L733 580z"/>
<path style="fill:#162268; stroke:none;" d="M734.667 580.333L735.333 580.667L734.667 580.333z"/>
<path style="fill:#131941; stroke:none;" d="M1120 580L1121 581L1120 580z"/>
<path style="fill:#162268; stroke:none;" d="M1133 580L1134 581L1133 580z"/>
<path style="fill:#131941; stroke:none;" d="M704 581L704 592L705 592L704 581z"/>
<path style="fill:#162268; stroke:none;" d="M705 581L705 582L708 582L705 581z"/>
<path style="fill:#131941; stroke:none;" d="M708.667 581.333L709.333 581.667L708.667 581.333z"/>
<path style="fill:#16171e; stroke:none;" d="M710.667 581.333L711.333 581.667L710.667 581.333M738 581L739 582L738 581z"/>
<path style="fill:#131941; stroke:none;" d="M739 581L740 582L739 581z"/>
<path style="fill:#162268; stroke:none;" d="M740.667 581.333L741.333 581.667L740.667 581.333z"/>
<path style="fill:#131941; stroke:none;" d="M1118 581L1119 582L1118 581z"/>
<path style="fill:#162268; stroke:none;" d="M1131 581L1132 582L1131 581z"/>
<path style="fill:#1d2e94; stroke:none;" d="M705 582L714 932C742.777 935.716 771.542 942.917 800 948.6C846.613 957.91 893.326 966.8 940 975.803C967.514 981.111 997.025 990.796 1025 992L1025 759C1025 717.767 1021.81 675.012 1026 634L950 621.247L781 593.728L705 582z"/>
<path style="fill:#162268; stroke:none;" d="M712.667 582.333L713.333 582.667L712.667 582.333z"/>
<path style="fill:#131941; stroke:none;" d="M714.667 582.333L715.333 582.667L714.667 582.333z"/>
<path style="fill:#16171e; stroke:none;" d="M716.667 582.333L717.333 582.667L716.667 582.333M744 582L745 583L744 582z"/>
<path style="fill:#131941; stroke:none;" d="M745.667 582.333L746.333 582.667L745.667 582.333z"/>
<path style="fill:#162268; stroke:none;" d="M747 582L748 583L747 582z"/>
<path style="fill:#131941; stroke:none;" d="M1116 582L1117 583L1116 582z"/>
<path style="fill:#162268; stroke:none;" d="M1129 582L1130 583L1129 582z"/>
<path style="fill:#16171e; stroke:none;" d="M700 583L700 617L701 617L700 583z"/>
<path style="fill:#162268; stroke:none;" d="M718.667 583.333L719.333 583.667L718.667 583.333z"/>
<path style="fill:#131941; stroke:none;" d="M720.667 583.333L721.333 583.667L720.667 583.333z"/>
<path style="fill:#16171e; stroke:none;" d="M722.667 583.333L723.333 583.667L722.667 583.333M750 583L751 584L750 583z"/>
<path style="fill:#131941; stroke:none;" d="M751.667 583.333L752.333 583.667L751.667 583.333z"/>
<path style="fill:#162268; stroke:none;" d="M753 583L754 584L753 583z"/>
<path style="fill:#131941; stroke:none;" d="M1114 583L1115 584L1114 583z"/>
<path style="fill:#162268; stroke:none;" d="M1127 583L1128 584L1127 583M724.667 584.333L725.333 584.667L724.667 584.333z"/>
<path style="fill:#131941; stroke:none;" d="M726.667 584.333L727.333 584.667L726.667 584.333z"/>
<path style="fill:#16171e; stroke:none;" d="M728.667 584.333L729.333 584.667L728.667 584.333M756 584L757 585L756 584z"/>
<path style="fill:#131941; stroke:none;" d="M757.667 584.333L758.333 584.667L757.667 584.333z"/>
<path style="fill:#162268; stroke:none;" d="M759 584L760 585L759 584z"/>
<path style="fill:#131941; stroke:none;" d="M1112 584L1113 585L1112 584z"/>
<path style="fill:#162268; stroke:none;" d="M1125 584L1126 585L1125 584M730.667 585.333L731.333 585.667L730.667 585.333z"/>
<path style="fill:#131941; stroke:none;" d="M732.667 585.333L733.333 585.667L732.667 585.333z"/>
<path style="fill:#16171e; stroke:none;" d="M734.667 585.333L735.333 585.667L734.667 585.333M763 585L764 586L763 585z"/>
<path style="fill:#131941; stroke:none;" d="M764 585L765 586L764 585z"/>
<path style="fill:#162268; stroke:none;" d="M765.667 585.333L766.333 585.667L765.667 585.333z"/>
<path style="fill:#131941; stroke:none;" d="M1110 585L1111 586L1110 585z"/>
<path style="fill:#162268; stroke:none;" d="M1123 585L1124 586L1123 585M736 586L736 587L739 587L736 586z"/>
<path style="fill:#131941; stroke:none;" d="M739 586L740 587L739 586z"/>
<path style="fill:#16171e; stroke:none;" d="M740.667 586.333L741.333 586.667L740.667 586.333M769 586L770 587L769 586z"/>
<path style="fill:#131941; stroke:none;" d="M770 586L771 587L770 586z"/>
<path style="fill:#162268; stroke:none;" d="M771.667 586.333L772.333 586.667L771.667 586.333z"/>
<path style="fill:#131941; stroke:none;" d="M1108 586L1109 587L1108 586z"/>
<path style="fill:#162268; stroke:none;" d="M1121 586L1122 587L1121 586M742 587L742 588L745 588L742 587z"/>
<path style="fill:#131941; stroke:none;" d="M745 587L746 588L745 587z"/>
<path style="fill:#16171e; stroke:none;" d="M746.667 587.333L747.333 587.667L746.667 587.333M775 587L776 588L775 587z"/>
<path style="fill:#131941; stroke:none;" d="M776 587L777 588L776 587z"/>
<path style="fill:#162268; stroke:none;" d="M777.667 587.333L778.333 587.667L777.667 587.333z"/>
<path style="fill:#131941; stroke:none;" d="M1106 587L1107 588L1106 587z"/>
<path style="fill:#162268; stroke:none;" d="M1119 587L1120 588L1119 587M749.667 588.333L750.333 588.667L749.667 588.333z"/>
<path style="fill:#131941; stroke:none;" d="M751 588L752 589L751 588z"/>
<path style="fill:#16171e; stroke:none;" d="M752.667 588.333L753.333 588.667L752.667 588.333M781 588L782 589L781 588z"/>
<path style="fill:#131941; stroke:none;" d="M782 588L783 589L782 588z"/>
<path style="fill:#162268; stroke:none;" d="M783.667 588.333L784.333 588.667L783.667 588.333z"/>
<path style="fill:#131941; stroke:none;" d="M1104 588L1105 589L1104 588z"/>
<path style="fill:#162268; stroke:none;" d="M1117 588L1118 589L1117 588M755.667 589.333L756.333 589.667L755.667 589.333z"/>
<path style="fill:#131941; stroke:none;" d="M757.667 589.333L758.333 589.667L757.667 589.333z"/>
<path style="fill:#16171e; stroke:none;" d="M759.667 589.333L760.333 589.667L759.667 589.333M787 589L788 590L787 589z"/>
<path style="fill:#131941; stroke:none;" d="M788 589L789 590L788 589z"/>
<path style="fill:#162268; stroke:none;" d="M789.667 589.333L790.333 589.667L789.667 589.333z"/>
<path style="fill:#131941; stroke:none;" d="M1102 589L1103 590L1102 589z"/>
<path style="fill:#162268; stroke:none;" d="M1115 589L1116 590L1115 589M705 590L705 616L706 616L705 590M761.667 590.333L762.333 590.667L761.667 590.333z"/>
<path style="fill:#131941; stroke:none;" d="M763.667 590.333L764.333 590.667L763.667 590.333z"/>
<path style="fill:#16171e; stroke:none;" d="M765.667 590.333L766.333 590.667L765.667 590.333M793 590L794 591L793 590z"/>
<path style="fill:#131941; stroke:none;" d="M794.667 590.333L795.333 590.667L794.667 590.333z"/>
<path style="fill:#162268; stroke:none;" d="M796.667 590.333L797.333 590.667L796.667 590.333z"/>
<path style="fill:#131941; stroke:none;" d="M1100 590L1101 591L1100 590z"/>
<path style="fill:#162268; stroke:none;" d="M1113 590L1114 591L1113 590M767.667 591.333L768.333 591.667L767.667 591.333z"/>
<path style="fill:#131941; stroke:none;" d="M769.667 591.333L770.333 591.667L769.667 591.333z"/>
<path style="fill:#16171e; stroke:none;" d="M771.667 591.333L772.333 591.667L771.667 591.333z"/>
<path style="fill:#131941; stroke:none;" d="M800.667 591.333L801.333 591.667L800.667 591.333z"/>
<path style="fill:#162268; stroke:none;" d="M802.667 591.333L803.333 591.667L802.667 591.333z"/>
<path style="fill:#131941; stroke:none;" d="M1098 591L1099 592L1098 591z"/>
<path style="fill:#162268; stroke:none;" d="M1111 591L1112 592L1111 591z"/>
<path style="fill:#16171e; stroke:none;" d="M704.333 592.667L704.667 593.333L704.333 592.667z"/>
<path style="fill:#162268; stroke:none;" d="M773.667 592.333L774.333 592.667L773.667 592.333z"/>
<path style="fill:#131941; stroke:none;" d="M775.667 592.333L776.333 592.667L775.667 592.333z"/>
<path style="fill:#16171e; stroke:none;" d="M777.667 592.333L778.333 592.667L777.667 592.333z"/>
<path style="fill:#131941; stroke:none;" d="M806.667 592.333L807.333 592.667L806.667 592.333z"/>
<path style="fill:#162268; stroke:none;" d="M808.667 592.333L809.333 592.667L808.667 592.333z"/>
<path style="fill:#131941; stroke:none;" d="M1096 592L1097 593L1096 592z"/>
<path style="fill:#162268; stroke:none;" d="M1109 592L1110 593L1109 592M779 593L779 594L782 594L779 593z"/>
<path style="fill:#131941; stroke:none;" d="M782 593L783 594L782 593z"/>
<path style="fill:#16171e; stroke:none;" d="M783.667 593.333L784.333 593.667L783.667 593.333z"/>
<path style="fill:#131941; stroke:none;" d="M812.667 593.333L813.333 593.667L812.667 593.333z"/>
<path style="fill:#162268; stroke:none;" d="M814.667 593.333L815.333 593.667L814.667 593.333z"/>
<path style="fill:#131941; stroke:none;" d="M1094 593L1095 594L1094 593z"/>
<path style="fill:#162268; stroke:none;" d="M1107 593L1108 594L1107 593M786.667 594.333L787.333 594.667L786.667 594.333z"/>
<path style="fill:#131941; stroke:none;" d="M788 594L789 595L788 594z"/>
<path style="fill:#16171e; stroke:none;" d="M789.667 594.333L790.333 594.667L789.667 594.333M818 594L819 595L818 594z"/>
<path style="fill:#131941; stroke:none;" d="M819 594L820 595L819 594z"/>
<path style="fill:#162268; stroke:none;" d="M820.667 594.333L821.333 594.667L820.667 594.333z"/>
<path style="fill:#131941; stroke:none;" d="M1092 594L1093 595L1092 594z"/>
<path style="fill:#162268; stroke:none;" d="M1105 594L1106 595L1105 594M792.667 595.333L793.333 595.667L792.667 595.333z"/>
<path style="fill:#131941; stroke:none;" d="M794 595L795 596L794 595z"/>
<path style="fill:#16171e; stroke:none;" d="M795 595L795 596L798 596L795 595M824 595L825 596L824 595z"/>
<path style="fill:#131941; stroke:none;" d="M825.667 595.333L826.333 595.667L825.667 595.333z"/>
<path style="fill:#162268; stroke:none;" d="M827.667 595.333L828.333 595.667L827.667 595.333z"/>
<path style="fill:#131941; stroke:none;" d="M1090 595L1091 596L1090 595z"/>
<path style="fill:#162268; stroke:none;" d="M1103 595L1104 596L1103 595M798.667 596.333L799.333 596.667L798.667 596.333z"/>
<path style="fill:#131941; stroke:none;" d="M800.667 596.333L801.333 596.667L800.667 596.333z"/>
<path style="fill:#16171e; stroke:none;" d="M802.667 596.333L803.333 596.667L802.667 596.333M830 596L831 597L830 596z"/>
<path style="fill:#131941; stroke:none;" d="M831.667 596.333L832.333 596.667L831.667 596.333z"/>
<path style="fill:#162268; stroke:none;" d="M833.667 596.333L834.333 596.667L833.667 596.333z"/>
<path style="fill:#131941; stroke:none;" d="M1088 596L1089 597L1088 596z"/>
<path style="fill:#162268; stroke:none;" d="M1101 596L1102 597L1101 596M804.667 597.333L805.333 597.667L804.667 597.333z"/>
<path style="fill:#131941; stroke:none;" d="M806.667 597.333L807.333 597.667L806.667 597.333z"/>
<path style="fill:#16171e; stroke:none;" d="M808.667 597.333L809.333 597.667L808.667 597.333z"/>
<path style="fill:#131941; stroke:none;" d="M837.667 597.333L838.333 597.667L837.667 597.333z"/>
<path style="fill:#162268; stroke:none;" d="M839.667 597.333L840.333 597.667L839.667 597.333z"/>
<path style="fill:#131941; stroke:none;" d="M1086 597L1087 598L1086 597z"/>
<path style="fill:#162268; stroke:none;" d="M1099 597L1100 598L1099 597M810.667 598.333L811.333 598.667L810.667 598.333z"/>
<path style="fill:#131941; stroke:none;" d="M812.667 598.333L813.333 598.667L812.667 598.333z"/>
<path style="fill:#16171e; stroke:none;" d="M814.667 598.333L815.333 598.667L814.667 598.333z"/>
<path style="fill:#131941; stroke:none;" d="M843.667 598.333L844.333 598.667L843.667 598.333z"/>
<path style="fill:#162268; stroke:none;" d="M845.667 598.333L846.333 598.667L845.667 598.333z"/>
<path style="fill:#131941; stroke:none;" d="M1084 598L1085 599L1084 598z"/>
<path style="fill:#162268; stroke:none;" d="M1097 598L1098 599L1097 598M816.667 599.333L817.333 599.667L816.667 599.333z"/>
<path style="fill:#131941; stroke:none;" d="M818.667 599.333L819.333 599.667L818.667 599.333z"/>
<path style="fill:#16171e; stroke:none;" d="M820.667 599.333L821.333 599.667L820.667 599.333M849 599L850 600L849 599z"/>
<path style="fill:#131941; stroke:none;" d="M850 599L851 600L850 599z"/>
<path style="fill:#162268; stroke:none;" d="M851.667 599.333L852.333 599.667L851.667 599.333M1082 599L1083 600L1082 599M1095 599L1096 600L1095 599M823.667 600.333L824.333 600.667L823.667 600.333z"/>
<path style="fill:#131941; stroke:none;" d="M825 600L826 601L825 600z"/>
<path style="fill:#16171e; stroke:none;" d="M826.667 600.333L827.333 600.667L826.667 600.333M855 600L856 601L855 600z"/>
<path style="fill:#131941; stroke:none;" d="M856.667 600.333L857.333 600.667L856.667 600.333z"/>
<path style="fill:#162268; stroke:none;" d="M858.667 600.333L859.333 600.667L858.667 600.333M1080 600L1081 601L1080 600M1093 600L1094 601L1093 600M829.667 601.333L830.333 601.667L829.667 601.333z"/>
<path style="fill:#131941; stroke:none;" d="M831 601L832 602L831 601z"/>
<path style="fill:#16171e; stroke:none;" d="M832 601L832 602L835 602L832 601M861 601L862 602L861 601z"/>
<path style="fill:#131941; stroke:none;" d="M862.667 601.333L863.333 601.667L862.667 601.333z"/>
<path style="fill:#162268; stroke:none;" d="M864.667 601.333L865.333 601.667L864.667 601.333M1078 601L1079 602L1078 601M1091 601L1092 602L1091 601M835.667 602.333L836.333 602.667L835.667 602.333z"/>
<path style="fill:#131941; stroke:none;" d="M837.667 602.333L838.333 602.667L837.667 602.333z"/>
<path style="fill:#16171e; stroke:none;" d="M839.667 602.333L840.333 602.667L839.667 602.333z"/>
<path style="fill:#131941; stroke:none;" d="M868.667 602.333L869.333 602.667L868.667 602.333z"/>
<path style="fill:#162268; stroke:none;" d="M870.667 602.333L871.333 602.667L870.667 602.333M1076 602L1077 603L1076 602M1089 602L1090 603L1089 602M841.667 603.333L842.333 603.667L841.667 603.333z"/>
<path style="fill:#131941; stroke:none;" d="M843.667 603.333L844.333 603.667L843.667 603.333z"/>
<path style="fill:#16171e; stroke:none;" d="M845.667 603.333L846.333 603.667L845.667 603.333z"/>
<path style="fill:#131941; stroke:none;" d="M874.667 603.333L875.333 603.667L874.667 603.333z"/>
<path style="fill:#162268; stroke:none;" d="M876.667 603.333L877.333 603.667L876.667 603.333M1074 603L1075 604L1074 603M1087 603L1088 604L1087 603M847.667 604.333L848.333 604.667L847.667 604.333z"/>
<path style="fill:#131941; stroke:none;" d="M849.667 604.333L850.333 604.667L849.667 604.333z"/>
<path style="fill:#16171e; stroke:none;" d="M851.667 604.333L852.333 604.667L851.667 604.333z"/>
<path style="fill:#131941; stroke:none;" d="M880.667 604.333L881.333 604.667L880.667 604.333z"/>
<path style="fill:#162268; stroke:none;" d="M882.667 604.333L883.333 604.667L882.667 604.333M1072 604L1073 605L1072 604M1085 604L1086 605L1085 604M853 605L853 606L856 606L853 605z"/>
<path style="fill:#131941; stroke:none;" d="M856 605L857 606L856 605z"/>
<path style="fill:#16171e; stroke:none;" d="M857.667 605.333L858.333 605.667L857.667 605.333M886 605L887 606L886 605z"/>
<path style="fill:#131941; stroke:none;" d="M887 605L888 606L887 605z"/>
<path style="fill:#162268; stroke:none;" d="M888.667 605.333L889.333 605.667L888.667 605.333M1070 605L1071 606L1070 605M1083 605L1084 606L1083 605M860.667 606.333L861.333 606.667L860.667 606.333z"/>
<path style="fill:#131941; stroke:none;" d="M862 606L863 607L862 606z"/>
<path style="fill:#16171e; stroke:none;" d="M863 606L863 607L866 607L863 606M892 606L893 607L892 606z"/>
<path style="fill:#131941; stroke:none;" d="M893.667 606.333L894.333 606.667L893.667 606.333z"/>
<path style="fill:#162268; stroke:none;" d="M895.667 606.333L896.333 606.667L895.667 606.333M1068 606L1069 607L1068 606M1081 606L1082 607L1081 606M866.667 607.333L867.333 607.667L866.667 607.333z"/>
<path style="fill:#131941; stroke:none;" d="M868 607L869 608L868 607z"/>
<path style="fill:#16171e; stroke:none;" d="M869 607L869 608L872 608L869 607z"/>
<path style="fill:#131941; stroke:none;" d="M899.667 607.333L900.333 607.667L899.667 607.333z"/>
<path style="fill:#162268; stroke:none;" d="M901.667 607.333L902.333 607.667L901.667 607.333M1066 607L1067 608L1066 607M1079 607L1080 608L1079 607M872.667 608.333L873.333 608.667L872.667 608.333z"/>
<path style="fill:#131941; stroke:none;" d="M874 608L875 609L874 608z"/>
<path style="fill:#16171e; stroke:none;" d="M875 608L875 609L878 609L875 608z"/>
<path style="fill:#131941; stroke:none;" d="M905.667 608.333L906.333 608.667L905.667 608.333z"/>
<path style="fill:#162268; stroke:none;" d="M907.667 608.333L908.333 608.667L907.667 608.333M1064 608L1065 609L1064 608M1077 608L1078 609L1077 608M878.667 609.333L879.333 609.667L878.667 609.333z"/>
<path style="fill:#131941; stroke:none;" d="M880.667 609.333L881.333 609.667L880.667 609.333z"/>
<path style="fill:#16171e; stroke:none;" d="M882.667 609.333L883.333 609.667L882.667 609.333z"/>
<path style="fill:#131941; stroke:none;" d="M911.667 609.333L912.333 609.667L911.667 609.333z"/>
<path style="fill:#162268; stroke:none;" d="M913.667 609.333L914.333 609.667L913.667 609.333M1062 609L1063 610L1062 609M1075 609L1076 610L1075 609M884.667 610.333L885.333 610.667L884.667 610.333z"/>
<path style="fill:#131941; stroke:none;" d="M886.667 610.333L887.333 610.667L886.667 610.333z"/>
<path style="fill:#16171e; stroke:none;" d="M888.667 610.333L889.333 610.667L888.667 610.333M917 610L918 611L917 610z"/>
<path style="fill:#131941; stroke:none;" d="M918 610L919 611L918 610z"/>
<path style="fill:#162268; stroke:none;" d="M919.667 610.333L920.333 610.667L919.667 610.333M1060 610L1061 611L1060 610M1073 610L1074 611L1073 610M890 611L890 612L893 612L890 611z"/>
<path style="fill:#131941; stroke:none;" d="M893 611L894 612L893 611z"/>
<path style="fill:#16171e; stroke:none;" d="M894 611L894 612L897 612L894 611M923 611L924 612L923 611z"/>
<path style="fill:#131941; stroke:none;" d="M924 611L925 612L924 611z"/>
<path style="fill:#162268; stroke:none;" d="M925.667 611.333L926.333 611.667L925.667 611.333M1058 611L1059 612L1058 611M1071 611L1072 612L1071 611M896 612L896 613L899 613L896 612z"/>
<path style="fill:#131941; stroke:none;" d="M899 612L900 613L899 612z"/>
<path style="fill:#16171e; stroke:none;" d="M900 612L900 613L903 613L900 612M929 612L930 613L929 612z"/>
<path style="fill:#131941; stroke:none;" d="M930.667 612.333L931.333 612.667L930.667 612.333z"/>
<path style="fill:#162268; stroke:none;" d="M932.667 612.333L933.333 612.667L932.667 612.333M1056 612L1057 613L1056 612M1069 612L1070 613L1069 612M903.667 613.333L904.333 613.667L903.667 613.333z"/>
<path style="fill:#131941; stroke:none;" d="M905 613L906 614L905 613z"/>
<path style="fill:#16171e; stroke:none;" d="M906 613L906 614L909 614L906 613z"/>
<path style="fill:#131941; stroke:none;" d="M936.667 613.333L937.333 613.667L936.667 613.333z"/>
<path style="fill:#162268; stroke:none;" d="M938.667 613.333L939.333 613.667L938.667 613.333M1054 613L1055 614L1054 613M1067 613L1068 614L1067 613M909.667 614.333L910.333 614.667L909.667 614.333z"/>
<path style="fill:#131941; stroke:none;" d="M911 614L912 615L911 614z"/>
<path style="fill:#16171e; stroke:none;" d="M912 614L912 615L915 615L912 614z"/>
<path style="fill:#131941; stroke:none;" d="M942.667 614.333L943.333 614.667L942.667 614.333z"/>
<path style="fill:#162268; stroke:none;" d="M944.667 614.333L945.333 614.667L944.667 614.333M1052 614L1053 615L1052 614M1065 614L1066 615L1065 614M915.667 615.333L916.333 615.667L915.667 615.333z"/>
<path style="fill:#131941; stroke:none;" d="M917 615L918 616L917 615z"/>
<path style="fill:#16171e; stroke:none;" d="M918 615L918 616L921 616L918 615z"/>
<path style="fill:#131941; stroke:none;" d="M948.667 615.333L949.333 615.667L948.667 615.333z"/>
<path style="fill:#162268; stroke:none;" d="M950.667 615.333L951.333 615.667L950.667 615.333M1050 615L1051 616L1050 615z"/>
<path style="fill:#16171e; stroke:none;" d="M1051 615L1052 616L1051 615z"/>
<path style="fill:#162268; stroke:none;" d="M1063 615L1064 616L1063 615z"/>
<path style="fill:#131941; stroke:none;" d="M705 616L705 628L706 628L705 616z"/>
<path style="fill:#162268; stroke:none;" d="M921.667 616.333L922.333 616.667L921.667 616.333z"/>
<path style="fill:#131941; stroke:none;" d="M923 616L924 617L923 616z"/>
<path style="fill:#16171e; stroke:none;" d="M924 616L924 617L928 617L924 616M954 616L955 617L954 616z"/>
<path style="fill:#131941; stroke:none;" d="M955 616L956 617L955 616z"/>
<path style="fill:#162268; stroke:none;" d="M956.667 616.333L957.333 616.667L956.667 616.333M1048 616L1049 617L1048 616z"/>
<path style="fill:#16171e; stroke:none;" d="M1049 616L1050 617L1049 616z"/>
<path style="fill:#162268; stroke:none;" d="M1061 616L1062 617L1061 616M927.667 617.333L928.333 617.667L927.667 617.333z"/>
<path style="fill:#131941; stroke:none;" d="M929 617L930 618L929 617z"/>
<path style="fill:#16171e; stroke:none;" d="M930 617L930 618L934 618L930 617M960 617L961 618L960 617z"/>
<path style="fill:#131941; stroke:none;" d="M961 617L962 618L961 617z"/>
<path style="fill:#162268; stroke:none;" d="M962.667 617.333L963.333 617.667L962.667 617.333M1046 617L1047 618L1046 617z"/>
<path style="fill:#16171e; stroke:none;" d="M1047 617L1048 618L1047 617z"/>
<path style="fill:#162268; stroke:none;" d="M1059 617L1060 618L1059 617M933.667 618.333L934.333 618.667L933.667 618.333z"/>
<path style="fill:#131941; stroke:none;" d="M935 618L936 619L935 618z"/>
<path style="fill:#16171e; stroke:none;" d="M936 618L936 619L940 619L936 618M966 618L967 619L966 618z"/>
<path style="fill:#131941; stroke:none;" d="M967.667 618.333L968.333 618.667L967.667 618.333z"/>
<path style="fill:#162268; stroke:none;" d="M969.667 618.333L970.333 618.667L969.667 618.333M1044 618L1045 619L1044 618z"/>
<path style="fill:#16171e; stroke:none;" d="M1045 618L1046 619L1045 618z"/>
<path style="fill:#162268; stroke:none;" d="M1057 618L1058 619L1057 618M939.667 619.333L940.333 619.667L939.667 619.333z"/>
<path style="fill:#131941; stroke:none;" d="M941 619L942 620L941 619z"/>
<path style="fill:#16171e; stroke:none;" d="M942 619L942 620L946 620L942 619z"/>
<path style="fill:#131941; stroke:none;" d="M973.667 619.333L974.333 619.667L973.667 619.333z"/>
<path style="fill:#162268; stroke:none;" d="M975.667 619.333L976.333 619.667L975.667 619.333M1042 619L1043 620L1042 619z"/>
<path style="fill:#16171e; stroke:none;" d="M1043 619L1044 620L1043 619z"/>
<path style="fill:#162268; stroke:none;" d="M1055 619L1056 620L1055 619M945.667 620.333L946.333 620.667L945.667 620.333z"/>
<path style="fill:#131941; stroke:none;" d="M947 620L948 621L947 620z"/>
<path style="fill:#16171e; stroke:none;" d="M948 620L948 621L952 621L948 620z"/>
<path style="fill:#131941; stroke:none;" d="M979.667 620.333L980.333 620.667L979.667 620.333z"/>
<path style="fill:#162268; stroke:none;" d="M981.667 620.333L982.333 620.667L981.667 620.333M1040 620L1041 621L1040 620z"/>
<path style="fill:#16171e; stroke:none;" d="M1041 620L1042 621L1041 620z"/>
<path style="fill:#162268; stroke:none;" d="M1053 620L1054 621L1053 620z"/>
<path style="fill:#16171e; stroke:none;" d="M701 621L701 658L702 658C702 647.351 705.111 630.798 701 621z"/>
<path style="fill:#162268; stroke:none;" d="M951.667 621.333L952.333 621.667L951.667 621.333z"/>
<path style="fill:#131941; stroke:none;" d="M953 621L954 622L953 621z"/>
<path style="fill:#16171e; stroke:none;" d="M954 621L954 622L959 622L954 621z"/>
<path style="fill:#131941; stroke:none;" d="M985.667 621.333L986.333 621.667L985.667 621.333z"/>
<path style="fill:#162268; stroke:none;" d="M987.667 621.333L988.333 621.667L987.667 621.333M1038 621L1039 622L1038 621z"/>
<path style="fill:#131941; stroke:none;" d="M1039 621L1040 622L1039 621z"/>
<path style="fill:#162268; stroke:none;" d="M1051 621L1052 622L1051 621M957.667 622.333L958.333 622.667L957.667 622.333z"/>
<path style="fill:#131941; stroke:none;" d="M959.667 622.333L960.333 622.667L959.667 622.333z"/>
<path style="fill:#16171e; stroke:none;" d="M961 622L961 623L965 623L961 622M991 622L992 623L991 622z"/>
<path style="fill:#131941; stroke:none;" d="M992 622L993 623L992 622z"/>
<path style="fill:#162268; stroke:none;" d="M993.667 622.333L994.333 622.667L993.667 622.333M1036 622L1037 623L1036 622z"/>
<path style="fill:#131941; stroke:none;" d="M1037 622L1038 623L1037 622z"/>
<path style="fill:#162268; stroke:none;" d="M1049 622L1050 623L1049 622M963.667 623.333L964.333 623.667L963.667 623.333z"/>
<path style="fill:#131941; stroke:none;" d="M965.667 623.333L966.333 623.667L965.667 623.333z"/>
<path style="fill:#16171e; stroke:none;" d="M967 623L967 624L971 624L967 623M997 623L998 624L997 623z"/>
<path style="fill:#131941; stroke:none;" d="M998 623L999 624L998 623z"/>
<path style="fill:#162268; stroke:none;" d="M999.667 623.333L1000.33 623.667L999.667 623.333M1034 623L1035 624L1034 623z"/>
<path style="fill:#131941; stroke:none;" d="M1035 623L1036 624L1035 623z"/>
<path style="fill:#162268; stroke:none;" d="M1047 623L1048 624L1047 623M969.667 624.333L970.333 624.667L969.667 624.333z"/>
<path style="fill:#131941; stroke:none;" d="M971 624L972 625L971 624z"/>
<path style="fill:#16171e; stroke:none;" d="M972 624L972 625L977 625L972 624M1003 624L1004 625L1003 624z"/>
<path style="fill:#131941; stroke:none;" d="M1004 624L1005 625L1004 624z"/>
<path style="fill:#162268; stroke:none;" d="M1005.67 624.333L1006.33 624.667L1005.67 624.333z"/>
<path style="fill:#131941; stroke:none;" d="M1033 624L1034 625L1033 624z"/>
<path style="fill:#162268; stroke:none;" d="M1045 624L1046 625L1045 624M975.667 625.333L976.333 625.667L975.667 625.333z"/>
<path style="fill:#131941; stroke:none;" d="M977 625L978 626L977 625z"/>
<path style="fill:#16171e; stroke:none;" d="M978 625L978 626L983 626L978 625M1009 625L1010 626L1009 625z"/>
<path style="fill:#131941; stroke:none;" d="M1010.67 625.333L1011.33 625.667L1010.67 625.333z"/>
<path style="fill:#162268; stroke:none;" d="M1012 625L1013 626L1012 625z"/>
<path style="fill:#131941; stroke:none;" d="M1031 625L1032 626L1031 625z"/>
<path style="fill:#162268; stroke:none;" d="M1043 625L1044 626L1043 625M981.667 626.333L982.333 626.667L981.667 626.333z"/>
<path style="fill:#131941; stroke:none;" d="M983 626L984 627L983 626z"/>
<path style="fill:#16171e; stroke:none;" d="M984 626L984 627C993.999 627.43 1004.13 629.932 1014 631.586C1017.37 632.151 1022.88 632.126 1024.97 635.314C1029.5 642.205 1026 660.813 1026 669L1027 642L1025.4 632.988L1013 630.13L984 626M1015 626L1016 627L1015 626z"/>
<path style="fill:#131941; stroke:none;" d="M1016.67 626.333L1017.33 626.667L1016.67 626.333z"/>
<path style="fill:#162268; stroke:none;" d="M1018.67 626.333L1019.33 626.667L1018.67 626.333z"/>
<path style="fill:#131941; stroke:none;" d="M1029 626L1030 627L1029 626z"/>
<path style="fill:#162268; stroke:none;" d="M1041 626L1042 627L1041 626M706 627L706 651L707 651L706 627M986 627L986 628L989 628L986 627z"/>
<path style="fill:#131941; stroke:none;" d="M989 627L990 628L989 627M1022.67 627.333L1023.33 627.667L1022.67 627.333z"/>
<path style="fill:#162268; stroke:none;" d="M1024 627L1024 628L1027 628L1024 627z"/>
<path style="fill:#131941; stroke:none;" d="M1027 627L1028 628L1027 627z"/>
<path style="fill:#162268; stroke:none;" d="M1039 627L1040 628L1039 627z"/>
<path style="fill:#16171e; stroke:none;" d="M705.333 628.667L705.667 629.333L705.333 628.667z"/>
<path style="fill:#162268; stroke:none;" d="M992 628L992 629L995 629L992 628z"/>
<path style="fill:#131941; stroke:none;" d="M995 628L996 629L995 628z"/>
<path style="fill:#162268; stroke:none;" d="M1037 628L1038 629L1037 628M998 629L998 630L1001 630L998 629z"/>
<path style="fill:#131941; stroke:none;" d="M1001 629L1002 630L1001 629z"/>
<path style="fill:#162268; stroke:none;" d="M1035 629L1036 630L1035 629M1004 630L1004 631L1007 631L1004 630z"/>
<path style="fill:#131941; stroke:none;" d="M1007 630L1008 631L1007 630z"/>
<path style="fill:#162268; stroke:none;" d="M1033 630L1034 631L1033 630M1010 631L1010 632L1013 632L1010 631z"/>
<path style="fill:#131941; stroke:none;" d="M1013 631L1014 632L1013 631z"/>
<path style="fill:#162268; stroke:none;" d="M1031 631L1032 632L1031 631M1015 632L1015 633L1019 633L1015 632z"/>
<path style="fill:#131941; stroke:none;" d="M1019 632L1020 633L1019 632M1030 632L1030 778L1031 778L1031 676C1031 663.532 1034.81 643.456 1030 632z"/>
<path style="fill:#162268; stroke:none;" d="M1021 633L1021 634L1024 634L1021 633z"/>
<path style="fill:#131941; stroke:none;" d="M1024 633L1025 634L1024 633z"/>
<path style="fill:#162268; stroke:none;" d="M1025.33 636.667L1025.67 637.333L1025.33 636.667M1025 639L1025 869L1026 869L1026 707L1026 661L1025 639z"/>
<path style="fill:#131941; stroke:none;" d="M706 651L706 663L707 663L706 651z"/>
<path style="fill:#16171e; stroke:none;" d="M702 661L702 699L703 699C703 688.089 706.211 671.036 702 661M706 663L706 666L707 666L706 663z"/>
<path style="fill:#162268; stroke:none;" d="M707 665L707 687L708 687L707 665z"/>
<path style="fill:#131941; stroke:none;" d="M707 687L707 701L708 701L707 687z"/>
<path style="fill:#16171e; stroke:none;" d="M703 700L706.961 869L707.996 912L709 935L710 935L705.039 770L704 723L703 700M707.333 701.667L707.667 702.333L707.333 701.667z"/>
<path style="fill:#162268; stroke:none;" d="M708 703L708 725L709 725L708 703z"/>
<path style="fill:#131941; stroke:none;" d="M708 725L708 739L709 739L708 725z"/>
<path style="fill:#16171e; stroke:none;" d="M708.333 739.667L708.667 740.333L708.333 739.667z"/>
<path style="fill:#162268; stroke:none;" d="M709 741L709 763L710 763L709 741M1226.33 744.667L1226.67 745.333L1226.33 744.667z"/>
<path style="fill:#131941; stroke:none;" d="M709 763L709 777L710 777L709 763z"/>
<path style="fill:#16171e; stroke:none;" d="M709.333 777.667L709.667 778.333L709.333 777.667z"/>
<path style="fill:#162268; stroke:none;" d="M1030 778L1030 926L1030 970L1031 994L1032 994L1031 941L1031 834L1031 796L1030 778M710 779L710 801L711 801L710 779z"/>
<path style="fill:#131941; stroke:none;" d="M710 801L710 815L711 815L710 801z"/>
<path style="fill:#16171e; stroke:none;" d="M710.333 815.667L710.667 816.333L710.333 815.667z"/>
<path style="fill:#162268; stroke:none;" d="M711 817L711 838L712 838L711 817z"/>
<path style="fill:#131941; stroke:none;" d="M711 838L711 852L712 852L711 838z"/>
<path style="fill:#16171e; stroke:none;" d="M1227 845L1227 855L1228 855L1227 845M711.333 852.667L711.667 853.333L711.333 852.667z"/>
<path style="fill:#162268; stroke:none;" d="M712 855L712 876L713 876L712 855z"/>
<path style="fill:#131941; stroke:none;" d="M1227 855L1227 870L1228 870L1227 855M1025 869L1025 993L1026 993L1026 907C1026 896.104 1029.21 879.027 1025 869z"/>
<path style="fill:#162268; stroke:none;" d="M1227 870L1226 872L1227 870z"/>
<path style="fill:#131941; stroke:none;" d="M1227 871L1228 872L1227 871z"/>
<path style="fill:#162268; stroke:none;" d="M1224 872L1225 873L1224 872z"/>
<path style="fill:#16171e; stroke:none;" d="M1225 872L1226 873L1225 872z"/>
<path style="fill:#131941; stroke:none;" d="M1223 873L1224 874L1223 873z"/>
<path style="fill:#162268; stroke:none;" d="M1221 874L1222 875L1221 874z"/>
<path style="fill:#16171e; stroke:none;" d="M1230 874L1190 899L1190 900L1221 881.676L1230 874z"/>
<path style="fill:#162268; stroke:none;" d="M1219 875L1220 876L1219 875z"/>
<path style="fill:#16171e; stroke:none;" d="M1220 875L1221 876L1220 875z"/>
<path style="fill:#131941; stroke:none;" d="M712 876L712 890L713 890L712 876M1218 876L1219 877L1218 876z"/>
<path style="fill:#162268; stroke:none;" d="M1216 877L1217 878L1216 877z"/>
<path style="fill:#131941; stroke:none;" d="M1215 878L1216 879L1215 878z"/>
<path style="fill:#162268; stroke:none;" d="M1213 879L1214 880L1213 879M1211 880L1212 881L1211 880z"/>
<path style="fill:#16171e; stroke:none;" d="M1212 880L1213 881L1212 880z"/>
<path style="fill:#131941; stroke:none;" d="M1210 881L1211 882L1210 881z"/>
<path style="fill:#162268; stroke:none;" d="M1208 882L1209 883L1208 882M1206 883L1207 884L1206 883z"/>
<path style="fill:#131941; stroke:none;" d="M1207 883L1208 884L1207 883z"/>
<path style="fill:#162268; stroke:none;" d="M1205 884L1206 885L1205 884M1203 885L1204 886L1203 885z"/>
<path style="fill:#16171e; stroke:none;" d="M1204 885L1205 886L1204 885z"/>
<path style="fill:#131941; stroke:none;" d="M1202 886L1203 887L1202 886z"/>
<path style="fill:#162268; stroke:none;" d="M1200 887L1201 888L1200 887M1198 888L1199 889L1198 888z"/>
<path style="fill:#131941; stroke:none;" d="M1199 888L1200 889L1199 888z"/>
<path style="fill:#162268; stroke:none;" d="M1197 889L1198 890L1197 889z"/>
<path style="fill:#16171e; stroke:none;" d="M712 890L712 893L713 893L712 890z"/>
<path style="fill:#162268; stroke:none;" d="M1195 890L1196 891L1195 890z"/>
<path style="fill:#16171e; stroke:none;" d="M1196 890L1197 891L1196 890z"/>
<path style="fill:#131941; stroke:none;" d="M1194 891L1195 892L1194 891z"/>
<path style="fill:#162268; stroke:none;" d="M1192 892L1193 893L1192 892M713 893L713 918L714 918L713 893M1190 893L1191 894L1190 893z"/>
<path style="fill:#131941; stroke:none;" d="M1191 893L1192 894L1191 893z"/>
<path style="fill:#162268; stroke:none;" d="M1189 894L1190 895L1189 894M1187 895L1188 896L1187 895z"/>
<path style="fill:#16171e; stroke:none;" d="M1188 895L1189 896L1188 895z"/>
<path style="fill:#131941; stroke:none;" d="M1186 896L1187 897L1186 896z"/>
<path style="fill:#162268; stroke:none;" d="M1184 897L1185 898L1184 897M1182 898L1183 899L1182 898z"/>
<path style="fill:#131941; stroke:none;" d="M1183 898L1184 899L1183 898M1181 899L1182 900L1181 899z"/>
<path style="fill:#162268; stroke:none;" d="M1179 900L1180 901L1179 900z"/>
<path style="fill:#16171e; stroke:none;" d="M1180 900L1181 901L1180 900M1188 900L1187 902L1188 900z"/>
<path style="fill:#131941; stroke:none;" d="M1178 901L1179 902L1178 901z"/>
<path style="fill:#162268; stroke:none;" d="M1176 902L1177 903L1176 902z"/>
<path style="fill:#16171e; stroke:none;" d="M1185 902L1182 904L1182 905L1186 903L1185 902z"/>
<path style="fill:#162268; stroke:none;" d="M1174 903L1175 904L1174 903z"/>
<path style="fill:#131941; stroke:none;" d="M1175 903L1176 904L1175 903z"/>
<path style="fill:#162268; stroke:none;" d="M1173 904L1174 905L1173 904M1171 905L1172 906L1171 905z"/>
<path style="fill:#16171e; stroke:none;" d="M1172 905L1173 906L1172 905M1180 905L1179 907L1180 905z"/>
<path style="fill:#131941; stroke:none;" d="M1170 906L1171 907L1170 906z"/>
<path style="fill:#162268; stroke:none;" d="M1168 907L1169 908L1168 907z"/>
<path style="fill:#16171e; stroke:none;" d="M1177 907L1178 908L1177 907z"/>
<path style="fill:#162268; stroke:none;" d="M1166 908L1167 909L1166 908z"/>
<path style="fill:#131941; stroke:none;" d="M1167 908L1168 909L1167 908z"/>
<path style="fill:#162268; stroke:none;" d="M1165 909L1166 910L1165 909z"/>
<path style="fill:#16171e; stroke:none;" d="M1174 909L1175 910L1174 909z"/>
<path style="fill:#162268; stroke:none;" d="M1163 910L1164 911L1163 910z"/>
<path style="fill:#16171e; stroke:none;" d="M1164 910L1165 911L1164 910M1172 910L1171 912L1172 910z"/>
<path style="fill:#131941; stroke:none;" d="M1162 911L1163 912L1162 911z"/>
<path style="fill:#162268; stroke:none;" d="M1160 912L1161 913L1160 912z"/>
<path style="fill:#16171e; stroke:none;" d="M1169 912L1170 913L1169 912z"/>
<path style="fill:#131941; stroke:none;" d="M1159 913L1160 914L1159 913z"/>
<path style="fill:#162268; stroke:none;" d="M1157 914L1158 915L1157 914z"/>
<path style="fill:#16171e; stroke:none;" d="M1166 914L1167 915L1166 914z"/>
<path style="fill:#162268; stroke:none;" d="M1155 915L1156 916L1155 915z"/>
<path style="fill:#131941; stroke:none;" d="M1156 915L1157 916L1156 915z"/>
<path style="fill:#16171e; stroke:none;" d="M1164 915L1165 916L1164 915z"/>
<path style="fill:#131941; stroke:none;" d="M1154 916L1155 917L1154 916z"/>
<path style="fill:#162268; stroke:none;" d="M1152 917L1153 918L1152 917z"/>
<path style="fill:#16171e; stroke:none;" d="M1153 917L1154 918L1153 917z"/>
<path style="fill:#131941; stroke:none;" d="M713 918L714 933L715 933L713 918M1151 918L1152 919L1151 918z"/>
<path style="fill:#162268; stroke:none;" d="M1149 919L1150 920L1149 919M1147 920L1148 921L1147 920z"/>
<path style="fill:#131941; stroke:none;" d="M1148 920L1149 921L1148 920M1146 921L1147 922L1146 921z"/>
<path style="fill:#162268; stroke:none;" d="M1144 922L1145 923L1144 922z"/>
<path style="fill:#16171e; stroke:none;" d="M1145 922L1146 923L1145 922z"/>
<path style="fill:#131941; stroke:none;" d="M1143 923L1144 924L1143 923z"/>
<path style="fill:#162268; stroke:none;" d="M1141 924L1142 925L1141 924M1139 925L1140 926L1139 925z"/>
<path style="fill:#131941; stroke:none;" d="M1140 925L1141 926L1140 925M1138 926L1139 927L1138 926z"/>
<path style="fill:#162268; stroke:none;" d="M1136 927L1137 928L1136 927z"/>
<path style="fill:#16171e; stroke:none;" d="M1137 927L1138 928L1137 927z"/>
<path style="fill:#131941; stroke:none;" d="M1135 928L1136 929L1135 928z"/>
<path style="fill:#162268; stroke:none;" d="M1133 929L1134 930L1133 929M1131 930L1132 931L1131 930z"/>
<path style="fill:#131941; stroke:none;" d="M1132 930L1133 931L1132 930M1130 931L1131 932L1130 931z"/>
<path style="fill:#16171e; stroke:none;" d="M713 932L714 933L713 932z"/>
<path style="fill:#162268; stroke:none;" d="M715 932L715 933L718 933L715 932M1128 932L1129 933L1128 932z"/>
<path style="fill:#16171e; stroke:none;" d="M1129 932L1130 933L1129 932M717.667 933.333L718.333 933.667L717.667 933.333z"/>
<path style="fill:#131941; stroke:none;" d="M719 933L720 934L719 933z"/>
<path style="fill:#162268; stroke:none;" d="M720 933L720 934L723 934L720 933z"/>
<path style="fill:#131941; stroke:none;" d="M1127 933L1128 934L1127 933z"/>
<path style="fill:#16171e; stroke:none;" d="M723 934L724 935L723 934z"/>
<path style="fill:#131941; stroke:none;" d="M724.667 934.333L725.333 934.667L724.667 934.333z"/>
<path style="fill:#162268; stroke:none;" d="M726.667 934.333L727.333 934.667L726.667 934.333M1125 934L1126 935L1125 934z"/>
<path style="fill:#16171e; stroke:none;" d="M728 935L729 936L728 935z"/>
<path style="fill:#131941; stroke:none;" d="M729.667 935.333L730.333 935.667L729.667 935.333z"/>
<path style="fill:#162268; stroke:none;" d="M731 935L731 936L734 936L731 935M1123 935L1124 936L1123 935z"/>
<path style="fill:#131941; stroke:none;" d="M1124 935L1125 936L1124 935z"/>
<path style="fill:#16171e; stroke:none;" d="M733.667 936.333L734.333 936.667L733.667 936.333z"/>
<path style="fill:#131941; stroke:none;" d="M735 936L736 937L735 936z"/>
<path style="fill:#162268; stroke:none;" d="M736 936L736 937L739 937L736 936z"/>
<path style="fill:#131941; stroke:none;" d="M1122 936L1123 937L1122 936z"/>
<path style="fill:#16171e; stroke:none;" d="M738.667 937.333L739.333 937.667L738.667 937.333z"/>
<path style="fill:#131941; stroke:none;" d="M740 937L741 938L740 937z"/>
<path style="fill:#162268; stroke:none;" d="M741 937L741 938L744 938L741 937M1120 937L1121 938L1120 937z"/>
<path style="fill:#16171e; stroke:none;" d="M1121 937L1122 938L1121 937M744 938L745 939L744 938z"/>
<path style="fill:#131941; stroke:none;" d="M745 938L746 939L745 938z"/>
<path style="fill:#162268; stroke:none;" d="M746 938L746 939L749 939L746 938z"/>
<path style="fill:#131941; stroke:none;" d="M1119 938L1120 939L1119 938z"/>
<path style="fill:#16171e; stroke:none;" d="M749 939L750 940L749 939z"/>
<path style="fill:#131941; stroke:none;" d="M750 939L751 940L750 939z"/>
<path style="fill:#162268; stroke:none;" d="M751 939L751 940L754 940L751 939M1117 939L1118 940L1117 939z"/>
<path style="fill:#16171e; stroke:none;" d="M754 940L755 941L754 940z"/>
<path style="fill:#131941; stroke:none;" d="M755 940L756 941L755 940z"/>
<path style="fill:#162268; stroke:none;" d="M756 940L756 941L759 941L756 940M1115 940L1116 941L1115 940z"/>
<path style="fill:#131941; stroke:none;" d="M1116 940L1117 941L1116 940z"/>
<path style="fill:#16171e; stroke:none;" d="M759 941L760 942L759 941z"/>
<path style="fill:#131941; stroke:none;" d="M760 941L761 942L760 941z"/>
<path style="fill:#162268; stroke:none;" d="M761 941L761 942L764 942L761 941M1114 941L1115 942L1114 941z"/>
<path style="fill:#16171e; stroke:none;" d="M764 942L765 943L764 942z"/>
<path style="fill:#131941; stroke:none;" d="M765 942L766 943L765 942z"/>
<path style="fill:#162268; stroke:none;" d="M766 942L766 943L770 943L766 942M1112 942L1113 943L1112 942z"/>
<path style="fill:#16171e; stroke:none;" d="M1113 942L1114 943L1113 942M769 943L770 944L769 943z"/>
<path style="fill:#131941; stroke:none;" d="M770 943L771 944L770 943z"/>
<path style="fill:#162268; stroke:none;" d="M771 943L771 944L775 944L771 943z"/>
<path style="fill:#131941; stroke:none;" d="M1111 943L1112 944L1111 943z"/>
<path style="fill:#16171e; stroke:none;" d="M774 944L775 945L774 944z"/>
<path style="fill:#131941; stroke:none;" d="M775.667 944.333L776.333 944.667L775.667 944.333z"/>
<path style="fill:#162268; stroke:none;" d="M777 944L777 945L780 945L777 944M1109 944L1110 945L1109 944z"/>
<path style="fill:#131941; stroke:none;" d="M780.667 945.333L781.333 945.667L780.667 945.333z"/>
<path style="fill:#162268; stroke:none;" d="M782 945L782 946L785 946L782 945M1107 945L1108 946L1107 945z"/>
<path style="fill:#131941; stroke:none;" d="M1108 945L1109 946L1108 945M785.667 946.333L786.333 946.667L785.667 946.333z"/>
<path style="fill:#162268; stroke:none;" d="M787 946L787 947L790 947L787 946M1106 946L1107 947L1106 946z"/>
<path style="fill:#131941; stroke:none;" d="M790.667 947.333L791.333 947.667L790.667 947.333z"/>
<path style="fill:#162268; stroke:none;" d="M792 947L792 948L795 948L792 947M1104 947L1105 948L1104 947z"/>
<path style="fill:#16171e; stroke:none;" d="M1105 947L1106 948L1105 947z"/>
<path style="fill:#131941; stroke:none;" d="M795.667 948.333L796.333 948.667L795.667 948.333z"/>
<path style="fill:#162268; stroke:none;" d="M797 948L797 949L800 949L797 948z"/>
<path style="fill:#131941; stroke:none;" d="M1103 948L1104 949L1103 948M800.667 949.333L801.333 949.667L800.667 949.333z"/>
<path style="fill:#162268; stroke:none;" d="M802 949L802 950L805 950L802 949M1101 949L1102 950L1101 949z"/>
<path style="fill:#16171e; stroke:none;" d="M805 950L806 951L805 950z"/>
<path style="fill:#131941; stroke:none;" d="M806 950L807 951L806 950z"/>
<path style="fill:#162268; stroke:none;" d="M807 950L807 951L811 951L807 950z"/>
<path style="fill:#131941; stroke:none;" d="M1100 950L1101 951L1100 950z"/>
<path style="fill:#16171e; stroke:none;" d="M810 951L811 952L810 951z"/>
<path style="fill:#131941; stroke:none;" d="M811 951L812 952L811 951z"/>
<path style="fill:#162268; stroke:none;" d="M812 951L812 952L816 952L812 951M1098 951L1099 952L1098 951z"/>
<path style="fill:#16171e; stroke:none;" d="M815 952L816 953L815 952z"/>
<path style="fill:#131941; stroke:none;" d="M816.667 952.333L817.333 952.667L816.667 952.333z"/>
<path style="fill:#162268; stroke:none;" d="M818 952L818 953L821 953L818 952M1096 952L1097 953L1096 952z"/>
<path style="fill:#131941; stroke:none;" d="M1097 952L1098 953L1097 952M821.667 953.333L822.333 953.667L821.667 953.333z"/>
<path style="fill:#162268; stroke:none;" d="M823 953L823 954L826 954L823 953z"/>
<path style="fill:#131941; stroke:none;" d="M1095 953L1096 954L1095 953M826.667 954.333L827.333 954.667L826.667 954.333z"/>
<path style="fill:#162268; stroke:none;" d="M828 954L828 955L831 955L828 954M1093 954L1094 955L1093 954z"/>
<path style="fill:#16171e; stroke:none;" d="M1094 954L1095 955L1094 954z"/>
<path style="fill:#131941; stroke:none;" d="M831.667 955.333L832.333 955.667L831.667 955.333z"/>
<path style="fill:#162268; stroke:none;" d="M833 955L833 956L836 956L833 955z"/>
<path style="fill:#131941; stroke:none;" d="M1092 955L1093 956L1092 955M836.667 956.333L837.333 956.667L836.667 956.333z"/>
<path style="fill:#162268; stroke:none;" d="M838 956L838 957L841 957L838 956M1090 956L1091 957L1090 956z"/>
<path style="fill:#16171e; stroke:none;" d="M841 957L842 958L841 957z"/>
<path style="fill:#131941; stroke:none;" d="M842 957L843 958L842 957z"/>
<path style="fill:#162268; stroke:none;" d="M843 957L843 958L846 958L843 957M1088 957L1089 958L1088 957z"/>
<path style="fill:#131941; stroke:none;" d="M1089 957L1090 958L1089 957z"/>
<path style="fill:#16171e; stroke:none;" d="M846 958L847 959L846 958z"/>
<path style="fill:#131941; stroke:none;" d="M847.667 958.333L848.333 958.667L847.667 958.333z"/>
<path style="fill:#162268; stroke:none;" d="M849 958L849 959L852 959L849 958z"/>
<path style="fill:#131941; stroke:none;" d="M1087 958L1088 959L1087 958z"/>
<path style="fill:#16171e; stroke:none;" d="M851 959L852 960L851 959z"/>
<path style="fill:#131941; stroke:none;" d="M852.667 959.333L853.333 959.667L852.667 959.333z"/>
<path style="fill:#162268; stroke:none;" d="M854 959L854 960L857 960L854 959M1085 959L1086 960L1085 959z"/>
<path style="fill:#16171e; stroke:none;" d="M1086 959L1087 960L1086 959z"/>
<path style="fill:#131941; stroke:none;" d="M857.667 960.333L858.333 960.667L857.667 960.333z"/>
<path style="fill:#162268; stroke:none;" d="M859 960L859 961L862 961L859 960z"/>
<path style="fill:#131941; stroke:none;" d="M1084 960L1085 961L1084 960M862.667 961.333L863.333 961.667L862.667 961.333z"/>
<path style="fill:#162268; stroke:none;" d="M864 961L864 962L867 962L864 961M1082 961L1083 962L1082 961z"/>
<path style="fill:#131941; stroke:none;" d="M867.667 962.333L868.333 962.667L867.667 962.333z"/>
<path style="fill:#162268; stroke:none;" d="M869 962L869 963L872 963L869 962M1080 962L1081 963L1080 962z"/>
<path style="fill:#131941; stroke:none;" d="M1081 962L1082 963L1081 962M872.667 963.333L873.333 963.667L872.667 963.333z"/>
<path style="fill:#162268; stroke:none;" d="M874 963L874 964L877 964L874 963z"/>
<path style="fill:#131941; stroke:none;" d="M1079 963L1080 964L1079 963M877.667 964.333L878.333 964.667L877.667 964.333z"/>
<path style="fill:#162268; stroke:none;" d="M879 964L879 965L882 965L879 964M1077 964L1078 965L1077 964z"/>
<path style="fill:#16171e; stroke:none;" d="M1078 964L1079 965L1078 964M882 965L883 966L882 965z"/>
<path style="fill:#131941; stroke:none;" d="M883 965L884 966L883 965z"/>
<path style="fill:#162268; stroke:none;" d="M884 965L884 966L887 966L884 965z"/>
<path style="fill:#131941; stroke:none;" d="M1076 965L1077 966L1076 965z"/>
<path style="fill:#16171e; stroke:none;" d="M887 966L888 967L887 966z"/>
<path style="fill:#131941; stroke:none;" d="M888.667 966.333L889.333 966.667L888.667 966.333z"/>
<path style="fill:#162268; stroke:none;" d="M890 966L890 967L893 967L890 966M1074 966L1075 967L1074 966z"/>
<path style="fill:#16171e; stroke:none;" d="M892 967L893 968L892 967z"/>
<path style="fill:#131941; stroke:none;" d="M893.667 967.333L894.333 967.667L893.667 967.333z"/>
<path style="fill:#162268; stroke:none;" d="M895 967L895 968L898 968L895 967M1072 967L1073 968L1072 967z"/>
<path style="fill:#131941; stroke:none;" d="M1073 967L1074 968L1073 967z"/>
<path style="fill:#16171e; stroke:none;" d="M897 968L898 969L897 968z"/>
<path style="fill:#131941; stroke:none;" d="M898.667 968.333L899.333 968.667L898.667 968.333z"/>
<path style="fill:#162268; stroke:none;" d="M900 968L900 969L903 969L900 968M1071 968L1072 969L1071 968z"/>
<path style="fill:#16171e; stroke:none;" d="M880.667 969.333L881.333 969.667L880.667 969.333z"/>
<path style="fill:#131941; stroke:none;" d="M903.667 969.333L904.333 969.667L903.667 969.333z"/>
<path style="fill:#162268; stroke:none;" d="M905 969L905 970L908 970L905 969M1069 969L1070 970L1069 969z"/>
<path style="fill:#16171e; stroke:none;" d="M1070 969L1071 970L1070 969M884 970L884 971L887 971L884 970z"/>
<path style="fill:#131941; stroke:none;" d="M908.667 970.333L909.333 970.667L908.667 970.333z"/>
<path style="fill:#162268; stroke:none;" d="M910 970L910 971L913 971L910 970z"/>
<path style="fill:#131941; stroke:none;" d="M1068 970L1069 971L1068 970z"/>
<path style="fill:#16171e; stroke:none;" d="M889 971L889 972L892 972L889 971z"/>
<path style="fill:#131941; stroke:none;" d="M913.667 971.333L914.333 971.667L913.667 971.333z"/>
<path style="fill:#162268; stroke:none;" d="M915 971L915 972L918 972L915 971M1066 971L1067 972L1066 971z"/>
<path style="fill:#16171e; stroke:none;" d="M894 972L894 973L897 973L894 972z"/>
<path style="fill:#131941; stroke:none;" d="M918.667 972.333L919.333 972.667L918.667 972.333z"/>
<path style="fill:#162268; stroke:none;" d="M920 972L920 973L923 973L920 972M1064 972L1065 973L1064 972z"/>
<path style="fill:#131941; stroke:none;" d="M1065 972L1066 973L1065 972z"/>
<path style="fill:#16171e; stroke:none;" d="M899 973L899 974L902 974L899 973M923 973L924 974L923 973z"/>
<path style="fill:#131941; stroke:none;" d="M924 973L925 974L924 973z"/>
<path style="fill:#162268; stroke:none;" d="M925 973L925 974L928 974L925 973M1063 973L1064 974L1063 973z"/>
<path style="fill:#16171e; stroke:none;" d="M904 974L904 975L995 993.4L1030 1000C1022.06 993.088 1002.34 992.677 992 990.919C962.905 985.971 933.402 976.34 904 974M928 974L929 975L928 974z"/>
<path style="fill:#131941; stroke:none;" d="M929.667 974.333L930.333 974.667L929.667 974.333z"/>
<path style="fill:#162268; stroke:none;" d="M931.667 974.333L932.333 974.667L931.667 974.333M1061 974L1062 975L1061 974z"/>
<path style="fill:#16171e; stroke:none;" d="M1062 974L1063 975L1062 974M933 975L934 976L933 975z"/>
<path style="fill:#131941; stroke:none;" d="M934.667 975.333L935.333 975.667L934.667 975.333z"/>
<path style="fill:#162268; stroke:none;" d="M936 975L936 976L939 976L936 975z"/>
<path style="fill:#131941; stroke:none;" d="M1060 975L1061 976L1060 975z"/>
<path style="fill:#16171e; stroke:none;" d="M938 976L939 977L938 976z"/>
<path style="fill:#131941; stroke:none;" d="M939.667 976.333L940.333 976.667L939.667 976.333z"/>
<path style="fill:#162268; stroke:none;" d="M941 976L941 977L944 977L941 976M1058 976L1059 977L1058 976z"/>
<path style="fill:#131941; stroke:none;" d="M944.667 977.333L945.333 977.667L944.667 977.333z"/>
<path style="fill:#162268; stroke:none;" d="M946 977L946 978L949 978L946 977z"/>
<path style="fill:#131941; stroke:none;" d="M1057 977L1058 978L1057 977M949.667 978.333L950.333 978.667L949.667 978.333z"/>
<path style="fill:#162268; stroke:none;" d="M951 978L951 979L954 979L951 978M1055 978L1056 979L1055 978z"/>
<path style="fill:#131941; stroke:none;" d="M954.667 979.333L955.333 979.667L954.667 979.333z"/>
<path style="fill:#162268; stroke:none;" d="M956 979L956 980L959 980L956 979M1053 979L1054 980L1053 979z"/>
<path style="fill:#16171e; stroke:none;" d="M1054 979L1055 980L1054 979z"/>
<path style="fill:#131941; stroke:none;" d="M959.667 980.333L960.333 980.667L959.667 980.333z"/>
<path style="fill:#162268; stroke:none;" d="M961 980L961 981L964 981L961 980z"/>
<path style="fill:#131941; stroke:none;" d="M1052 980L1053 981L1052 980M964.667 981.333L965.333 981.667L964.667 981.333z"/>
<path style="fill:#162268; stroke:none;" d="M966 981L966 982L969 982L966 981M1050 981L1051 982L1050 981z"/>
<path style="fill:#16171e; stroke:none;" d="M1051 981L1052 982L1051 981M969 982L970 983L969 982z"/>
<path style="fill:#131941; stroke:none;" d="M970 982L971 983L970 982z"/>
<path style="fill:#162268; stroke:none;" d="M971 982L971 983L974 983L971 982z"/>
<path style="fill:#131941; stroke:none;" d="M1049 982L1050 983L1049 982z"/>
<path style="fill:#16171e; stroke:none;" d="M974 983L975 984L974 983z"/>
<path style="fill:#131941; stroke:none;" d="M975.667 983.333L976.333 983.667L975.667 983.333z"/>
<path style="fill:#162268; stroke:none;" d="M977 983L977 984L980 984L977 983M1047 983L1048 984L1047 983z"/>
<path style="fill:#16171e; stroke:none;" d="M979 984L980 985L979 984z"/>
<path style="fill:#131941; stroke:none;" d="M980.667 984.333L981.333 984.667L980.667 984.333z"/>
<path style="fill:#162268; stroke:none;" d="M982 984L982 985L985 985L982 984M1045 984L1046 985L1045 984z"/>
<path style="fill:#131941; stroke:none;" d="M1046 984L1047 985L1046 984z"/>
<path style="fill:#16171e; stroke:none;" d="M984 985L985 986L984 985z"/>
<path style="fill:#131941; stroke:none;" d="M985.667 985.333L986.333 985.667L985.667 985.333z"/>
<path style="fill:#162268; stroke:none;" d="M987 985L987 986L990 986L987 985z"/>
<path style="fill:#131941; stroke:none;" d="M1044 985L1045 986L1044 985M990.667 986.333L991.333 986.667L990.667 986.333z"/>
<path style="fill:#162268; stroke:none;" d="M992 986L992 987L995 987L992 986M1042 986L1043 987L1042 986z"/>
<path style="fill:#16171e; stroke:none;" d="M1043 986L1044 987L1043 986z"/>
<path style="fill:#131941; stroke:none;" d="M995.667 987.333L996.333 987.667L995.667 987.333z"/>
<path style="fill:#162268; stroke:none;" d="M997 987L997 988L1000 988L997 987z"/>
<path style="fill:#131941; stroke:none;" d="M1041 987L1042 988L1041 987M1000.67 988.333L1001.33 988.667L1000.67 988.333z"/>
<path style="fill:#162268; stroke:none;" d="M1002 988L1002 989L1005 989L1002 988M1039 988L1040 989L1039 988z"/>
<path style="fill:#131941; stroke:none;" d="M1005.67 989.333L1006.33 989.667L1005.67 989.333z"/>
<path style="fill:#162268; stroke:none;" d="M1007 989L1007 990L1010 990L1007 989z"/>
<path style="fill:#131941; stroke:none;" d="M1038 989L1039 990L1038 989M1010.67 990.333L1011.33 990.667L1010.67 990.333z"/>
<path style="fill:#162268; stroke:none;" d="M1012 990L1012 991L1015 991L1012 990M1036 990L1037 991L1036 990z"/>
<path style="fill:#131941; stroke:none;" d="M1015.67 991.333L1016.33 991.667L1015.67 991.333z"/>
<path style="fill:#162268; stroke:none;" d="M1017 991L1017 992L1020 992L1017 991M1034 991L1035 992L1034 991z"/>
<path style="fill:#16171e; stroke:none;" d="M1035 991L1036 992L1035 991z"/>
<path style="fill:#131941; stroke:none;" d="M1020.67 992.333L1021.33 992.667L1020.67 992.333z"/>
<path style="fill:#162268; stroke:none;" d="M1022 992L1022 993L1025 993L1022 992z"/>
<path style="fill:#131941; stroke:none;" d="M1033 992L1034 993L1033 992M1030 993L1031 994L1030 993z"/>
<path style="fill:#16171e; stroke:none;" d="M1032 993L1033 994L1032 993M1030 994L1031 995L1030 994z"/>
</svg>
