<svg id="svg" version="1.1" xmlns="http://www.w3.org/2000/svg" xmlns:xlink="http://www.w3.org/1999/xlink" width="400" height="400" viewBox="0, 0, 400,400"><g id="svgg"><path id="path0" d="M141.600 159.488 C 141.215 159.746,134.420 164.075,126.500 169.108 C 102.499 184.361,104.718 182.682,104.893 185.458 C 104.957 186.471,105.143 190.225,105.306 193.800 C 105.920 207.216,107.804 245.626,108.003 248.785 C 108.153 251.183,108.149 252.108,107.987 252.208 C 107.864 252.284,107.793 252.562,107.827 252.827 C 107.882 253.247,107.366 254.142,106.500 255.128 C 106.390 255.253,105.940 255.823,105.500 256.394 C 105.060 256.966,104.492 257.673,104.238 257.967 C 102.371 260.122,102.807 260.633,107.500 261.790 C 108.930 262.143,110.858 262.648,111.785 262.914 C 112.712 263.179,113.514 263.353,113.567 263.300 C 113.620 263.247,113.761 263.282,113.882 263.377 C 114.002 263.473,115.135 263.794,116.400 264.090 C 117.665 264.387,121.468 265.349,124.852 266.229 C 128.235 267.108,131.250 267.860,131.552 267.900 C 131.853 267.940,132.100 267.990,132.100 268.012 C 132.100 268.033,132.280 268.078,132.500 268.110 C 132.720 268.142,135.870 268.947,139.500 269.899 C 145.502 271.472,154.154 273.640,155.400 273.882 C 155.675 273.936,156.080 274.026,156.300 274.083 C 169.336 277.471,171.500 277.947,172.004 277.544 C 172.391 277.234,174.847 274.000,174.695 274.000 C 174.633 274.000,174.788 273.779,175.041 273.510 C 175.637 272.873,175.776 272.695,176.606 271.505 C 177.352 270.435,177.335 270.459,178.152 269.373 C 178.454 268.973,178.835 268.444,179.000 268.198 C 179.165 267.952,179.396 267.649,179.514 267.525 C 179.632 267.401,180.108 266.760,180.571 266.100 C 181.833 264.302,182.626 263.202,183.402 262.173 C 183.786 261.663,184.235 261.045,184.400 260.800 C 184.565 260.555,184.925 260.054,185.200 259.686 C 185.475 259.319,186.060 258.516,186.500 257.904 C 186.940 257.291,187.660 256.305,188.100 255.712 C 189.487 253.842,189.635 253.631,189.668 253.473 C 189.686 253.388,189.880 253.123,190.100 252.885 C 190.320 252.647,190.860 251.942,191.300 251.319 C 191.740 250.695,192.196 250.076,192.314 249.943 C 192.432 249.809,192.907 249.160,193.369 248.500 C 193.830 247.840,194.606 246.760,195.091 246.100 C 195.577 245.440,196.225 244.540,196.532 244.100 C 196.838 243.660,197.271 243.065,197.494 242.778 C 197.717 242.491,198.035 242.053,198.200 241.805 C 198.365 241.557,198.725 241.060,199.000 240.700 C 199.275 240.340,199.635 239.845,199.800 239.600 C 199.965 239.355,200.325 238.860,200.600 238.500 C 200.875 238.140,201.235 237.645,201.400 237.400 C 201.565 237.155,201.948 236.627,202.251 236.227 C 202.818 235.478,202.949 235.297,203.800 234.096 C 204.075 233.708,204.660 232.908,205.100 232.317 C 205.540 231.727,206.080 230.998,206.300 230.697 C 206.520 230.396,207.038 229.688,207.451 229.125 C 208.944 227.089,208.851 229.003,208.509 207.237 C 208.091 180.678,207.823 169.769,207.582 169.479 C 207.473 169.347,207.177 169.187,206.925 169.124 C 206.076 168.911,153.666 160.698,146.800 159.702 C 144.875 159.423,143.075 159.155,142.800 159.107 C 142.490 159.052,142.034 159.197,141.600 159.488 M174.743 165.376 C 191.706 167.985,205.635 170.168,205.695 170.228 C 205.755 170.288,204.880 171.046,203.752 171.912 C 196.284 177.646,176.917 192.578,175.081 194.018 L 172.861 195.758 165.481 194.387 C 161.421 193.633,152.970 192.065,146.700 190.902 C 124.452 186.776,107.495 183.575,107.167 183.438 C 106.506 183.164,142.302 160.380,143.177 160.519 C 143.575 160.582,157.779 162.767,174.743 165.376 M207.182 202.069 L 207.569 226.439 205.623 228.769 C 204.553 230.051,198.916 236.950,193.098 244.100 C 178.886 261.565,175.600 265.510,175.600 265.105 C 175.600 264.049,173.802 201.616,173.702 199.200 L 173.582 196.300 175.435 194.900 C 176.454 194.130,181.295 190.402,186.194 186.615 C 191.092 182.829,197.665 177.752,200.800 175.334 L 206.500 170.937 206.647 174.319 C 206.728 176.178,206.969 188.666,207.182 202.069 M119.800 186.896 C 137.440 190.176,171.589 196.590,172.111 196.721 C 172.633 196.852,172.533 194.600,173.411 226.000 C 173.741 237.825,174.134 251.640,174.284 256.700 C 174.433 261.760,174.532 265.926,174.502 265.959 C 174.450 266.017,147.815 260.763,122.700 255.740 L 109.500 253.100 109.354 250.300 C 109.274 248.760,108.799 239.355,108.299 229.400 C 106.557 194.687,106.208 187.888,106.081 186.120 L 105.953 184.340 106.626 184.456 C 106.997 184.520,112.925 185.618,119.800 186.896 " stroke="none" fill="#060607" fill-rule="evenodd"></path><path id="path1" d="M205.261 170.140 C 205.566 170.219,205.581 170.284,205.361 170.567 C 205.128 170.865,205.137 170.871,205.448 170.627 C 205.847 170.314,205.735 169.989,205.238 170.023 C 204.944 170.043,204.947 170.059,205.261 170.140 M203.700 173.122 L 202.900 173.838 203.750 173.202 C 204.482 172.655,204.745 172.391,204.550 172.403 C 204.523 172.405,204.140 172.728,203.700 173.122 M200.900 175.224 C 199.910 175.996,198.965 176.771,198.800 176.945 C 198.635 177.118,199.428 176.554,200.563 175.690 C 202.350 174.330,203.001 173.773,202.762 173.809 C 202.728 173.815,201.890 174.451,200.900 175.224 M206.683 178.100 C 206.684 180.190,206.713 181.018,206.749 179.940 C 206.785 178.861,206.785 177.151,206.749 176.140 C 206.713 175.128,206.683 176.010,206.683 178.100 M196.500 178.624 C 195.510 179.396,194.565 180.171,194.400 180.345 C 194.235 180.518,195.028 179.954,196.163 179.090 C 197.950 177.730,198.601 177.173,198.362 177.209 C 198.328 177.215,197.490 177.851,196.500 178.624 M192.100 182.024 C 191.110 182.796,190.165 183.571,190.000 183.745 C 189.835 183.918,190.628 183.354,191.763 182.490 C 193.550 181.130,194.201 180.573,193.962 180.609 C 193.928 180.615,193.090 181.251,192.100 182.024 M188.700 184.722 L 187.900 185.438 188.750 184.802 C 189.482 184.255,189.745 183.991,189.550 184.003 C 189.523 184.005,189.140 184.328,188.700 184.722 M106.081 186.120 C 106.208 187.888,106.557 194.687,108.299 229.400 C 108.799 239.355,109.274 248.760,109.354 250.300 L 109.500 253.100 122.700 255.740 C 147.815 260.763,174.450 266.017,174.502 265.959 C 174.532 265.926,174.433 261.760,174.284 256.700 C 174.134 251.640,173.741 237.825,173.411 226.000 C 172.533 194.600,172.633 196.852,172.111 196.721 C 171.354 196.531,109.817 185.005,106.626 184.456 L 105.953 184.340 106.081 186.120 M186.800 186.123 C 186.305 186.510,185.765 186.969,185.600 187.144 C 185.435 187.319,185.863 187.038,186.550 186.519 C 187.238 186.001,187.800 185.537,187.800 185.488 C 187.800 185.349,187.753 185.379,186.800 186.123 M206.883 190.600 C 206.883 192.635,206.913 193.468,206.949 192.450 C 206.985 191.433,206.985 189.768,206.949 188.750 C 206.913 187.733,206.883 188.565,206.883 190.600 M184.300 188.122 L 183.500 188.838 184.350 188.202 C 185.082 187.655,185.345 187.391,185.150 187.403 C 185.123 187.405,184.740 187.728,184.300 188.122 M182.400 189.523 C 181.905 189.910,181.365 190.369,181.200 190.544 C 181.035 190.719,181.463 190.438,182.150 189.919 C 182.838 189.401,183.400 188.937,183.400 188.888 C 183.400 188.749,183.353 188.779,182.400 189.523 M179.800 191.523 C 179.305 191.910,178.765 192.369,178.600 192.544 C 178.435 192.719,178.863 192.438,179.550 191.919 C 180.238 191.401,180.800 190.937,180.800 190.888 C 180.800 190.749,180.753 190.779,179.800 191.523 M177.200 193.523 C 176.705 193.910,176.165 194.369,176.000 194.544 C 175.835 194.719,176.263 194.438,176.950 193.919 C 177.638 193.401,178.200 192.937,178.200 192.888 C 178.200 192.749,178.153 192.779,177.200 193.523 M174.800 195.424 C 174.103 196.035,174.103 196.036,174.744 195.610 C 175.098 195.374,175.441 195.096,175.506 194.991 C 175.699 194.679,175.539 194.777,174.800 195.424 M173.683 196.272 C 173.625 196.422,173.607 197.075,173.642 197.722 L 173.706 198.900 173.803 197.450 C 173.900 195.994,173.877 195.766,173.683 196.272 M207.083 202.500 C 207.084 204.590,207.113 205.418,207.149 204.340 C 207.185 203.261,207.185 201.551,207.149 200.540 C 207.113 199.528,207.083 200.410,207.083 202.500 M173.872 203.800 C 173.872 204.845,173.906 205.273,173.947 204.750 C 173.988 204.228,173.988 203.373,173.947 202.850 C 173.906 202.328,173.872 202.755,173.872 203.800 M174.072 210.800 C 174.072 211.845,174.106 212.273,174.147 211.750 C 174.188 211.228,174.188 210.373,174.147 209.850 C 174.106 209.328,174.072 209.755,174.072 210.800 M207.284 214.800 C 207.284 217.055,207.314 217.978,207.349 216.850 C 207.385 215.722,207.385 213.878,207.349 212.750 C 207.314 211.623,207.284 212.545,207.284 214.800 M174.272 217.800 C 174.272 218.845,174.306 219.273,174.347 218.750 C 174.388 218.228,174.388 217.373,174.347 216.850 C 174.306 216.328,174.272 216.755,174.272 217.800 M207.442 224.489 C 207.403 226.343,207.363 226.520,206.855 227.089 L 206.309 227.700 206.962 227.088 L 207.615 226.477 207.550 224.488 L 207.484 222.500 207.442 224.489 M174.471 224.900 C 174.470 225.890,174.504 226.320,174.546 225.856 C 174.588 225.392,174.589 224.582,174.547 224.056 C 174.506 223.530,174.472 223.910,174.471 224.900 M205.871 228.250 C 204.843 229.410,203.522 231.063,203.715 230.948 C 203.958 230.803,206.471 227.800,206.349 227.800 C 206.305 227.800,206.090 228.003,205.871 228.250 M174.671 231.900 C 174.670 232.890,174.704 233.320,174.746 232.856 C 174.788 232.392,174.789 231.582,174.747 231.056 C 174.706 230.530,174.672 230.910,174.671 231.900 M202.600 232.200 C 202.140 232.750,201.808 233.200,201.863 233.200 C 201.918 233.200,202.340 232.750,202.800 232.200 C 203.260 231.650,203.592 231.200,203.537 231.200 C 203.482 231.200,203.060 231.650,202.600 232.200 M201.268 233.850 C 200.316 234.918,197.319 238.672,197.517 238.551 C 197.758 238.402,201.864 233.400,201.745 233.400 C 201.704 233.400,201.489 233.603,201.268 233.850 M174.871 238.900 C 174.870 239.890,174.904 240.320,174.946 239.856 C 174.988 239.392,174.989 238.582,174.947 238.056 C 174.906 237.530,174.872 237.910,174.871 238.900 M196.868 239.250 C 195.916 240.318,192.919 244.072,193.117 243.951 C 193.358 243.802,197.464 238.800,197.345 238.800 C 197.304 238.800,197.089 239.003,196.868 239.250 M175.071 245.900 C 175.070 246.890,175.104 247.320,175.146 246.856 C 175.188 246.392,175.189 245.582,175.147 245.056 C 175.106 244.530,175.072 244.910,175.071 245.900 M189.773 247.950 C 188.095 250.013,185.968 252.623,185.045 253.750 C 184.123 254.878,183.415 255.800,183.472 255.800 C 183.529 255.800,184.949 254.113,186.627 252.050 C 188.305 249.988,190.432 247.378,191.355 246.250 C 192.277 245.123,192.985 244.200,192.928 244.200 C 192.871 244.200,191.451 245.888,189.773 247.950 M175.271 252.700 C 175.270 253.690,175.304 254.120,175.346 253.656 C 175.388 253.192,175.389 252.382,175.347 251.856 C 175.306 251.330,175.272 251.710,175.271 252.700 M182.400 257.000 C 181.940 257.550,181.608 258.000,181.663 258.000 C 181.718 258.000,182.140 257.550,182.600 257.000 C 183.060 256.450,183.392 256.000,183.337 256.000 C 183.282 256.000,182.860 256.450,182.400 257.000 M175.471 259.700 C 175.470 260.690,175.504 261.120,175.546 260.656 C 175.588 260.192,175.589 259.382,175.547 258.856 C 175.506 258.330,175.472 258.710,175.471 259.700 " stroke="none" fill="#636cf3" fill-rule="evenodd"></path><path id="path2" d="M124.660 171.945 C 114.958 178.183,107.040 183.307,107.064 183.330 C 107.137 183.404,126.383 187.044,140.200 189.598 C 147.405 190.930,157.440 192.788,162.500 193.726 C 167.560 194.665,171.970 195.473,172.300 195.523 C 172.813 195.601,173.219 195.363,175.100 193.884 C 176.310 192.932,183.681 187.237,191.481 181.229 C 204.895 170.894,205.630 170.296,205.081 170.152 C 204.331 169.956,143.207 160.599,142.690 160.602 C 142.476 160.602,134.362 165.707,124.660 171.945 M192.100 182.223 C 184.290 188.273,176.978 193.915,175.852 194.761 L 173.803 196.300 173.815 198.300 C 173.821 199.400,174.248 214.899,174.763 232.742 L 175.700 265.183 178.533 261.742 C 180.091 259.849,185.756 252.900,191.121 246.300 C 196.487 239.700,202.353 232.511,204.158 230.324 L 207.438 226.347 207.212 212.724 C 207.088 205.231,206.901 194.285,206.796 188.400 C 206.691 182.515,206.604 176.238,206.602 174.450 C 206.601 172.663,206.532 171.206,206.450 171.212 C 206.368 171.219,199.910 176.174,192.100 182.223 " stroke="none" fill="#7f87f3" fill-rule="evenodd"></path></g></svg>