<?xml version="1.0" standalone="yes"?>
<svg xmlns="http://www.w3.org/2000/svg" width="2000" height="2000">
<path style="fill:#010101; stroke:none;" d="M0 0L0 2000L2000 2000L2000 0L0 0z"/>
<path style="fill:#6b6ff6; stroke:none;" d="M710 803L710 804L716 803L710 803z"/>
<path style="fill:#878df9; stroke:none;" d="M535 916L535 917C561.298 919.093 588.019 926.89 614 931.576C666.365 941.02 718.636 950.977 771 960.424C792.682 964.336 814.317 968.514 836 972.424C844.178 973.899 855.785 978.453 864 976.693C869.31 975.555 873.868 970.464 878 967.211C887.585 959.664 897.276 952.236 907 944.87C933.516 924.785 959.554 904.063 986 883.884C999.018 873.952 1017.04 864.008 1027 851C1003.63 849.155 980.166 844.017 957 840.424C904.024 832.208 851.086 823.335 798 815.87C777.966 813.052 758.015 809.541 738 806.579C730.491 805.467 719.399 801.471 712 803.514C695.132 808.17 676.807 825.555 662 834.947C619.955 861.614 578.935 892.611 535 916z"/>
<path style="fill:#7f83f7; stroke:none;" d="M718 803L719 804L718 803z"/>
<path style="fill:#6b6ff6; stroke:none;" d="M719 803L719 804L722 804L719 803M708 804L709 805L708 804z"/>
<path style="fill:#7f83f7; stroke:none;" d="M709 804L710 805L709 804M724 804L725 805L724 804z"/>
<path style="fill:#6b6ff6; stroke:none;" d="M725 804L725 805L729 805L725 804M707 805L708 806L707 805z"/>
<path style="fill:#7f83f7; stroke:none;" d="M730.667 805.333L731.333 805.667L730.667 805.333z"/>
<path style="fill:#6b6ff6; stroke:none;" d="M732 805L732 806L735 806L732 805M705 806L706 807L705 806z"/>
<path style="fill:#7f83f7; stroke:none;" d="M706 806L707 807L706 806M737 806L738 807L737 806z"/>
<path style="fill:#6b6ff6; stroke:none;" d="M738 806L738 807L742 807L738 806z"/>
<path style="fill:#7f83f7; stroke:none;" d="M704 807L705 808L704 807M744 807L745 808L744 807z"/>
<path style="fill:#6b6ff6; stroke:none;" d="M745 807L745 808L748 808L745 807M702 808L703 809L702 808z"/>
<path style="fill:#7f83f7; stroke:none;" d="M703 808L704 809L703 808M750 808L751 809L750 808z"/>
<path style="fill:#6b6ff6; stroke:none;" d="M751 808L751 809L755 809L751 808z"/>
<path style="fill:#7f83f7; stroke:none;" d="M701 809L702 810L701 809M757 809L758 810L757 809z"/>
<path style="fill:#6b6ff6; stroke:none;" d="M758 809L758 810L761 810L758 809M699 810L700 811L699 810z"/>
<path style="fill:#7f83f7; stroke:none;" d="M700 810L701 811L700 810M763 810L764 811L763 810z"/>
<path style="fill:#6b6ff6; stroke:none;" d="M764 810L764 811L768 811L764 810M697 811L698 812L697 811z"/>
<path style="fill:#7f83f7; stroke:none;" d="M698 811L699 812L698 811M770 811L771 812L770 811z"/>
<path style="fill:#6b6ff6; stroke:none;" d="M771 811L771 812L774 812L771 811M696 812L697 813L696 812z"/>
<path style="fill:#7f83f7; stroke:none;" d="M776 812L777 813L776 812z"/>
<path style="fill:#6b6ff6; stroke:none;" d="M777 812L777 813L781 813L777 812M694 813L695 814L694 813z"/>
<path style="fill:#7f83f7; stroke:none;" d="M695 813L696 814L695 813M783 813L784 814L783 813z"/>
<path style="fill:#6b6ff6; stroke:none;" d="M784 813L784 814L787 814L784 813M693 814L694 815L693 814z"/>
<path style="fill:#7f83f7; stroke:none;" d="M789 814L790 815L789 814z"/>
<path style="fill:#6b6ff6; stroke:none;" d="M790 814L790 815L794 815L790 814M691 815L692 816L691 815z"/>
<path style="fill:#7f83f7; stroke:none;" d="M692 815L693 816L692 815M795.667 815.333L796.333 815.667L795.667 815.333z"/>
<path style="fill:#6b6ff6; stroke:none;" d="M797 815L797 816L800 816L797 815M690 816L691 817L690 816z"/>
<path style="fill:#7f83f7; stroke:none;" d="M802 816L803 817L802 816z"/>
<path style="fill:#6b6ff6; stroke:none;" d="M803 816L803 817L807 817L803 816M688 817L689 818L688 817z"/>
<path style="fill:#7f83f7; stroke:none;" d="M689 817L690 818L689 817M808.667 817.333L809.333 817.667L808.667 817.333z"/>
<path style="fill:#6b6ff6; stroke:none;" d="M810 817L810 818L813 818L810 817z"/>
<path style="fill:#7f83f7; stroke:none;" d="M687 818L688 819L687 818M815 818L816 819L815 818z"/>
<path style="fill:#6b6ff6; stroke:none;" d="M816 818L816 819L820 819L816 818M685 819L686 820L685 819z"/>
<path style="fill:#7f83f7; stroke:none;" d="M686 819L687 820L686 819M821.667 819.333L822.333 819.667L821.667 819.333z"/>
<path style="fill:#6b6ff6; stroke:none;" d="M823 819L823 820L826 820L823 819M683 820L684 821L683 820z"/>
<path style="fill:#7f83f7; stroke:none;" d="M684 820L685 821L684 820M828 820L829 821L828 820z"/>
<path style="fill:#6b6ff6; stroke:none;" d="M829 820L829 821L833 821L829 820M682 821L683 822L682 821z"/>
<path style="fill:#7f83f7; stroke:none;" d="M834.667 821.333L835.333 821.667L834.667 821.333z"/>
<path style="fill:#6b6ff6; stroke:none;" d="M836 821L836 822L839 822L836 821M680 822L681 823L680 822z"/>
<path style="fill:#7f83f7; stroke:none;" d="M681 822L682 823L681 822M840.667 822.333L841.333 822.667L840.667 822.333z"/>
<path style="fill:#6b6ff6; stroke:none;" d="M842 822L842 823L846 823L842 822M679 823L680 824L679 823z"/>
<path style="fill:#7f83f7; stroke:none;" d="M847.667 823.333L848.333 823.667L847.667 823.333z"/>
<path style="fill:#6b6ff6; stroke:none;" d="M849 823L849 824L852 824L849 823M677 824L678 825L677 824z"/>
<path style="fill:#7f83f7; stroke:none;" d="M678 824L679 825L678 824M853.667 824.333L854.333 824.667L853.667 824.333z"/>
<path style="fill:#6b6ff6; stroke:none;" d="M855 824L855 825L859 825L855 824M676 825L677 826L676 825z"/>
<path style="fill:#7f83f7; stroke:none;" d="M860.667 825.333L861.333 825.667L860.667 825.333z"/>
<path style="fill:#6b6ff6; stroke:none;" d="M862 825L862 826L865 826L862 825M674 826L675 827L674 826z"/>
<path style="fill:#7f83f7; stroke:none;" d="M675 826L676 827L675 826M866.667 826.333L867.333 826.667L866.667 826.333z"/>
<path style="fill:#6b6ff6; stroke:none;" d="M868 826L868 827L872 827L868 826z"/>
<path style="fill:#7f83f7; stroke:none;" d="M673 827L674 828L673 827M873.667 827.333L874.333 827.667L873.667 827.333z"/>
<path style="fill:#6b6ff6; stroke:none;" d="M875 827L875 828L878 828L875 827M671 828L672 829L671 828z"/>
<path style="fill:#7f83f7; stroke:none;" d="M672 828L673 829L672 828M879 828L879 829L882 829L879 828z"/>
<path style="fill:#6b6ff6; stroke:none;" d="M882 828L882 829L885 829L882 828M669 829L670 830L669 829z"/>
<path style="fill:#7f83f7; stroke:none;" d="M670 829L671 830L670 829M886.667 829.333L887.333 829.667L886.667 829.333z"/>
<path style="fill:#6b6ff6; stroke:none;" d="M888 829L888 830L891 830L888 829M668 830L669 831L668 830z"/>
<path style="fill:#7f83f7; stroke:none;" d="M892 830L892 831L895 831L892 830z"/>
<path style="fill:#6b6ff6; stroke:none;" d="M895 830L895 831L898 831L895 830M666 831L667 832L666 831z"/>
<path style="fill:#7f83f7; stroke:none;" d="M667 831L668 832L667 831M899.667 831.333L900.333 831.667L899.667 831.333z"/>
<path style="fill:#6b6ff6; stroke:none;" d="M901 831L901 832L904 832L901 831M665 832L666 833L665 832z"/>
<path style="fill:#7f83f7; stroke:none;" d="M905 832L905 833L908 833L905 832z"/>
<path style="fill:#6b6ff6; stroke:none;" d="M908 832L908 833L911 833L908 832M663 833L664 834L663 833z"/>
<path style="fill:#7f83f7; stroke:none;" d="M664 833L665 834L664 833M911 833L911 834L914 834L911 833z"/>
<path style="fill:#6b6ff6; stroke:none;" d="M914 833L914 834L917 834L914 833M662 834L663 835L662 834z"/>
<path style="fill:#7f83f7; stroke:none;" d="M918 834L918 835L921 835L918 834z"/>
<path style="fill:#6b6ff6; stroke:none;" d="M921 834L921 835L924 835L921 834M660 835L661 836L660 835z"/>
<path style="fill:#7f83f7; stroke:none;" d="M661 835L662 836L661 835M924 835L924 836L927 836L924 835z"/>
<path style="fill:#6b6ff6; stroke:none;" d="M927 835L927 836L930 836L927 835z"/>
<path style="fill:#7f83f7; stroke:none;" d="M659 836L660 837L659 836M931 836L931 837L934 837L931 836z"/>
<path style="fill:#6b6ff6; stroke:none;" d="M934 836L934 837L937 837L934 836M657 837L658 838L657 837z"/>
<path style="fill:#7f83f7; stroke:none;" d="M937 837L937 838L940 838L937 837z"/>
<path style="fill:#6b6ff6; stroke:none;" d="M940 837L940 838L943 838L940 837M655 838L656 839L655 838z"/>
<path style="fill:#7f83f7; stroke:none;" d="M656 838L657 839L656 838M944 838L944 839L947 839L944 838z"/>
<path style="fill:#6b6ff6; stroke:none;" d="M947 838L947 839L950 839L947 838M654 839L655 840L654 839z"/>
<path style="fill:#7f83f7; stroke:none;" d="M950 839L950 840L953 840L950 839z"/>
<path style="fill:#6b6ff6; stroke:none;" d="M953 839L953 840L956 840L953 839M652 840L653 841L652 840z"/>
<path style="fill:#7f83f7; stroke:none;" d="M653 840L654 841L653 840M957 840L957 841L960 841L957 840z"/>
<path style="fill:#6b6ff6; stroke:none;" d="M960 840L960 841L963 841L960 840M651 841L652 842L651 841z"/>
<path style="fill:#7f83f7; stroke:none;" d="M963 841L963 842L966 842L963 841z"/>
<path style="fill:#6b6ff6; stroke:none;" d="M966 841L966 842L969 842L966 841M649 842L650 843L649 842z"/>
<path style="fill:#7f83f7; stroke:none;" d="M650 842L651 843L650 842M970 842L970 843L973 843L970 842z"/>
<path style="fill:#6b6ff6; stroke:none;" d="M973 842L973 843L976 843L973 842M648 843L649 844L648 843z"/>
<path style="fill:#7f83f7; stroke:none;" d="M976 843L976 844L979 844L976 843z"/>
<path style="fill:#6b6ff6; stroke:none;" d="M979 843L979 844L982 844L979 843M646 844L647 845L646 844z"/>
<path style="fill:#7f83f7; stroke:none;" d="M647 844L648 845L647 844M982 844L982 845L986 845L982 844z"/>
<path style="fill:#6b6ff6; stroke:none;" d="M986 844L986 845L989 845L986 844z"/>
<path style="fill:#7f83f7; stroke:none;" d="M645 845L646 846L645 845M989 845L989 846L992 846L989 845z"/>
<path style="fill:#6b6ff6; stroke:none;" d="M992 845L992 846L995 846L992 845M643 846L644 847L643 846z"/>
<path style="fill:#7f83f7; stroke:none;" d="M995 846L995 847L999 847L995 846z"/>
<path style="fill:#6b6ff6; stroke:none;" d="M999 846L999 847L1002 847L999 846M641 847L642 848L641 847z"/>
<path style="fill:#7f83f7; stroke:none;" d="M642 847L643 848L642 847M1002 847L1002 848L1005 848L1002 847z"/>
<path style="fill:#6b6ff6; stroke:none;" d="M1005 847L1005 848L1008 848L1005 847M640 848L641 849L640 848z"/>
<path style="fill:#7f83f7; stroke:none;" d="M1009 848L1009 849L1012 849L1009 848z"/>
<path style="fill:#6b6ff6; stroke:none;" d="M1012 848L1012 849L1015 849L1012 848M638 849L639 850L638 849z"/>
<path style="fill:#7f83f7; stroke:none;" d="M639 849L640 850L639 849M1015 849L1015 850L1019 850L1015 849z"/>
<path style="fill:#6b6ff6; stroke:none;" d="M1019 849L1019 850L1022 850L1019 849M637 850L638 851L637 850z"/>
<path style="fill:#7f83f7; stroke:none;" d="M1022 850L1022 851L1025 851L1022 850z"/>
<path style="fill:#6b6ff6; stroke:none;" d="M1025 850L1025 851L1028 851L1026 854L1029 851L1025 850M635 851L636 852L635 851z"/>
<path style="fill:#7f83f7; stroke:none;" d="M636 851L637 852L636 851M1027 851L1028 852L1027 851z"/>
<path style="fill:#6b6ff6; stroke:none;" d="M634 852L635 853L634 852z"/>
<path style="fill:#7f83f7; stroke:none;" d="M1026 852L1027 853L1026 852z"/>
<path style="fill:#6b6ff6; stroke:none;" d="M632 853L633 854L632 853z"/>
<path style="fill:#7f83f7; stroke:none;" d="M633 853L634 854L633 853M1025 853L1026 854L1025 853M631 854L632 855L631 854z"/>
<path style="fill:#6b6ff6; stroke:none;" d="M1024 854L1025 855L1024 854M629 855L630 856L629 855z"/>
<path style="fill:#7f83f7; stroke:none;" d="M1022 855L1021 857L1022 855z"/>
<path style="fill:#6b6ff6; stroke:none;" d="M1023 855L1024 856L1023 855M1024 862L1033 856L1024 862M627 856L628 857L627 856z"/>
<path style="fill:#7f83f7; stroke:none;" d="M628 856L629 857L628 856z"/>
<path style="fill:#6b6ff6; stroke:none;" d="M1022 856L1023 857L1022 856z"/>
<path style="fill:#7f83f7; stroke:none;" d="M878 1326L879 1326L992.2 1187L1022.42 1150L1036.4 1132L1037 1109L1036 1054L1033 856C1019.26 861.809 1006.88 875.132 995 884.13C967.119 905.249 939.706 927.001 912 948.349C902.017 956.041 892.061 963.784 882 971.374C878.249 974.204 871.48 977.703 869.603 982.184C865.889 991.053 869.552 1005.67 869.961 1015C870.982 1038.33 870.94 1061.69 871.961 1085C875.467 1165.08 878 1245.83 878 1326z"/>
<path style="fill:#6b6ff6; stroke:none;" d="M626 857L627 858L626 857z"/>
<path style="fill:#7f83f7; stroke:none;" d="M1020 857L1021 858L1020 857z"/>
<path style="fill:#6b6ff6; stroke:none;" d="M624 858L625 859L624 858z"/>
<path style="fill:#7f83f7; stroke:none;" d="M625 858L626 859L625 858z"/>
<path style="fill:#6b6ff6; stroke:none;" d="M1019 858L1020 859L1019 858M623 859L624 860L623 859z"/>
<path style="fill:#7f83f7; stroke:none;" d="M1017 859L1016 861L1017 859z"/>
<path style="fill:#6b6ff6; stroke:none;" d="M1018 859L1019 860L1018 859M621 860L622 861L621 860z"/>
<path style="fill:#7f83f7; stroke:none;" d="M622 860L623 861L622 860z"/>
<path style="fill:#6b6ff6; stroke:none;" d="M1017 860L1018 861L1017 860M620 861L621 862L620 861M1015 861L1016 862L1015 861M618 862L619 863L618 862z"/>
<path style="fill:#7f83f7; stroke:none;" d="M1013 862L1012 864L1013 862z"/>
<path style="fill:#6b6ff6; stroke:none;" d="M1014 862L1015 863L1014 862M1022 862L1023 863L1022 862z"/>
<path style="fill:#7f83f7; stroke:none;" d="M617 863L618 864L617 863z"/>
<path style="fill:#6b6ff6; stroke:none;" d="M1013 863L1014 864L1013 863M1021 863L1022 864L1021 863M615 864L616 865L615 864M1011 864L1012 865L1011 864M1020 864L1021 865L1020 864M613 865L614 866L613 865z"/>
<path style="fill:#7f83f7; stroke:none;" d="M614 865L615 866L614 865M1009 865L1008 867L1009 865z"/>
<path style="fill:#6b6ff6; stroke:none;" d="M1010 865L1011 866L1010 865M1018.67 865.333L1019.33 865.667L1018.67 865.333M612 866L613 867L612 866M1009 866L1010 867L1009 866M1017 866L1018 867L1017 866M610 867L611 868L610 867z"/>
<path style="fill:#7f83f7; stroke:none;" d="M611 867L612 868L611 867M1007 867L1008 868L1007 867z"/>
<path style="fill:#6b6ff6; stroke:none;" d="M1016 867L1017 868L1016 867M609 868L610 869L609 868z"/>
<path style="fill:#7f83f7; stroke:none;" d="M1005 868L1003 871L1005 868z"/>
<path style="fill:#6b6ff6; stroke:none;" d="M1006 868L1007 869L1006 868M1014.67 868.333L1015.33 868.667L1014.67 868.333M607 869L608 870L607 869z"/>
<path style="fill:#7f83f7; stroke:none;" d="M608 869L609 870L608 869z"/>
<path style="fill:#6b6ff6; stroke:none;" d="M1005 869L1006 870L1005 869M1013 869L1014 870L1013 869M1033 869L1033 909L1034 909C1034 897.566 1037.41 879.512 1033 869M606 870L607 871L606 870M1004 870L1005 871L1004 870M1012 870L1013 871L1012 870M604 871L605 872L604 871M1002 871L1003 872L1002 871M1011 871L1012 872L1011 871z"/>
<path style="fill:#7f83f7; stroke:none;" d="M603 872L604 873L603 872M1000 872L999 874L1000 872z"/>
<path style="fill:#6b6ff6; stroke:none;" d="M1001 872L1002 873L1001 872M1009.67 872.333L1010.33 872.667L1009.67 872.333M601 873L602 874L601 873M1000 873L1001 874L1000 873M1008 873L1009 874L1008 873M599 874L600 875L599 874z"/>
<path style="fill:#7f83f7; stroke:none;" d="M600 874L601 875L600 874z"/>
<path style="fill:#6b6ff6; stroke:none;" d="M998 874L999 875L998 874M1007 874L1008 875L1007 874M598 875L599 876L598 875z"/>
<path style="fill:#7f83f7; stroke:none;" d="M996 875L994 878L996 875z"/>
<path style="fill:#6b6ff6; stroke:none;" d="M997 875L998 876L997 875M1005.67 875.333L1006.33 875.667L1005.67 875.333M596 876L597 877L596 876z"/>
<path style="fill:#7f83f7; stroke:none;" d="M597 876L598 877L597 876z"/>
<path style="fill:#6b6ff6; stroke:none;" d="M996 876L997 877L996 876M1004 876L1005 877L1004 876M595 877L596 878L595 877M995 877L996 878L995 877M1003 877L1004 878L1003 877M593 878L594 879L593 878z"/>
<path style="fill:#7f83f7; stroke:none;" d="M594 878L595 879L594 878z"/>
<path style="fill:#6b6ff6; stroke:none;" d="M993 878L994 879L993 878M1002 878L1003 879L1002 878M592 879L593 880L592 879z"/>
<path style="fill:#7f83f7; stroke:none;" d="M991 879L990 881L991 879z"/>
<path style="fill:#6b6ff6; stroke:none;" d="M992 879L993 880L992 879M1000.67 879.333L1001.33 879.667L1000.67 879.333M590 880L591 881L590 880M991 880L992 881L991 880M999 880L1000 881L999 880z"/>
<path style="fill:#7f83f7; stroke:none;" d="M589 881L590 882L589 881z"/>
<path style="fill:#6b6ff6; stroke:none;" d="M989 881L990 882L989 881M998 881L999 882L998 881M587 882L588 883L587 882z"/>
<path style="fill:#7f83f7; stroke:none;" d="M987 882L986 884L987 882z"/>
<path style="fill:#6b6ff6; stroke:none;" d="M988 882L989 883L988 882M996.667 882.333L997.333 882.667L996.667 882.333M585 883L586 884L585 883z"/>
<path style="fill:#7f83f7; stroke:none;" d="M586 883L587 884L586 883z"/>
<path style="fill:#6b6ff6; stroke:none;" d="M987 883L988 884L987 883M995 883L996 884L995 883M584 884L585 885L584 884M985 884L986 885L985 884M994 884L995 885L994 884M582 885L583 886L582 885z"/>
<path style="fill:#7f83f7; stroke:none;" d="M583 885L584 886L583 885M983 885L981 888L983 885z"/>
<path style="fill:#6b6ff6; stroke:none;" d="M984 885L985 886L984 885M992.667 885.333L993.333 885.667L992.667 885.333M581 886L582 887L581 886M983 886L984 887L983 886M991 886L992 887L991 886M579 887L580 888L579 887M982 887L983 888L982 887M990 887L991 888L990 887M578 888L579 889L578 888M980 888L981 889L980 888M989 888L990 889L989 888M576 889L577 890L576 889z"/>
<path style="fill:#7f83f7; stroke:none;" d="M978 889L977 891L978 889z"/>
<path style="fill:#6b6ff6; stroke:none;" d="M979 889L980 890L979 889M987.667 889.333L988.333 889.667L987.667 889.333z"/>
<path style="fill:#7f83f7; stroke:none;" d="M575 890L576 891L575 890z"/>
<path style="fill:#6b6ff6; stroke:none;" d="M978 890L979 891L978 890M986 890L987 891L986 890M573 891L574 892L573 891M976 891L977 892L976 891M985 891L986 892L985 891M571 892L572 893L571 892z"/>
<path style="fill:#7f83f7; stroke:none;" d="M572 892L573 893L572 892M974 892L973 894L974 892z"/>
<path style="fill:#6b6ff6; stroke:none;" d="M975 892L976 893L975 892M983.667 892.333L984.333 892.667L983.667 892.333M570 893L571 894L570 893M974 893L975 894L974 893M982 893L983 894L982 893M568 894L569 895L568 894z"/>
<path style="fill:#7f83f7; stroke:none;" d="M569 894L570 895L569 894M972 894L973 895L972 894z"/>
<path style="fill:#6b6ff6; stroke:none;" d="M981 894L982 895L981 894M567 895L568 896L567 895M971 895L972 896L971 895M980 895L981 896L980 895M565 896L566 897L565 896z"/>
<path style="fill:#7f83f7; stroke:none;" d="M566 896L567 897L566 896M969 896L968 898L969 896z"/>
<path style="fill:#6b6ff6; stroke:none;" d="M970 896L971 897L970 896M978.667 896.333L979.333 896.667L978.667 896.333M564 897L565 898L564 897M969 897L970 898L969 897M977 897L978 898L977 897M562 898L563 899L562 898M967 898L968 899L967 898M976 898L977 899L976 898z"/>
<path style="fill:#7f83f7; stroke:none;" d="M561 899L562 900L561 899M965 899L964 901L965 899z"/>
<path style="fill:#6b6ff6; stroke:none;" d="M966 899L967 900L966 899M974.667 899.333L975.333 899.667L974.667 899.333M559 900L560 901L559 900M965 900L966 901L965 900M973 900L974 901L973 900M557 901L558 902L557 901z"/>
<path style="fill:#7f83f7; stroke:none;" d="M558 901L559 902L558 901z"/>
<path style="fill:#6b6ff6; stroke:none;" d="M963 901L964 902L963 901M972 901L973 902L972 901M556 902L557 903L556 902z"/>
<path style="fill:#7f83f7; stroke:none;" d="M961 902L960 904L961 902z"/>
<path style="fill:#6b6ff6; stroke:none;" d="M962 902L963 903L962 902M970.667 902.333L971.333 902.667L970.667 902.333M554 903L555 904L554 903z"/>
<path style="fill:#7f83f7; stroke:none;" d="M555 903L556 904L555 903z"/>
<path style="fill:#6b6ff6; stroke:none;" d="M961 903L962 904L961 903M969 903L970 904L969 903M553 904L554 905L553 904z"/>
<path style="fill:#7f83f7; stroke:none;" d="M959 904L960 905L959 904z"/>
<path style="fill:#6b6ff6; stroke:none;" d="M968 904L969 905L968 904M551 905L552 906L551 905z"/>
<path style="fill:#7f83f7; stroke:none;" d="M552 905L553 906L552 905M957 905L955 908L957 905z"/>
<path style="fill:#6b6ff6; stroke:none;" d="M958 905L959 906L958 905M967 905L968 906L967 905M550 906L551 907L550 906M957 906L958 907L957 906M965.667 906.333L966.333 906.667L965.667 906.333M548 907L549 908L548 907M956 907L957 908L956 907M964 907L965 908L964 907z"/>
<path style="fill:#7f83f7; stroke:none;" d="M547 908L548 909L547 908z"/>
<path style="fill:#6b6ff6; stroke:none;" d="M954 908L955 909L954 908M963 908L964 909L963 908M545 909L546 910L545 909z"/>
<path style="fill:#7f83f7; stroke:none;" d="M952 909L951 911L952 909z"/>
<path style="fill:#6b6ff6; stroke:none;" d="M953 909L954 910L953 909M961.667 909.333L962.333 909.667L961.667 909.333M543 910L544 911L543 910z"/>
<path style="fill:#7f83f7; stroke:none;" d="M544 910L545 911L544 910z"/>
<path style="fill:#6b6ff6; stroke:none;" d="M952 910L953 911L952 910M960 910L961 911L960 910M542 911L543 912L542 911M950 911L951 912L950 911M959 911L960 912L959 911M540 912L541 913L540 912z"/>
<path style="fill:#7f83f7; stroke:none;" d="M541 912L542 913L541 912M948 912L947 914L948 912z"/>
<path style="fill:#6b6ff6; stroke:none;" d="M949 912L950 913L949 912M958 912L959 913L958 912M539 913L540 914L539 913M948 913L949 914L948 913M956.667 913.333L957.333 913.667L956.667 913.333M537 914L538 915L537 914z"/>
<path style="fill:#7f83f7; stroke:none;" d="M946 914L947 915L946 914z"/>
<path style="fill:#6b6ff6; stroke:none;" d="M955 914L956 915L955 914M536 915L537 916L536 915M945 915L946 916L945 915M954 915L955 916L954 915M534 916L535 917L534 916z"/>
<path style="fill:#7f83f7; stroke:none;" d="M943 916L942 918L943 916z"/>
<path style="fill:#6b6ff6; stroke:none;" d="M944 916L945 917L944 916M952.667 916.333L953.333 916.667L952.667 916.333M536 917L536 918L539 918L536 917z"/>
<path style="fill:#7f83f7; stroke:none;" d="M539 917L540 918L539 917z"/>
<path style="fill:#6b6ff6; stroke:none;" d="M943 917L944 918L943 917M951 917L952 918L951 917M541 918L541 919L544 919L541 918z"/>
<path style="fill:#7f83f7; stroke:none;" d="M544 918L545 919L544 918z"/>
<path style="fill:#6b6ff6; stroke:none;" d="M941 918L942 919L941 918M950 918L951 919L950 918M546 919L546 920L549 920L546 919z"/>
<path style="fill:#7f83f7; stroke:none;" d="M549 919L550 920L549 919M939 919L938 921L939 919z"/>
<path style="fill:#6b6ff6; stroke:none;" d="M940 919L941 920L940 919M948.667 919.333L949.333 919.667L948.667 919.333M552 920L552 921L555 921L552 920z"/>
<path style="fill:#7f83f7; stroke:none;" d="M555 920L556 921L555 920z"/>
<path style="fill:#6b6ff6; stroke:none;" d="M939 920L940 921L939 920M947 920L948 921L947 920M557 921L557 922L560 922L557 921z"/>
<path style="fill:#7f83f7; stroke:none;" d="M560 921L561 922L560 921z"/>
<path style="fill:#6b6ff6; stroke:none;" d="M937 921L938 922L937 921M946 921L947 922L946 921M530 922L542.961 1173L546 1237L548.028 1264.44L569 1270L629 1282L788 1313.4L873 1330L869.039 1210L865.089 1071L863.996 1009L861.972 984.738L841 979.6L780 968.197L615 937.389L530 922M562 922L562 923L565 923L562 922z"/>
<path style="fill:#7f83f7; stroke:none;" d="M565 922L566 923L565 922M935 922L934 924L935 922z"/>
<path style="fill:#6b6ff6; stroke:none;" d="M936 922L937 923L936 922M945 922L946 923L945 922M568.667 923.333L569.333 923.667L568.667 923.333z"/>
<path style="fill:#7f83f7; stroke:none;" d="M570 923L571 924L570 923z"/>
<path style="fill:#6b6ff6; stroke:none;" d="M935 923L936 924L935 923M943.667 923.333L944.333 923.667L943.667 923.333M573 924L573 925L576 925L573 924z"/>
<path style="fill:#7f83f7; stroke:none;" d="M576 924L577 925L576 924M933 924L934 925L933 924z"/>
<path style="fill:#6b6ff6; stroke:none;" d="M942 924L943 925L942 924M578 925L578 926L581 926L578 925z"/>
<path style="fill:#7f83f7; stroke:none;" d="M581 925L582 926L581 925z"/>
<path style="fill:#6b6ff6; stroke:none;" d="M932 925L933 926L932 925M941 925L942 926L941 925M583 926L583 927L586 927L583 926z"/>
<path style="fill:#7f83f7; stroke:none;" d="M586 926L587 927L586 926M930 926L929 928L930 926z"/>
<path style="fill:#6b6ff6; stroke:none;" d="M931 926L932 927L931 926M939.667 926.333L940.333 926.667L939.667 926.333M589.667 927.333L590.333 927.667L589.667 927.333z"/>
<path style="fill:#7f83f7; stroke:none;" d="M591.667 927.333L592.333 927.667L591.667 927.333z"/>
<path style="fill:#6b6ff6; stroke:none;" d="M930 927L931 928L930 927M938 927L939 928L938 927M594 928L594 929L597 929L594 928z"/>
<path style="fill:#7f83f7; stroke:none;" d="M597 928L598 929L597 928z"/>
<path style="fill:#6b6ff6; stroke:none;" d="M928 928L929 929L928 928M937 928L938 929L937 928M599 929L599 930L602 930L599 929z"/>
<path style="fill:#7f83f7; stroke:none;" d="M602 929L603 930L602 929M926 929L925 931L926 929z"/>
<path style="fill:#6b6ff6; stroke:none;" d="M927 929L928 930L927 929M936 929L937 930L936 929M605.667 930.333L606.333 930.667L605.667 930.333z"/>
<path style="fill:#7f83f7; stroke:none;" d="M607.667 930.333L608.333 930.667L607.667 930.333z"/>
<path style="fill:#6b6ff6; stroke:none;" d="M926 930L927 931L926 930M934.667 930.333L935.333 930.667L934.667 930.333M610.667 931.333L611.333 931.667L610.667 931.333z"/>
<path style="fill:#7f83f7; stroke:none;" d="M612.667 931.333L613.333 931.667L612.667 931.333z"/>
<path style="fill:#6b6ff6; stroke:none;" d="M924 931L925 932L924 931M933 931L934 932L933 931M1034 931L1034 971L1035 971C1035 959.566 1038.41 941.512 1034 931M615 932L615 933L618 933L615 932z"/>
<path style="fill:#7f83f7; stroke:none;" d="M618.667 932.333L619.333 932.667L618.667 932.333M922 932L920 935L922 932z"/>
<path style="fill:#6b6ff6; stroke:none;" d="M923 932L924 933L923 932M932 932L933 933L932 932M621.667 933.333L622.333 933.667L621.667 933.333z"/>
<path style="fill:#7f83f7; stroke:none;" d="M623.667 933.333L624.333 933.667L623.667 933.333z"/>
<path style="fill:#6b6ff6; stroke:none;" d="M922 933L923 934L922 933M930.667 933.333L931.333 933.667L930.667 933.333M626.667 934.333L627.333 934.667L626.667 934.333z"/>
<path style="fill:#7f83f7; stroke:none;" d="M628 934L628 935L631 935L628 934z"/>
<path style="fill:#6b6ff6; stroke:none;" d="M921 934L922 935L921 934M929 934L930 935L929 934M631 935L631 936L634 936L631 935z"/>
<path style="fill:#7f83f7; stroke:none;" d="M634.667 935.333L635.333 935.667L634.667 935.333z"/>
<path style="fill:#6b6ff6; stroke:none;" d="M919 935L920 936L919 935M928 935L929 936L928 935M637.667 936.333L638.333 936.667L637.667 936.333z"/>
<path style="fill:#7f83f7; stroke:none;" d="M639.667 936.333L640.333 936.667L639.667 936.333M917 936L916 938L917 936z"/>
<path style="fill:#6b6ff6; stroke:none;" d="M918 936L919 937L918 936M926.667 936.333L927.333 936.667L926.667 936.333M642.667 937.333L643.333 937.667L642.667 937.333z"/>
<path style="fill:#7f83f7; stroke:none;" d="M644 937L644 938L647 938L644 937z"/>
<path style="fill:#6b6ff6; stroke:none;" d="M917 937L918 938L917 937M925 937L926 938L925 937M647 938L647 939L650 939L647 938z"/>
<path style="fill:#7f83f7; stroke:none;" d="M650.667 938.333L651.333 938.667L650.667 938.333z"/>
<path style="fill:#6b6ff6; stroke:none;" d="M915 938L916 939L915 938M924 938L925 939L924 938M653.667 939.333L654.333 939.667L653.667 939.333z"/>
<path style="fill:#7f83f7; stroke:none;" d="M655 939L655 940L658 940L655 939M913 939L912 941L913 939z"/>
<path style="fill:#6b6ff6; stroke:none;" d="M914 939L915 940L914 939M923 939L924 940L923 939M658.667 940.333L659.333 940.667L658.667 940.333z"/>
<path style="fill:#7f83f7; stroke:none;" d="M660 940L660 941L663 941L660 940z"/>
<path style="fill:#6b6ff6; stroke:none;" d="M913 940L914 941L913 940M921.667 940.333L922.333 940.667L921.667 940.333M663 941L663 942L666 942L663 941z"/>
<path style="fill:#7f83f7; stroke:none;" d="M666 941L666 942L669 942L666 941M911 941L912 942L911 941z"/>
<path style="fill:#6b6ff6; stroke:none;" d="M920 941L921 942L920 941M669.667 942.333L670.333 942.667L669.667 942.333z"/>
<path style="fill:#7f83f7; stroke:none;" d="M671 942L671 943L674 943L671 942z"/>
<path style="fill:#6b6ff6; stroke:none;" d="M910 942L911 943L910 942M919 942L920 943L919 942M674.667 943.333L675.333 943.667L674.667 943.333z"/>
<path style="fill:#7f83f7; stroke:none;" d="M676 943L676 944L679 944L676 943M908 943L907 945L908 943z"/>
<path style="fill:#6b6ff6; stroke:none;" d="M909 943L910 944L909 943M917.667 943.333L918.333 943.667L917.667 943.333M679 944L679 945L682 945L679 944z"/>
<path style="fill:#7f83f7; stroke:none;" d="M682 944L682 945L685 945L682 944z"/>
<path style="fill:#6b6ff6; stroke:none;" d="M908 944L909 945L908 944M916 944L917 945L916 944M685.667 945.333L686.333 945.667L685.667 945.333z"/>
<path style="fill:#7f83f7; stroke:none;" d="M687 945L687 946L690 946L687 945z"/>
<path style="fill:#6b6ff6; stroke:none;" d="M906 945L907 946L906 945M915 945L916 946L915 945M690 946L690 947L693 947L690 946z"/>
<path style="fill:#7f83f7; stroke:none;" d="M693 946L693 947L696 947L693 946M904 946L903 948L904 946z"/>
<path style="fill:#6b6ff6; stroke:none;" d="M905 946L906 947L905 946M914 946L915 947L914 946M695 947L695 948L698 948L695 947z"/>
<path style="fill:#7f83f7; stroke:none;" d="M698 947L698 948L701 948L698 947z"/>
<path style="fill:#6b6ff6; stroke:none;" d="M904 947L905 948L904 947M912.667 947.333L913.333 947.667L912.667 947.333M701 948L701 949L704 949L701 948z"/>
<path style="fill:#7f83f7; stroke:none;" d="M704 948L704 949L707 949L704 948z"/>
<path style="fill:#6b6ff6; stroke:none;" d="M902 948L903 949L902 948M911 948L912 949L911 948M706 949L706 950L709 950L706 949z"/>
<path style="fill:#7f83f7; stroke:none;" d="M709 949L709 950L712 950L709 949M900 949L899 951L900 949z"/>
<path style="fill:#6b6ff6; stroke:none;" d="M901 949L902 950L901 949M910 949L911 950L910 949M711 950L711 951L714 951L711 950z"/>
<path style="fill:#7f83f7; stroke:none;" d="M714 950L714 951L717 951L714 950z"/>
<path style="fill:#6b6ff6; stroke:none;" d="M900 950L901 951L900 950M908.667 950.333L909.333 950.667L908.667 950.333M717 951L717 952L720 952L717 951z"/>
<path style="fill:#7f83f7; stroke:none;" d="M720 951L720 952L723 952L720 951M898 951L899 952L898 951z"/>
<path style="fill:#6b6ff6; stroke:none;" d="M907 951L908 952L907 951M722 952L722 953L725 953L722 952z"/>
<path style="fill:#7f83f7; stroke:none;" d="M725 952L725 953L728 953L725 952z"/>
<path style="fill:#6b6ff6; stroke:none;" d="M897 952L898 953L897 952M906 952L907 953L906 952M728 953L728 954L731 954L728 953z"/>
<path style="fill:#7f83f7; stroke:none;" d="M731 953L731 954L734 954L731 953M895 953L894 955L895 953z"/>
<path style="fill:#6b6ff6; stroke:none;" d="M896 953L897 954L896 953M904.667 953.333L905.333 953.667L904.667 953.333M733 954L733 955L736 955L733 954z"/>
<path style="fill:#7f83f7; stroke:none;" d="M736 954L736 955L739 955L736 954z"/>
<path style="fill:#6b6ff6; stroke:none;" d="M895 954L896 955L895 954M903 954L904 955L903 954M738 955L738 956L741 956L738 955z"/>
<path style="fill:#7f83f7; stroke:none;" d="M741 955L741 956L744 956L741 955z"/>
<path style="fill:#6b6ff6; stroke:none;" d="M893 955L894 956L893 955M902 955L903 956L902 955M744 956L744 957L747 957L744 956z"/>
<path style="fill:#7f83f7; stroke:none;" d="M747 956L747 957L750 957L747 956M891 956L890 958L891 956z"/>
<path style="fill:#6b6ff6; stroke:none;" d="M892 956L893 957L892 956M901 956L902 957L901 956M749 957L749 958L752 958L749 957z"/>
<path style="fill:#7f83f7; stroke:none;" d="M752 957L752 958L755 958L752 957z"/>
<path style="fill:#6b6ff6; stroke:none;" d="M891 957L892 958L891 957M899.667 957.333L900.333 957.667L899.667 957.333M754 958L754 959L758 959L754 958z"/>
<path style="fill:#7f83f7; stroke:none;" d="M758 958L758 959L761 959L758 958M889 958L890 959L889 958z"/>
<path style="fill:#6b6ff6; stroke:none;" d="M898 958L899 959L898 958M760 959L760 960L763 960L760 959z"/>
<path style="fill:#7f83f7; stroke:none;" d="M763 959L763 960L766 960L763 959M887 959L885 962L887 959z"/>
<path style="fill:#6b6ff6; stroke:none;" d="M888 959L889 960L888 959M897 959L898 960L897 959M765 960L765 961L769 961L765 960z"/>
<path style="fill:#7f83f7; stroke:none;" d="M769 960L769 961L772 961L769 960z"/>
<path style="fill:#6b6ff6; stroke:none;" d="M887 960L888 961L887 960M895.667 960.333L896.333 960.667L895.667 960.333M771 961L771 962L774 962L771 961z"/>
<path style="fill:#7f83f7; stroke:none;" d="M774 961L774 962L777 962L774 961z"/>
<path style="fill:#6b6ff6; stroke:none;" d="M886 961L887 962L886 961M894 961L895 962L894 961M776 962L776 963L779 963L776 962z"/>
<path style="fill:#7f83f7; stroke:none;" d="M779 962L779 963L782 963L779 962z"/>
<path style="fill:#6b6ff6; stroke:none;" d="M884 962L885 963L884 962M893 962L894 963L893 962M782 963L782 964L785 964L782 963z"/>
<path style="fill:#7f83f7; stroke:none;" d="M785 963L785 964L788 964L785 963M882 963L881 965L882 963z"/>
<path style="fill:#6b6ff6; stroke:none;" d="M883 963L884 964L883 963M891.667 963.333L892.333 963.667L891.667 963.333M787 964L787 965L790 965L787 964z"/>
<path style="fill:#7f83f7; stroke:none;" d="M790 964L790 965L793 965L790 964z"/>
<path style="fill:#6b6ff6; stroke:none;" d="M882 964L883 965L882 964M890 964L891 965L890 964M792 965L792 966L796 966L792 965z"/>
<path style="fill:#7f83f7; stroke:none;" d="M796 965L796 966L799 966L796 965z"/>
<path style="fill:#6b6ff6; stroke:none;" d="M880 965L881 966L880 965M889 965L890 966L889 965M798 966L798 967L801 967L798 966z"/>
<path style="fill:#7f83f7; stroke:none;" d="M801 966L801 967L804 967L801 966M878 966L877 968L878 966z"/>
<path style="fill:#6b6ff6; stroke:none;" d="M879 966L880 967L879 966M888 966L889 967L888 966M803 967L803 968L807 968L803 967z"/>
<path style="fill:#7f83f7; stroke:none;" d="M807 967L807 968L810 968L807 967z"/>
<path style="fill:#6b6ff6; stroke:none;" d="M878 967L879 968L878 967M886.667 967.333L887.333 967.667L886.667 967.333M809 968L809 969L812 969L809 968z"/>
<path style="fill:#7f83f7; stroke:none;" d="M812 968L812 969L815 969L812 968M876 968L877 969L876 968z"/>
<path style="fill:#6b6ff6; stroke:none;" d="M885 968L886 969L885 968M814 969L814 970L818 970L814 969z"/>
<path style="fill:#7f83f7; stroke:none;" d="M818.667 969.333L819.333 969.667L818.667 969.333z"/>
<path style="fill:#6b6ff6; stroke:none;" d="M875 969L876 970L875 969M884 969L885 970L884 969M820 970L820 971L823 971L820 970z"/>
<path style="fill:#7f83f7; stroke:none;" d="M823 970L823 971L826 971L823 970M873 970L872 972L873 970z"/>
<path style="fill:#6b6ff6; stroke:none;" d="M874 970L875 971L874 970M882.667 970.333L883.333 970.667L882.667 970.333M825 971L825 972L828 972L825 971z"/>
<path style="fill:#7f83f7; stroke:none;" d="M828 971L828 972L831 972L828 971z"/>
<path style="fill:#6b6ff6; stroke:none;" d="M873 971L874 972L873 971M881 971L882 972L881 971M830 972L830 973L834 973L830 972z"/>
<path style="fill:#7f83f7; stroke:none;" d="M834 972L834 973L837 973L834 972M871 972L872 973L871 972z"/>
<path style="fill:#6b6ff6; stroke:none;" d="M880 972L881 973L880 972M836 973L836 974L839 974L836 973z"/>
<path style="fill:#7f83f7; stroke:none;" d="M839 973L839 974L842 974L839 973z"/>
<path style="fill:#6b6ff6; stroke:none;" d="M870 973L871 974L870 973M878.667 973.333L879.333 973.667L878.667 973.333M841 974L841 975L844 975L841 974z"/>
<path style="fill:#7f83f7; stroke:none;" d="M844 974L844 975L848 975L844 974M868 974L867 976L868 974z"/>
<path style="fill:#6b6ff6; stroke:none;" d="M869 974L870 975L869 974M877 974L878 975L877 974M847 975L847 976L850 976L847 975z"/>
<path style="fill:#7f83f7; stroke:none;" d="M850 975L850 976L853 976L850 975z"/>
<path style="fill:#6b6ff6; stroke:none;" d="M868 975L869 976L868 975M876 975L877 976L876 975M852 976L852 977L855 977L852 976z"/>
<path style="fill:#7f83f7; stroke:none;" d="M855 976L855 977L858 977L855 976z"/>
<path style="fill:#6b6ff6; stroke:none;" d="M866 976L867 977L866 976M875 976L876 977L875 976M857 977L857 978L860 978L857 977z"/>
<path style="fill:#7f83f7; stroke:none;" d="M860 977L860 978L865 978L860 977z"/>
<path style="fill:#6b6ff6; stroke:none;" d="M865 977L866 978L865 977M873.667 977.333L874.333 977.667L873.667 977.333M862 978L862 979L865 979L862 978M872 978L873 979L872 978M871 979L872 980L871 979M869 980L870 981L869 980M868 981L868 999L869 999L868 981M1035 989L1035 1031L1036 1031C1036 1019.04 1039.61 999.988 1035 989M869 1010L869 1034L870 1034L869 1010M870 1045L870 1069L871 1069L870 1045M1036 1050L1036 1094L1037 1094C1037 1081.52 1040.81 1061.46 1036 1050M871 1080L871 1104L872 1104L871 1080M1037 1109L1037 1133L1038 1133L1037 1109M872 1116L872 1139L873 1139L872 1116M1036 1133L1037 1134L1036 1133M1035 1134L1036 1135L1035 1134M1034 1135L1035 1136L1034 1135M1033 1136L1034 1137L1033 1136M1032.33 1137.67L1032.67 1138.33L1032.33 1137.67M1031 1139L1032 1140L1031 1139M1030 1140L1031 1141L1030 1140M1029 1141L1030 1142L1029 1141M1028 1142L1029 1143L1028 1142M1027.33 1143.67L1027.67 1144.33L1027.33 1143.67z"/>
<path style="fill:#878df9; stroke:none;" d="M1038 1143L1039 1144L1038 1143z"/>
<path style="fill:#6b6ff6; stroke:none;" d="M1026 1145L1027 1146L1026 1145M1025 1146L1026 1147L1025 1146M1024 1147L1025 1148L1024 1147M1023 1148L1024 1149L1023 1148z"/>
<path style="fill:#7f83f7; stroke:none;" d="M1034 1148L1035 1149L1034 1148z"/>
<path style="fill:#6b6ff6; stroke:none;" d="M1022.33 1149.67L1022.67 1150.33L1022.33 1149.67M873 1151L873 1174L874 1174L873 1151M1021 1151L1022 1152L1021 1151M1020 1152L1021 1153L1020 1152M1019 1153L1020 1154L1019 1153M1018.33 1154.67L1018.67 1155.33L1018.33 1154.67z"/>
<path style="fill:#878df9; stroke:none;" d="M1030 1154L1031 1155L1030 1154z"/>
<path style="fill:#6b6ff6; stroke:none;" d="M1017 1156L1018 1157L1017 1156M1016 1157L1017 1158L1016 1157M1015 1158L1016 1159L1015 1158M1014 1159L1015 1160L1014 1159z"/>
<path style="fill:#7f83f7; stroke:none;" d="M1026 1159L1027 1160L1026 1159z"/>
<path style="fill:#6b6ff6; stroke:none;" d="M1013.33 1160.67L1013.67 1161.33L1013.33 1160.67M1012 1162L1013 1163L1012 1162M1011 1163L1012 1164L1011 1163M1010 1164L1011 1165L1010 1164M1009.33 1165.67L1009.67 1166.33L1009.33 1165.67z"/>
<path style="fill:#878df9; stroke:none;" d="M1022 1165L1023 1166L1022 1165z"/>
<path style="fill:#6b6ff6; stroke:none;" d="M1008 1167L1009 1168L1008 1167M1007 1168L1008 1169L1007 1168M1006 1169L1007 1170L1006 1169M1005 1170L1004 1173L1005 1170z"/>
<path style="fill:#01ffff; stroke:none;" d="M1017 1172L1018 1173L1017 1172z"/>
<path style="fill:#6b6ff6; stroke:none;" d="M1003 1173L1004 1174L1003 1173M1002 1174L1003 1175L1002 1174M1001 1175L1002 1176L1001 1175M1000.33 1176.67L1000.67 1177.33L1000.33 1176.67z"/>
<path style="fill:#878df9; stroke:none;" d="M1014 1176L1015 1177L1014 1176z"/>
<path style="fill:#6b6ff6; stroke:none;" d="M999 1178L1000 1179L999 1178M998 1179L999 1180L998 1179M997 1180L998 1181L997 1180M996 1181L995 1184L996 1181z"/>
<path style="fill:#878df9; stroke:none;" d="M1009 1183L1010 1184L1009 1183z"/>
<path style="fill:#6b6ff6; stroke:none;" d="M994 1184L995 1185L994 1184M993 1185L994 1186L993 1185M874 1186L874 1208L875 1208L874 1186M992 1186L993 1187L992 1186M991.333 1187.67L991.667 1188.33L991.333 1187.67z"/>
<path style="fill:#878df9; stroke:none;" d="M1006 1187L1007 1188L1006 1187z"/>
<path style="fill:#6b6ff6; stroke:none;" d="M990 1189L991 1190L990 1189M989 1190L990 1191L989 1190M988 1191L989 1192L988 1191M987.333 1192.67L987.667 1193.33L987.333 1192.67M986 1194L987 1195L986 1194z"/>
<path style="fill:#01ffff; stroke:none;" d="M1001 1194L1002 1195L1001 1194z"/>
<path style="fill:#6b6ff6; stroke:none;" d="M985 1195L986 1196L985 1195M984 1196L985 1197L984 1196M983 1197L984 1198L983 1197M982.333 1198.67L982.667 1199.33L982.333 1198.67z"/>
<path style="fill:#878df9; stroke:none;" d="M998 1198L999 1199L998 1198z"/>
<path style="fill:#6b6ff6; stroke:none;" d="M981 1200L982 1201L981 1200M980 1201L981 1202L980 1201M979 1202L980 1203L979 1202M978.333 1203.67L978.667 1204.33L978.333 1203.67M977 1205L978 1206L977 1205z"/>
<path style="fill:#878df9; stroke:none;" d="M993 1205L994 1206L993 1205z"/>
<path style="fill:#6b6ff6; stroke:none;" d="M976 1206L977 1207L976 1206M975 1207L976 1208L975 1207M974 1208L973 1211L974 1208z"/>
<path style="fill:#878df9; stroke:none;" d="M990 1209L991 1210L990 1209z"/>
<path style="fill:#6b6ff6; stroke:none;" d="M972 1211L973 1212L972 1211M971 1212L972 1213L971 1212M970 1213L971 1214L970 1213M969.333 1214.67L969.667 1215.33L969.333 1214.67M968 1216L969 1217L968 1216z"/>
<path style="fill:#878df9; stroke:none;" d="M985 1216L986 1217L985 1216z"/>
<path style="fill:#6b6ff6; stroke:none;" d="M967 1217L968 1218L967 1217M966 1218L967 1219L966 1218M965.333 1219.67L965.667 1220.33L965.333 1219.67M875 1221L875 1243L876 1243L875 1221M964 1221L965 1222L964 1221M963 1222L964 1223L963 1222M962 1223L963 1224L962 1223M961 1224L960 1227L961 1224M959 1227L960 1228L959 1227z"/>
<path style="fill:#878df9; stroke:none;" d="M977 1227L978 1228L977 1227z"/>
<path style="fill:#6b6ff6; stroke:none;" d="M958 1228L959 1229L958 1228M957 1229L958 1230L957 1229M956.333 1230.67L956.667 1231.33L956.333 1230.67M955 1232L956 1233L955 1232M954 1233L955 1234L954 1233M953 1234L954 1235L953 1234M952 1235L951 1238L952 1235M950 1238L951 1239L950 1238z"/>
<path style="fill:#878df9; stroke:none;" d="M969 1238L970 1239L969 1238z"/>
<path style="fill:#6b6ff6; stroke:none;" d="M949 1239L950 1240L949 1239M948 1240L949 1241L948 1240M947.333 1241.67L947.667 1242.33L947.333 1241.67M946 1243L947 1244L946 1243M965 1243L966 1244L965 1243M945 1244L946 1245L945 1244M944 1245L945 1246L944 1245M943.333 1246.67L943.667 1247.33L943.333 1246.67M942 1248L943 1249L942 1248M941 1249L942 1250L941 1249z"/>
<path style="fill:#878df9; stroke:none;" d="M961 1249L962 1250L961 1249z"/>
<path style="fill:#6b6ff6; stroke:none;" d="M940 1250L941 1251L940 1250M939 1251L938 1254L939 1251M937 1254L938 1255L937 1254M876 1255L876 1278L877 1278L876 1255M936 1255L937 1256L936 1255M935 1256L936 1257L935 1256M934.333 1257.67L934.667 1258.33L934.333 1257.67M933 1259L934 1260L933 1259M932 1260L933 1261L932 1260z"/>
<path style="fill:#878df9; stroke:none;" d="M953 1260L954 1261L953 1260z"/>
<path style="fill:#6b6ff6; stroke:none;" d="M931 1261L932 1262L931 1261M930.333 1262.67L930.667 1263.33L930.333 1262.67M929 1264L930 1265L929 1264M928 1265L929 1266L928 1265M949 1265L948 1267L949 1265M927 1266L928 1267L927 1266M926 1267L927 1268L926 1267M925.333 1268.67L925.667 1269.33L925.333 1268.67M924 1270L925 1271L924 1270M923 1271L924 1272L923 1271z"/>
<path style="fill:#878df9; stroke:none;" d="M945 1271L946 1272L945 1271z"/>
<path style="fill:#6b6ff6; stroke:none;" d="M922 1272L923 1273L922 1272M921.333 1273.67L921.667 1274.33L921.333 1273.67z"/>
<path style="fill:#878df9; stroke:none;" d="M533 1274L534 1275L533 1274z"/>
<path style="fill:#6b6ff6; stroke:none;" d="M920 1275L921 1276L920 1275M919 1276L920 1277L919 1276M918 1277L919 1278L918 1277M917.333 1278.67L917.667 1279.33L917.333 1278.67z"/>
<path style="fill:#01ffff; stroke:none;" d="M940 1278L941 1279L940 1278z"/>
<path style="fill:#878df9; stroke:none;" d="M529 1279L530 1280L529 1279z"/>
<path style="fill:#6b6ff6; stroke:none;" d="M916 1280L917 1281L916 1280M915 1281L916 1282L915 1281M914 1282L915 1283L914 1282z"/>
<path style="fill:#878df9; stroke:none;" d="M937 1282L938 1283L937 1282z"/>
<path style="fill:#6b6ff6; stroke:none;" d="M913 1283L914 1284L913 1283M912.333 1284.67L912.667 1285.33L912.333 1284.67M911 1286L912 1287L911 1286M910 1287L911 1288L910 1287z"/>
<path style="fill:#878df9; stroke:none;" d="M522 1288L523 1289L522 1288z"/>
<path style="fill:#6b6ff6; stroke:none;" d="M909 1288L910 1289L909 1288M908 1289L909 1290L908 1289M877 1290L877 1313L878 1313L877 1290M907 1291L908 1292L907 1291M906 1292L907 1293L906 1292M905 1293L906 1294L905 1293z"/>
<path style="fill:#878df9; stroke:none;" d="M929 1293L930 1294L929 1293z"/>
<path style="fill:#6b6ff6; stroke:none;" d="M904 1294L905 1295L904 1294z"/>
<path style="fill:#878df9; stroke:none;" d="M516 1296L517 1297L516 1296z"/>
<path style="fill:#6b6ff6; stroke:none;" d="M903 1296L904 1297L903 1296M902 1297L903 1298L902 1297z"/>
<path style="fill:#878df9; stroke:none;" d="M515 1298L516 1299L515 1298z"/>
<path style="fill:#6b6ff6; stroke:none;" d="M901 1298L902 1299L901 1298M925 1298L926 1299L925 1298M900 1299L901 1300L900 1299z"/>
<path style="fill:#878df9; stroke:none;" d="M515 1300L516 1301L515 1300z"/>
<path style="fill:#01ffff; stroke:none;" d="M924 1300L925 1301L924 1300z"/>
<path style="fill:#878df9; stroke:none;" d="M517 1302L518 1303L517 1302z"/>
<path style="fill:#6b6ff6; stroke:none;" d="M898 1302L899 1303L898 1302M897 1303L898 1304L897 1303z"/>
<path style="fill:#878df9; stroke:none;" d="M521 1304L522 1305L521 1304z"/>
<path style="fill:#6b6ff6; stroke:none;" d="M896 1304L897 1305L896 1304z"/>
<path style="fill:#878df9; stroke:none;" d="M921 1304L922 1305L921 1304z"/>
<path style="fill:#6b6ff6; stroke:none;" d="M895 1305L896 1306L895 1305M893 1308L894 1309L893 1308M540 1309L541 1310L540 1309M892 1309L893 1310L892 1309z"/>
<path style="fill:#878df9; stroke:none;" d="M543 1310L544 1311L543 1310z"/>
<path style="fill:#6b6ff6; stroke:none;" d="M891 1310L892 1311L891 1310z"/>
<path style="fill:#878df9; stroke:none;" d="M547 1311L548 1312L547 1311z"/>
<path style="fill:#6b6ff6; stroke:none;" d="M890 1311L891 1312L890 1311z"/>
<path style="fill:#878df9; stroke:none;" d="M551 1312L552 1313L551 1312z"/>
<path style="fill:#6b6ff6; stroke:none;" d="M889 1313L890 1314L889 1313M888 1314L889 1315L888 1314M887 1315L888 1316L887 1315z"/>
<path style="fill:#878df9; stroke:none;" d="M913 1315L914 1316L913 1315z"/>
<path style="fill:#6b6ff6; stroke:none;" d="M568 1316L569 1317L568 1316M886 1316L887 1317L886 1316M885 1317L886 1318L885 1317M884 1319L885 1320L884 1319M883 1320L884 1321L883 1320M882 1321L883 1322L882 1321z"/>
<path style="fill:#01ffff; stroke:none;" d="M590 1322L591 1323L590 1322z"/>
<path style="fill:#6b6ff6; stroke:none;" d="M591 1322L592 1323L591 1322M881 1322L882 1323L881 1322z"/>
<path style="fill:#878df9; stroke:none;" d="M594 1323L595 1324L594 1323z"/>
<path style="fill:#7f83f7; stroke:none;" d="M595 1323L596 1324L595 1323z"/>
<path style="fill:#6b6ff6; stroke:none;" d="M880 1323L881 1324L880 1323z"/>
<path style="fill:#878df9; stroke:none;" d="M598 1324L599 1325L598 1324z"/>
<path style="fill:#7f83f7; stroke:none;" d="M599 1324L600 1325L599 1324z"/>
<path style="fill:#878df9; stroke:none;" d="M602 1325L603 1326L602 1325z"/>
<path style="fill:#6b6ff6; stroke:none;" d="M879 1325L880 1326L879 1325z"/>
<path style="fill:#878df9; stroke:none;" d="M606 1326L607 1327L606 1326z"/>
<path style="fill:#6b6ff6; stroke:none;" d="M878 1326L879 1327L878 1326z"/>
<path style="fill:#878df9; stroke:none;" d="M905 1326L906 1327L905 1326M897 1337L898 1338L897 1337z"/>
<path style="fill:#6b6ff6; stroke:none;" d="M659 1339L660 1340L659 1339M663 1340L664 1341L663 1340z"/>
<path style="fill:#01ffff; stroke:none;" d="M665 1341L666 1342L665 1341z"/>
<path style="fill:#878df9; stroke:none;" d="M894 1341L895 1342L894 1341M669 1342L670 1343L669 1342M673 1343L674 1344L673 1343M677 1344L678 1345L677 1344M681 1345L682 1346L681 1345z"/>
<path style="fill:#7f83f7; stroke:none;" d="M682 1345L683 1346L682 1345z"/>
<path style="fill:#878df9; stroke:none;" d="M685 1346L686 1347L685 1346z"/>
<path style="fill:#7f83f7; stroke:none;" d="M686 1346L687 1347L686 1346M890 1346L891 1347L890 1346z"/>
<path style="fill:#878df9; stroke:none;" d="M689 1347L690 1348L689 1347z"/>
<path style="fill:#7f83f7; stroke:none;" d="M690 1347L691 1348L690 1347z"/>
<path style="fill:#878df9; stroke:none;" d="M693 1348L694 1349L693 1348M889 1348L890 1349L889 1348M886 1352L887 1353L886 1352z"/>
<path style="fill:#7f83f7; stroke:none;" d="M882 1357L883 1358L882 1357z"/>
<path style="fill:#878df9; stroke:none;" d="M878 1363L879 1364L878 1363z"/>
<path style="fill:#01ffff; stroke:none;" d="M768 1367L769 1368L768 1367z"/>
<path style="fill:#878df9; stroke:none;" d="M875 1367L876 1368L875 1367z"/>
<path style="fill:#01ffff; stroke:none;" d="M772 1368L773 1369L772 1368M776 1369L777 1370L776 1369z"/>
<path style="fill:#6b6ff6; stroke:none;" d="M778 1369L779 1370L778 1369M873 1369L874 1370L873 1369z"/>
<path style="fill:#01ffff; stroke:none;" d="M780 1370L781 1371L780 1370z"/>
<path style="fill:#6b6ff6; stroke:none;" d="M782 1370L783 1371L782 1370z"/>
<path style="fill:#01ffff; stroke:none;" d="M784 1371L785 1372L784 1371z"/>
<path style="fill:#878df9; stroke:none;" d="M788 1372L789 1373L788 1372z"/>
<path style="fill:#7f83f7; stroke:none;" d="M871 1372L872 1373L871 1372z"/>
<path style="fill:#878df9; stroke:none;" d="M792 1373L793 1374L792 1373M796 1374L797 1375L796 1374z"/>
<path style="fill:#6b6ff6; stroke:none;" d="M797 1374L798 1375L797 1374z"/>
<path style="fill:#878df9; stroke:none;" d="M800 1375L801 1376L800 1375z"/>
<path style="fill:#7f83f7; stroke:none;" d="M801 1375L802 1376L801 1375z"/>
<path style="fill:#878df9; stroke:none;" d="M804 1376L805 1377L804 1376z"/>
<path style="fill:#7f83f7; stroke:none;" d="M805 1376L806 1377L805 1376z"/>
<path style="fill:#878df9; stroke:none;" d="M808 1377L809 1378L808 1377z"/>
<path style="fill:#7f83f7; stroke:none;" d="M809 1377L810 1378L809 1377z"/>
<path style="fill:#878df9; stroke:none;" d="M812 1378L813 1379L812 1378z"/>
<path style="fill:#7f83f7; stroke:none;" d="M813 1378L814 1379L813 1378z"/>
<path style="fill:#01ffff; stroke:none;" d="M867 1378L868 1379L867 1378z"/>
<path style="fill:#878df9; stroke:none;" d="M816 1379L817 1380L816 1379z"/>
<path style="fill:#7f83f7; stroke:none;" d="M817 1379L818 1380L817 1379z"/>
<path style="fill:#878df9; stroke:none;" d="M820 1380L821 1381L820 1380z"/>
<path style="fill:#7f83f7; stroke:none;" d="M821 1380L822 1381L821 1380z"/>
<path style="fill:#878df9; stroke:none;" d="M824 1381L825 1382L824 1381M828 1382L829 1383L828 1382M832 1383L833 1384L832 1383M836 1384L837 1385L836 1384M840 1385L841 1386L840 1385z"/>
<path style="fill:#7f83f7; stroke:none;" d="M841 1385L842 1386L841 1385z"/>
<path style="fill:#878df9; stroke:none;" d="M844 1386L845 1387L844 1386M848 1387L849 1388L848 1387z"/>
<path style="fill:#7f83f7; stroke:none;" d="M849 1387L850 1388L849 1387M853 1388L854 1389L853 1388z"/>
</svg>
