<svg id="svg" version="1.1" xmlns="http://www.w3.org/2000/svg" xmlns:xlink="http://www.w3.org/1999/xlink" width="400" height="400" viewBox="0, 0, 400,400"><g id="svgg"><path id="path0" d="M211.300 180.808 C 185.343 193.518,178.995 196.679,178.608 197.091 L 178.205 197.521 178.507 232.610 C 178.673 251.910,178.888 267.942,178.983 268.239 C 179.119 268.661,179.075 268.851,178.777 269.121 C 178.568 269.310,178.444 269.511,178.501 269.567 C 178.557 269.624,178.400 269.894,178.152 270.167 C 177.903 270.441,177.835 270.590,178.000 270.500 C 178.165 270.410,178.080 270.577,177.811 270.872 C 177.542 271.167,177.300 271.557,177.274 271.739 C 177.247 271.921,177.084 272.149,176.913 272.245 C 176.741 272.341,176.600 272.544,176.600 272.696 C 176.600 272.847,176.482 273.090,176.339 273.236 C 176.085 273.493,175.744 274.221,175.804 274.378 C 175.821 274.420,175.715 274.529,175.569 274.619 C 175.063 274.932,177.147 275.666,181.200 276.603 C 181.695 276.718,182.258 276.854,182.450 276.906 C 182.643 276.958,182.958 277.041,183.150 277.091 C 183.343 277.141,184.715 277.503,186.200 277.896 C 187.685 278.288,189.080 278.647,189.300 278.694 C 189.824 278.805,198.950 281.103,200.500 281.514 C 201.160 281.689,202.060 281.925,202.500 282.039 C 202.940 282.154,203.435 282.295,203.600 282.354 C 204.169 282.556,204.501 282.629,204.846 282.627 C 205.036 282.626,205.244 282.710,205.308 282.813 C 205.372 282.916,205.621 283.001,205.862 283.003 C 206.103 283.005,206.660 283.131,207.100 283.284 C 207.540 283.437,208.170 283.610,208.500 283.668 C 208.830 283.726,211.035 284.272,213.400 284.882 C 215.765 285.491,220.265 286.627,223.400 287.406 C 226.535 288.185,229.280 288.902,229.500 288.999 C 230.046 289.239,230.810 289.452,231.343 289.513 C 231.587 289.541,232.217 289.703,232.743 289.875 C 233.269 290.046,233.925 290.231,234.200 290.285 C 234.475 290.340,237.105 290.989,240.044 291.729 C 245.327 293.058,246.804 293.215,246.295 292.391 C 246.244 292.310,246.427 292.186,246.701 292.118 C 246.976 292.049,247.200 291.859,247.200 291.696 C 247.200 291.533,247.268 291.419,247.350 291.442 C 247.609 291.516,248.400 290.916,248.400 290.646 C 248.400 290.504,248.558 290.329,248.750 290.257 C 248.943 290.185,249.219 289.961,249.364 289.760 C 249.509 289.558,249.711 289.445,249.814 289.508 C 249.916 289.572,250.000 289.478,250.000 289.300 C 250.000 289.122,250.090 289.032,250.200 289.100 C 250.310 289.168,250.400 289.128,250.400 289.012 C 250.400 288.895,250.535 288.800,250.700 288.800 C 250.865 288.800,250.977 288.688,250.950 288.550 C 250.922 288.413,251.013 288.322,251.150 288.350 C 251.288 288.377,251.400 288.324,251.400 288.232 C 251.400 288.140,251.630 287.959,251.911 287.831 C 252.192 287.703,252.367 287.509,252.299 287.399 C 252.232 287.290,252.282 287.200,252.411 287.200 C 252.540 287.200,252.935 286.884,253.288 286.499 C 253.642 286.113,253.979 285.845,254.037 285.904 C 254.096 285.962,254.625 285.558,255.214 285.005 C 255.803 284.452,256.354 284.000,256.438 284.000 C 256.522 284.000,256.738 283.775,256.918 283.500 C 257.099 283.225,257.368 283.000,257.517 283.000 C 257.666 283.000,257.985 282.734,258.226 282.408 C 258.467 282.082,258.739 281.862,258.832 281.920 C 258.924 281.977,259.000 281.934,259.000 281.825 C 259.000 281.716,259.180 281.570,259.400 281.500 C 259.620 281.430,259.800 281.244,259.800 281.087 C 259.800 280.929,259.877 280.800,259.971 280.800 C 260.065 280.800,260.370 280.598,260.648 280.350 C 260.927 280.103,261.458 279.630,261.830 279.300 C 262.201 278.970,262.593 278.667,262.702 278.626 C 263.143 278.462,263.589 278.056,263.465 277.932 C 263.393 277.859,263.466 277.800,263.629 277.800 C 263.791 277.800,264.301 277.393,264.762 276.895 C 265.223 276.397,265.602 276.059,265.604 276.145 C 265.607 276.230,265.782 276.075,265.993 275.800 C 266.204 275.525,266.450 275.292,266.539 275.283 C 266.944 275.239,267.387 274.941,267.287 274.779 C 267.226 274.681,267.271 274.600,267.388 274.600 C 267.504 274.600,267.937 274.279,268.350 273.886 C 268.762 273.493,269.348 273.024,269.650 272.843 C 269.953 272.662,270.200 272.393,270.200 272.245 C 270.200 272.097,270.286 272.030,270.391 272.095 C 270.496 272.160,270.732 271.985,270.914 271.706 C 271.097 271.428,271.351 271.200,271.479 271.200 C 271.607 271.200,272.219 270.705,272.838 270.100 C 273.458 269.495,274.056 269.000,274.168 269.000 C 274.280 269.000,274.558 268.763,274.785 268.473 C 275.013 268.183,275.201 268.026,275.203 268.123 C 275.205 268.220,275.272 268.207,275.353 268.093 C 275.434 267.979,275.752 267.693,276.060 267.456 C 276.368 267.220,276.593 266.977,276.560 266.917 C 276.527 266.857,276.725 266.652,277.000 266.461 C 277.758 265.935,277.994 265.747,278.613 265.174 C 278.926 264.885,279.229 264.696,279.286 264.753 C 279.344 264.810,279.447 264.709,279.517 264.529 C 279.586 264.348,279.768 264.200,279.921 264.200 C 280.075 264.200,280.200 264.104,280.200 263.986 C 280.200 263.753,280.738 263.150,280.863 263.243 C 280.932 263.294,281.229 263.048,282.420 261.950 C 282.629 261.757,282.895 261.600,283.012 261.600 C 283.128 261.600,283.168 261.510,283.100 261.400 C 283.032 261.290,283.094 261.199,283.238 261.199 C 283.382 261.198,284.014 260.703,284.641 260.099 C 285.269 259.494,285.879 259.000,285.998 259.000 C 286.116 259.000,286.264 258.866,286.327 258.701 C 286.390 258.537,286.522 258.452,286.621 258.513 C 286.719 258.574,286.800 258.550,286.800 258.459 C 286.800 258.368,287.150 258.078,287.578 257.814 L 288.355 257.333 288.516 250.617 C 288.605 246.922,288.682 238.320,288.688 231.500 C 288.695 224.680,288.745 220.405,288.800 222.000 C 288.855 223.595,288.914 217.230,288.932 207.854 C 288.962 191.592,289.042 188.558,289.414 189.500 C 289.534 189.803,289.575 189.821,289.586 189.574 C 289.594 189.395,289.468 189.139,289.306 189.005 C 288.962 188.720,290.036 188.956,264.700 183.580 C 231.209 176.473,224.034 174.985,223.411 175.015 C 223.240 175.023,217.790 177.630,211.300 180.808 M227.017 176.888 C 228.712 177.267,242.877 180.287,258.494 183.599 C 274.110 186.911,286.923 189.657,286.968 189.701 C 287.012 189.745,286.295 190.132,285.374 190.561 C 282.793 191.764,247.733 208.632,245.063 209.955 C 243.745 210.609,242.523 211.091,242.300 211.045 C 241.465 210.874,204.164 202.841,192.400 200.299 L 180.100 197.641 187.200 194.141 C 205.815 184.964,223.698 176.200,223.810 176.200 C 223.878 176.200,225.321 176.510,227.017 176.888 M288.101 192.550 C 288.042 193.733,287.854 204.825,287.681 217.200 C 287.509 229.575,287.307 243.524,287.234 248.197 L 287.100 256.694 286.000 257.434 C 269.912 268.255,243.890 285.383,243.858 285.174 C 243.835 285.023,243.627 271.895,243.395 256.000 C 243.164 240.105,242.913 223.706,242.837 219.557 L 242.700 212.015 248.100 209.428 C 251.070 208.005,258.090 204.638,263.700 201.944 C 284.148 192.127,287.705 190.437,287.954 190.419 C 288.150 190.404,288.183 190.886,288.101 192.550 M192.542 201.199 C 224.493 208.132,241.611 211.884,241.769 211.987 C 241.864 212.049,242.049 219.525,242.179 228.600 C 242.309 237.675,242.548 254.181,242.710 265.281 C 242.872 276.380,242.970 285.497,242.927 285.540 C 242.883 285.583,232.915 282.876,220.774 279.525 C 200.882 274.033,187.454 270.340,182.223 268.922 C 181.191 268.642,180.322 268.388,180.291 268.357 C 180.231 268.296,179.595 207.043,179.598 201.628 L 179.600 198.357 180.092 198.480 C 180.363 198.548,185.965 199.771,192.542 201.199 M289.073 209.100 C 289.074 210.200,289.107 210.624,289.148 210.043 C 289.188 209.462,289.188 208.562,289.147 208.043 C 289.106 207.524,289.073 208.000,289.073 209.100 " stroke="none" fill="#060505" fill-rule="evenodd"></path><path id="path1" d="M212.900 181.601 C 207.070 184.470,197.416 189.215,191.447 192.145 C 185.477 195.076,180.662 197.536,180.747 197.612 C 180.831 197.688,187.695 199.208,196.000 200.990 C 204.305 202.771,218.210 205.761,226.900 207.633 L 242.700 211.038 245.400 209.693 C 246.885 208.952,255.210 204.929,263.900 200.752 C 272.590 196.575,281.275 192.390,283.200 191.451 L 286.700 189.744 285.100 189.376 C 284.220 189.173,273.690 186.930,261.700 184.390 C 249.710 181.850,236.570 179.051,232.500 178.170 C 228.430 177.289,224.740 176.527,224.300 176.477 C 223.576 176.394,222.493 176.881,212.900 181.601 M278.500 194.985 C 273.440 197.374,265.610 201.109,261.100 203.284 C 256.590 205.459,250.615 208.332,247.823 209.669 L 242.746 212.100 242.871 216.000 C 242.940 218.145,243.180 233.220,243.404 249.500 C 243.628 265.780,243.863 280.464,243.926 282.131 L 244.040 285.161 250.593 280.831 C 254.196 278.449,263.851 272.045,272.048 266.600 L 286.952 256.700 287.083 249.400 C 287.155 245.385,287.343 232.875,287.500 221.600 C 287.658 210.325,287.845 198.738,287.916 195.850 C 287.988 192.934,287.969 190.609,287.873 190.620 C 287.778 190.631,283.560 192.595,278.500 194.985 M179.701 202.024 C 179.758 203.936,179.893 216.120,180.000 229.100 C 180.107 242.080,180.252 256.224,180.322 260.532 L 180.449 268.363 182.097 268.777 C 183.833 269.212,205.435 275.147,228.767 281.599 C 236.394 283.708,242.686 285.381,242.750 285.317 C 242.851 285.216,242.178 232.283,241.887 217.500 L 241.781 212.100 235.340 210.657 C 231.798 209.864,223.095 207.954,216.000 206.412 C 208.905 204.871,198.105 202.522,192.000 201.193 C 185.895 199.864,180.607 198.725,180.248 198.662 L 179.597 198.547 179.701 202.024 " stroke="none" fill="#eb432c" fill-rule="evenodd"></path><path id="path2" d="M222.200 176.900 C 221.705 177.165,221.390 177.382,221.500 177.382 C 221.610 177.382,222.105 177.165,222.600 176.900 C 223.095 176.635,223.410 176.418,223.300 176.418 C 223.190 176.418,222.695 176.635,222.200 176.900 M211.400 182.200 C 210.795 182.520,210.390 182.781,210.500 182.781 C 210.610 182.781,211.195 182.520,211.800 182.200 C 212.405 181.880,212.810 181.619,212.700 181.619 C 212.590 181.619,212.005 181.880,211.400 182.200 M289.120 190.050 C 288.988 191.120,288.732 215.936,288.855 215.800 C 288.904 215.745,289.002 212.775,289.072 209.200 C 289.142 205.625,289.259 199.663,289.332 195.950 C 289.454 189.742,289.387 187.881,289.120 190.050 M286.100 190.014 C 285.770 190.225,285.572 190.398,285.660 190.399 C 285.880 190.400,287.000 189.812,287.000 189.695 C 287.000 189.521,286.706 189.625,286.100 190.014 M286.000 191.300 C 285.065 191.784,284.369 192.184,284.454 192.190 C 284.539 192.195,285.325 191.840,286.200 191.400 C 288.120 190.434,287.959 190.439,288.054 191.350 L 288.133 192.100 288.166 191.250 C 288.208 190.189,288.144 190.190,286.000 191.300 M282.600 192.900 C 281.885 193.274,281.390 193.581,281.500 193.581 C 281.610 193.581,282.285 193.274,283.000 192.900 C 283.715 192.526,284.210 192.219,284.100 192.219 C 283.990 192.219,283.315 192.526,282.600 192.900 M279.000 194.600 C 278.615 194.811,278.390 194.983,278.500 194.983 C 278.610 194.983,279.015 194.811,279.400 194.600 C 279.785 194.389,280.010 194.217,279.900 194.217 C 279.790 194.217,279.385 194.389,279.000 194.600 M276.200 194.800 C 275.815 195.011,275.590 195.183,275.700 195.183 C 275.810 195.183,276.215 195.011,276.600 194.800 C 276.985 194.589,277.210 194.417,277.100 194.417 C 276.990 194.417,276.585 194.589,276.200 194.800 M287.884 199.800 C 287.884 202.055,287.914 202.978,287.949 201.850 C 287.985 200.722,287.985 198.878,287.949 197.750 C 287.914 196.623,287.884 197.545,287.884 199.800 M271.000 197.300 C 270.725 197.457,270.590 197.586,270.700 197.586 C 270.810 197.586,271.125 197.457,271.400 197.300 C 271.675 197.143,271.810 197.014,271.700 197.014 C 271.590 197.014,271.275 197.143,271.000 197.300 M266.000 199.700 C 265.725 199.857,265.590 199.986,265.700 199.986 C 265.810 199.986,266.125 199.857,266.400 199.700 C 266.675 199.543,266.810 199.414,266.700 199.414 C 266.590 199.414,266.275 199.543,266.000 199.700 M179.690 207.700 C 179.690 211.440,179.717 212.942,179.750 211.037 C 179.783 209.133,179.783 206.073,179.750 204.237 C 179.717 202.402,179.690 203.960,179.690 207.700 M260.600 202.300 C 260.325 202.457,260.190 202.586,260.300 202.586 C 260.410 202.586,260.725 202.457,261.000 202.300 C 261.275 202.143,261.410 202.014,261.300 202.014 C 261.190 202.014,260.875 202.143,260.600 202.300 M255.600 204.700 C 255.325 204.857,255.190 204.986,255.300 204.986 C 255.410 204.986,255.725 204.857,256.000 204.700 C 256.275 204.543,256.410 204.414,256.300 204.414 C 256.190 204.414,255.875 204.543,255.600 204.700 M250.200 207.300 C 249.925 207.457,249.790 207.586,249.900 207.586 C 250.010 207.586,250.325 207.457,250.600 207.300 C 250.875 207.143,251.010 207.014,250.900 207.014 C 250.790 207.014,250.475 207.143,250.200 207.300 M287.686 212.700 C 287.686 215.230,287.715 216.237,287.749 214.939 C 287.784 213.640,287.784 211.570,287.749 210.339 C 287.714 209.107,287.686 210.170,287.686 212.700 M241.879 215.100 C 241.879 216.640,241.911 217.244,241.949 216.441 C 241.987 215.639,241.986 214.379,241.948 213.641 C 241.910 212.904,241.879 213.560,241.879 215.100 M242.880 219.600 C 242.880 221.305,242.911 222.003,242.949 221.150 C 242.986 220.298,242.986 218.903,242.949 218.050 C 242.911 217.197,242.880 217.895,242.880 219.600 M288.680 222.100 C 288.680 223.750,288.711 224.398,288.749 223.541 C 288.786 222.683,288.786 221.333,288.748 220.541 C 288.710 219.748,288.680 220.450,288.680 222.100 M179.891 227.400 C 179.891 231.745,179.917 233.523,179.950 231.350 C 179.982 229.178,179.982 225.623,179.950 223.450 C 179.917 221.278,179.891 223.055,179.891 227.400 M287.486 226.100 C 287.486 228.630,287.515 229.637,287.549 228.339 C 287.584 227.040,287.584 224.970,287.549 223.739 C 287.514 222.507,287.486 223.570,287.486 226.100 M242.086 227.800 C 242.086 230.385,242.115 231.443,242.149 230.150 C 242.184 228.857,242.184 226.743,242.149 225.450 C 242.115 224.157,242.086 225.215,242.086 227.800 M243.084 232.300 C 243.084 234.500,243.113 235.427,243.149 234.361 C 243.185 233.294,243.185 231.494,243.149 230.361 C 243.114 229.227,243.084 230.100,243.084 232.300 M287.286 239.800 C 287.286 242.385,287.315 243.443,287.349 242.150 C 287.384 240.857,287.384 238.743,287.349 237.450 C 287.315 236.157,287.286 237.215,287.286 239.800 M242.286 241.600 C 242.286 244.185,242.315 245.243,242.349 243.950 C 242.384 242.657,242.384 240.543,242.349 239.250 C 242.315 237.957,242.286 239.015,242.286 241.600 M180.091 247.900 C 180.091 252.190,180.117 253.917,180.150 251.737 C 180.182 249.557,180.182 246.047,180.150 243.937 C 180.117 241.827,180.091 243.610,180.091 247.900 M243.284 245.500 C 243.284 247.700,243.313 248.627,243.349 247.561 C 243.385 246.494,243.385 244.694,243.349 243.561 C 243.314 242.427,243.284 243.300,243.284 245.500 M287.083 253.000 C 287.083 255.035,287.113 255.868,287.149 254.850 C 287.185 253.832,287.185 252.168,287.149 251.150 C 287.113 250.132,287.083 250.965,287.083 253.000 M242.486 255.400 C 242.486 257.985,242.515 259.043,242.549 257.750 C 242.584 256.457,242.584 254.343,242.549 253.050 C 242.515 251.757,242.486 252.815,242.486 255.400 M243.484 258.700 C 243.484 260.900,243.513 261.827,243.549 260.761 C 243.585 259.694,243.585 257.894,243.549 256.761 C 243.514 255.627,243.484 256.500,243.484 258.700 M180.284 264.400 C 180.284 266.655,180.314 267.578,180.349 266.450 C 180.385 265.322,180.385 263.478,180.349 262.350 C 180.314 261.223,180.284 262.145,180.284 264.400 M242.685 269.300 C 242.685 271.720,242.714 272.683,242.749 271.439 C 242.785 270.195,242.784 268.215,242.749 267.039 C 242.714 265.863,242.685 266.880,242.685 269.300 M243.684 272.000 C 243.684 274.255,243.714 275.178,243.749 274.050 C 243.785 272.923,243.785 271.078,243.749 269.950 C 243.714 268.822,243.684 269.745,243.684 272.000 M242.800 282.283 C 242.800 284.563,242.735 285.393,242.550 285.468 C 242.401 285.528,242.441 285.575,242.650 285.584 C 242.969 285.599,243.000 285.320,243.000 282.400 C 243.000 280.640,242.955 279.200,242.900 279.200 C 242.845 279.200,242.800 280.588,242.800 282.283 M249.496 281.528 C 248.476 282.205,248.116 282.562,248.913 282.107 C 249.615 281.707,250.551 281.011,250.396 281.004 C 250.339 281.002,249.934 281.238,249.496 281.528 M243.870 283.800 C 243.870 284.735,243.904 285.118,243.946 284.650 C 243.989 284.183,243.989 283.418,243.946 282.950 C 243.904 282.483,243.870 282.865,243.870 283.800 M247.441 282.886 C 246.512 283.543,246.381 283.730,247.165 283.281 C 247.531 283.071,247.925 282.788,248.040 282.650 C 248.335 282.297,248.197 282.351,247.441 282.886 " stroke="none" fill="#903121" fill-rule="evenodd"></path></g></svg>