<?xml version="1.0" standalone="yes"?>
<svg xmlns="http://www.w3.org/2000/svg" width="2000" height="2000">
<path style="fill:#010101; stroke:none;" d="M0 0L0 2000L2000 2000L2000 0L0 0z"/>
<path style="fill:#5a2012; stroke:none;" d="M1117.67 881.333L1118.33 881.667L1117.67 881.333z"/>
<path style="fill:#e54622; stroke:none;" d="M903 989L982 1005.58L1133 1038L1186 1049.42L1213 1054.7L1233 1045.75L1274 1025.86L1373 978.258L1434 949C1428.15 945.883 1420.44 945.6 1414 944.119C1397.4 940.304 1380.63 937.229 1364 933.576C1310.75 921.878 1257.25 911.273 1204 899.576C1184.03 895.189 1164 891.043 1144 886.789C1136.33 885.159 1125.81 880.582 1118 881.962C1105.08 884.245 1090.71 894.897 1079 900.753C1053.81 913.349 1028.19 925.158 1003 937.753C979.058 949.724 954.939 961.277 931 973.247C923.047 977.224 907.916 981.496 903 989z"/>
<path style="fill:#5a2012; stroke:none;" d="M1120.67 881.333L1121.33 881.667L1120.67 881.333M1115 882L1116 883L1115 882M1124 882L1124 883L1127 883L1124 882M1113 883L1114 884L1113 883M1129.67 883.333L1130.33 883.667L1129.67 883.333M1111 884L1112 885L1111 884M1133 884L1133 885L1136 885L1133 884M1109 885L1110 886L1109 885M1138.67 885.333L1139.33 885.667L1138.67 885.333M1107 886L1108 887L1107 886M1142 886L1142 887L1145 887L1142 886M1105 887L1106 888L1105 887M1147 887L1147 888L1150 888L1147 887M1103 888L1104 889L1103 888M1152.67 888.333L1153.33 888.667L1152.67 888.333M1101 889L1102 890L1101 889M1156 889L1156 890L1159 890L1156 889M1099 890L1100 891L1099 890M1161 890L1161 891L1164 891L1161 890M1097 891L1098 892L1097 891M1166.67 891.333L1167.33 891.667L1166.67 891.333M1095 892L1096 893L1095 892M1170 892L1170 893L1173 893L1170 892M1093 893L1094 894L1093 893M1175 893L1175 894L1178 894L1175 893M1091 894L1092 895L1091 894M1180.67 894.333L1181.33 894.667L1180.67 894.333M1089 895L1090 896L1089 895M1184 895L1184 896L1187 896L1184 895M1087 896L1088 897L1087 896M1189 896L1189 897L1192 897L1189 896M1085 897L1086 898L1085 897M1194.67 897.333L1195.33 897.667L1194.67 897.333M1083 898L1084 899L1083 898M1199.67 898.333L1200.33 898.667L1199.67 898.333M1081 899L1082 900L1081 899M1203 899L1203 900L1206 900L1203 899M1079 900L1080 901L1079 900M1208 900L1208 901L1211 901L1208 900M1077 901L1078 902L1077 901M1213.67 901.333L1214.33 901.667L1213.67 901.333M1074.67 902.333L1075.33 902.667L1074.67 902.333M1217 902L1217 903L1220 903L1217 902M1072.67 903.333L1073.33 903.667L1072.67 903.333M1222 903L1222 904L1225 904L1222 903M1070.67 904.333L1071.33 904.667L1070.67 904.333M1227.67 904.333L1228.33 904.667L1227.67 904.333M1068.67 905.333L1069.33 905.667L1068.67 905.333M1231 905L1231 906L1234 906L1231 905M1066.67 906.333L1067.33 906.667L1066.67 906.333M1236 906L1236 907L1239 907L1236 906M1064 907L1065 908L1064 907M1241 907L1241 908L1244 908L1241 907M1062 908L1063 909L1062 908M1246.67 908.333L1247.33 908.667L1246.67 908.333M1060 909L1061 910L1060 909M1250 909L1250 910L1253 910L1250 909M1058 910L1059 911L1058 910M1255 910L1255 911L1258 911L1255 910M1056 911L1057 912L1056 911M1260.67 911.333L1261.33 911.667L1260.67 911.333M1054 912L1055 913L1054 912M1264 912L1264 913L1267 913L1264 912M1052 913L1053 914L1052 913M1269 913L1269 914L1272 914L1269 913M1050 914L1051 915L1050 914M1274.67 914.333L1275.33 914.667L1274.67 914.333M1048 915L1049 916L1048 915M1279.67 915.333L1280.33 915.667L1279.67 915.333M1046 916L1047 917L1046 916M1283 916L1283 917L1286 917L1283 916M1044 917L1045 918L1044 917M1288 917L1288 918L1291 918L1288 917M1042 918L1043 919L1042 918M1293.67 918.333L1294.33 918.667L1293.67 918.333M1040 919L1041 920L1040 919M1297 919L1297 920L1300 920L1297 919M1038 920L1039 921L1038 920M1302 920L1302 921L1305 921L1302 920M1036 921L1037 922L1036 921M1307.67 921.333L1308.33 921.667L1307.67 921.333M1034 922L1035 923L1034 922M1311 922L1311 923L1314 923L1311 922M1032 923L1033 924L1032 923M1316 923L1316 924L1319 924L1316 923M1030 924L1031 925L1030 924M1321 924L1321 925L1324 925L1321 924M1028 925L1029 926L1028 925M1326.67 925.333L1327.33 925.667L1326.67 925.333M1026 926L1027 927L1026 926M1330 926L1330 927L1333 927L1330 926M1024 927L1025 928L1024 927M1335 927L1335 928L1338 928L1335 927M1022 928L1023 929L1022 928M1340.67 928.333L1341.33 928.667L1340.67 928.333M1020 929L1021 930L1020 929M1344 929L1344 930L1347 930L1344 929M1017.67 930.333L1018.33 930.667L1017.67 930.333M1349 930L1349 931L1352 931L1349 930M1015.67 931.333L1016.33 931.667L1015.67 931.333M1354 931L1354 932L1357 932L1354 931M1013 932L1014 933L1013 932M1359.67 932.333L1360.33 932.667L1359.67 932.333M1011 933L1012 934L1011 933M1363 933L1363 934L1366 934L1363 933M1009 934L1010 935L1009 934M1368 934L1368 935L1371 935L1368 934M1007 935L1008 936L1007 935M1373.67 935.333L1374.33 935.667L1373.67 935.333M1005 936L1006 937L1005 936M1378.67 936.333L1379.33 936.667L1378.67 936.333M1003 937L1004 938L1003 937M1382 937L1382 938L1385 938L1382 937M1001 938L1002 939L1001 938M1387 938L1387 939L1390 939L1387 938M999 939L1000 940L999 939M1392.67 939.333L1393.33 939.667L1392.67 939.333M997 940L998 941L997 940M1396 940L1396 941L1399 941L1396 940M995 941L996 942L995 941M1401 941L1401 942L1404 942L1401 941M993 942L994 943L993 942M1406 942L1406 943L1409 943L1406 942M991 943L992 944L991 943M1411.67 943.333L1412.33 943.667L1411.67 943.333M989 944L990 945L989 944M1415 944L1415 945L1418 945L1415 944M987 945L988 946L987 945M1420 945L1420 946L1423 946L1420 945M985 946L986 947L985 946M1425.67 946.333L1426.33 946.667L1425.67 946.333M1446 946L1445 1004L1444 1079L1445 1079C1445 1051.17 1444.19 1022.76 1446.09 995C1447.02 981.47 1451.3 958.64 1446 946M983 947L984 948L983 947M1430.67 947.333L1431.33 947.667L1430.67 947.333M981 948L982 949L981 948M1434.67 948.333L1435.33 948.667L1434.67 948.333M979 949L980 950L979 949M1433 949L1434 950L1433 949M977 950L978 951L977 950M1431 950L1432 951L1431 950M975 951L976 952L975 951M1429 951L1430 952L1429 951M973 952L974 953L973 952M1427 952L1428 953L1427 952M1411 965L1411 966L1440 953L1440 964L1441 964L1441 952L1411 965M971 953L972 954L971 953M1424.67 953.333L1425.33 953.667L1424.67 953.333z"/>
<path style="fill:#e54622; stroke:none;" d="M1220 1426L1275 1390L1379 1321L1419 1294.33L1434.4 1282.67L1435.17 1261L1436.04 1192L1440 953C1420.09 958.736 1400.83 971.044 1382 979.691C1345.44 996.478 1308.98 1013.76 1273 1031.75C1259.81 1038.35 1246.47 1044.86 1233 1050.86C1228.03 1053.08 1218.21 1056.08 1215.03 1060.64C1210.62 1066.95 1214.13 1084.67 1214.83 1092C1216.89 1113.68 1215.01 1136.23 1215.96 1158C1218.86 1224.19 1217.36 1290.79 1218.99 1357C1219.55 1379.86 1217.13 1403.3 1220 1426z"/>
<path style="fill:#5a2012; stroke:none;" d="M969 954L970 955L969 954M1422.67 954.333L1423.33 954.667L1422.67 954.333M967 955L968 956L967 955M1420 955L1421 956L1420 955M965 956L966 957L965 956M1418 956L1419 957L1418 956M963 957L964 958L963 957M1416 957L1417 958L1416 957M1414 958L1415 959L1414 958M958 959L959 960L958 959M1412 959L1413 960L1412 959M956 960L957 961L956 960M1410 960L1411 961L1410 960M954 961L955 962L954 961M1408 961L1409 962L1408 961M952 962L953 963L952 962M1406 962L1407 963L1406 962M950 963L951 964L950 963M1404 963L1405 964L1404 963M948 964L949 965L948 964M1401.67 964.333L1402.33 964.667L1401.67 964.333M946 965L947 966L946 965M1399.67 965.333L1400.33 965.667L1399.67 965.333M944 966L945 967L944 966M1397 966L1398 967L1397 966M1409 966L1410 967L1409 966M942 967L943 968L942 967M1395 967L1396 968L1395 967M1407 967L1408 968L1407 967M940 968L941 969L940 968M1393 968L1394 969L1393 968M1405 968L1406 969L1405 968M938 969L939 970L938 969M1391 969L1392 970L1391 969M1403 969L1404 970L1403 969M936 970L937 971L936 970M1389 970L1390 971L1389 970M1400.67 970.333L1401.33 970.667L1400.67 970.333M934 971L935 972L934 971M1387 971L1388 972L1387 971M1398.67 971.333L1399.33 971.667L1398.67 971.333M932 972L933 973L932 972M1385 972L1386 973L1385 972M1396.67 972.333L1397.33 972.667L1396.67 972.333M930 973L931 974L930 973M1383 973L1384 974L1383 973M1394.67 973.333L1395.33 973.667L1394.67 973.333M928 974L929 975L928 974M1381 974L1382 975L1381 974M1392 974L1393 975L1392 974M926 975L927 976L926 975M1379 975L1380 976L1379 975M1390 975L1391 976L1390 975M924 976L925 977L924 976M1376.67 976.333L1377.33 976.667L1376.67 976.333M1388 976L1389 977L1388 976M922 977L923 978L922 977M1374.67 977.333L1375.33 977.667L1374.67 977.333M1386 977L1387 978L1386 977M920 978L921 979L920 978M1372.67 978.333L1373.33 978.667L1372.67 978.333M1384 978L1385 979L1384 978M918 979L919 980L918 979M1370 979L1371 980L1370 979M1381.67 979.333L1382.33 979.667L1381.67 979.333M916 980L917 981L916 980M1368 980L1369 981L1368 980M1379.67 980.333L1380.33 980.667L1379.67 980.333M914 981L915 982L914 981M1366 981L1367 982L1366 981M1377 981L1378 982L1377 981M912 982L913 983L912 982M1364 982L1365 983L1364 982M1375 982L1376 983L1375 982M910 983L911 984L910 983M1362 983L1363 984L1362 983M1373 983L1374 984L1373 983M908 984L909 985L908 984M1360 984L1361 985L1360 984M1371 984L1372 985L1371 984M906 985L907 986L906 985M1358 985L1359 986L1358 985M1369 985L1370 986L1369 985M903.667 986.333L904.333 986.667L903.667 986.333M1356 986L1357 987L1356 986M1367 986L1368 987L1367 986M901 987L901 989L903 989L903 987L901 987M1354 987L1355 988L1354 987M1365 987L1366 988L1365 987M892.333 988.667L892.667 989.333L892.333 988.667M1351.67 988.333L1352.33 988.667L1351.67 988.333M1363 988L1364 989L1363 988M1439 988L1439 1025L1440 1025C1440 1014.35 1443.11 997.798 1439 988M906.667 989.333L907.333 989.667L906.667 989.333M1349.67 989.333L1350.33 989.667L1349.67 989.333M1360.67 989.333L1361.33 989.667L1360.67 989.333M910 990L910 991L913 991L910 990M1347.67 990.333L1348.33 990.667L1347.67 990.333M1358 990L1359 991L1358 990M915.667 991.333L916.333 991.667L915.667 991.333M1345 991L1346 992L1345 991M1356 991L1357 992L1356 991z"/>
<path style="fill:#e54622; stroke:none;" d="M898 992L902 1342C978.398 1357.77 1053.7 1383.76 1129 1404.15C1156.18 1411.51 1185.97 1424.56 1214 1427L1210 1060C1164.52 1054.13 1118.81 1040.27 1074 1030.42C1015.62 1017.6 955.54 1008.18 898 992z"/>
<path style="fill:#5a2012; stroke:none;" d="M899.667 992.333L900.333 992.667L899.667 992.333M920.667 992.333L921.333 992.667L920.667 992.333M1343 992L1344 993L1343 992M1354 992L1355 993L1354 992M903 993L903 994L906 994L903 993M924 993L924 994L927 994L924 993M1341 993L1342 994L1341 993M1352 993L1353 994L1352 993M908.667 994.333L909.333 994.667L908.667 994.333M929.667 994.333L930.333 994.667L929.667 994.333M1339 994L1340 995L1339 994M1350 994L1351 995L1350 994M912 995L912 996L915 996L912 995M934.667 995.333L935.333 995.667L934.667 995.333M1337 995L1338 996L1337 995M1348 995L1349 996L1348 995M917 996L917 997L920 997L917 996M938.667 996.333L939.333 996.667L938.667 996.333M1335 996L1336 997L1335 996M1346 996L1347 997L1346 996M921 997L921 998L924 998L921 997M943.667 997.333L944.333 997.667L943.667 997.333M1333 997L1334 998L1333 997M1344 997L1345 998L1344 997M926 998L926 999L929 999L926 998M948.667 998.333L949.333 998.667L948.667 998.333M1331 998L1332 999L1331 998M1342 998L1343 999L1342 998M930 999L930 1000L933 1000L930 999M952.667 999.333L953.333 999.667L952.667 999.333M1329 999L1330 1000L1329 999M1339 999L1340 1000L1339 999M935 1000L935 1001L938 1001L935 1000M957.667 1000.33L958.333 1000.67L957.667 1000.33M1327 1000L1328 1001L1327 1000M1337 1000L1338 1001L1337 1000M940.667 1001.33L941.333 1001.67L940.667 1001.33M962.667 1001.33L963.333 1001.67L962.667 1001.33M1324.67 1001.33L1325.33 1001.67L1324.67 1001.33M1335 1001L1336 1002L1335 1001M944 1002L944 1003L947 1003L944 1002M966.667 1002.33L967.333 1002.67L966.667 1002.33M1322.67 1002.33L1323.33 1002.67L1322.67 1002.33M1333 1002L1334 1003L1333 1002M949 1003L949 1004L952 1004L949 1003M971.667 1003.33L972.333 1003.67L971.667 1003.33M1320.67 1003.33L1321.33 1003.67L1320.67 1003.33M1331 1003L1332 1004L1331 1003M953 1004L953 1005L956 1005L953 1004M975 1004L975 1005L978 1005L975 1004M1318 1004L1319 1005L1318 1004M1329 1004L1330 1005L1329 1004M958 1005L958 1006L961 1006L958 1005M980.667 1005.33L981.333 1005.67L980.667 1005.33M1316 1005L1317 1006L1316 1005M1327 1005L1328 1006L1327 1005M963.667 1006.33L964.333 1006.67L963.667 1006.33M985.667 1006.33L986.333 1006.67L985.667 1006.33M1314 1006L1315 1007L1314 1006M1325 1006L1326 1007L1325 1006M967 1007L967 1008L970 1008L967 1007M989.667 1007.33L990.333 1007.67L989.667 1007.33M1312 1007L1313 1008L1312 1007M1323 1007L1324 1008L1323 1007M972 1008L972 1009L975 1009L972 1008M994.667 1008.33L995.333 1008.67L994.667 1008.33M1310 1008L1311 1009L1310 1008M1321 1008L1322 1009L1321 1008M977.667 1009.33L978.333 1009.67L977.667 1009.33M999.667 1009.33L1000.33 1009.67L999.667 1009.33M1308 1009L1309 1010L1308 1009M1319 1009L1320 1010L1319 1009M981 1010L981 1011L984 1011L981 1010M1003.67 1010.33L1004.33 1010.67L1003.67 1010.33M1306 1010L1307 1011L1306 1010M1316 1010L1317 1011L1316 1010M986.667 1011.33L987.333 1011.67L986.667 1011.33M1008.67 1011.33L1009.33 1011.67L1008.67 1011.33M1304 1011L1305 1012L1304 1011M1314 1011L1315 1012L1314 1011M990 1012L990 1013L993 1013L990 1012M1012 1012L1012 1013L1015 1013L1012 1012M1302 1012L1303 1013L1302 1012M1312 1012L1313 1013L1312 1012M995 1013L995 1014L998 1014L995 1013M1017.67 1013.33L1018.33 1013.67L1017.67 1013.33M1299.67 1013.33L1300.33 1013.67L1299.67 1013.33M1310 1013L1311 1014L1310 1013M1000.67 1014.33L1001.33 1014.67L1000.67 1014.33M1022.67 1014.33L1023.33 1014.67L1022.67 1014.33M1297.67 1014.33L1298.33 1014.67L1297.67 1014.33M1308 1014L1309 1015L1308 1014M1004 1015L1004 1016L1007 1016L1004 1015M1026 1015L1026 1016L1029 1016L1026 1015M1295.67 1015.33L1296.33 1015.67L1295.67 1015.33M1306 1015L1307 1016L1306 1015M1009 1016L1009 1017L1012 1017L1009 1016M1031.67 1016.33L1032.33 1016.67L1031.67 1016.33M1293 1016L1294 1017L1293 1016M1304 1016L1305 1017L1304 1016M1014.67 1017.33L1015.33 1017.67L1014.67 1017.33M1036.67 1017.33L1037.33 1017.67L1036.67 1017.33M1291 1017L1292 1018L1291 1017M1302 1017L1303 1018L1302 1017M898 1018L898 1081L899 1081L899 1038L898 1018M1018 1018L1018 1019L1021 1019L1018 1018M1040 1018L1040 1019L1043 1019L1040 1018M1289 1018L1290 1019L1289 1018M1300 1018L1301 1019L1300 1018M1023.67 1019.33L1024.33 1019.67L1023.67 1019.33M1045.67 1019.33L1046.33 1019.67L1045.67 1019.33M1287 1019L1288 1020L1287 1019M1298 1019L1299 1020L1298 1019M1028.67 1020.33L1029.33 1020.67L1028.67 1020.33M1050.67 1020.33L1051.33 1020.67L1050.67 1020.33M1285 1020L1286 1021L1285 1020M1296 1020L1297 1021L1296 1020M1032 1021L1032 1022L1035 1022L1032 1021M1054 1021L1054 1022L1057 1022L1054 1021M1283 1021L1284 1022L1283 1021M1294 1021L1295 1022L1294 1021M1037.67 1022.33L1038.33 1022.67L1037.67 1022.33M1059.67 1022.33L1060.33 1022.67L1059.67 1022.33M1281 1022L1282 1023L1281 1022M1292 1022L1293 1023L1292 1022M1041 1023L1041 1024L1044 1024L1041 1023M1063 1023L1063 1024L1066 1024L1063 1023M1279 1023L1280 1024L1279 1023M1290 1023L1291 1024L1290 1023M1046.67 1024.33L1047.33 1024.67L1046.67 1024.33M1068.67 1024.33L1069.33 1024.67L1068.67 1024.33M1277 1024L1278 1025L1277 1024M1287 1024L1288 1025L1287 1024M1051.67 1025.33L1052.33 1025.67L1051.67 1025.33M1073.67 1025.33L1074.33 1025.67L1073.67 1025.33M1274.67 1025.33L1275.33 1025.67L1274.67 1025.33M1285 1025L1286 1026L1285 1025M1055 1026L1055 1027L1058 1027L1055 1026M1077 1026L1077 1027L1080 1027L1077 1026M1272.67 1026.33L1273.33 1026.67L1272.67 1026.33M1283 1026L1284 1027L1283 1026M1060.67 1027.33L1061.33 1027.67L1060.67 1027.33M1082.67 1027.33L1083.33 1027.67L1082.67 1027.33M1270.67 1027.33L1271.33 1027.67L1270.67 1027.33M1281 1027L1282 1028L1281 1027M1064 1028L1064 1029L1067 1029L1064 1028M1087.67 1028.33L1088.33 1028.67L1087.67 1028.33M1268 1028L1269 1029L1268 1028M1279 1028L1280 1029L1279 1028M1069.67 1029.33L1070.33 1029.67L1069.67 1029.33M1091 1029L1091 1030L1094 1030L1091 1029M1266 1029L1267 1030L1266 1029M1277 1029L1278 1030L1277 1029M1074.67 1030.33L1075.33 1030.67L1074.67 1030.33M1096.67 1030.33L1097.33 1030.67L1096.67 1030.33M1264 1030L1265 1031L1264 1030M1275 1030L1276 1031L1275 1030M1078 1031L1078 1032L1081 1032L1078 1031M1101.67 1031.33L1102.33 1031.67L1101.67 1031.33M1262 1031L1263 1032L1262 1031M1273 1031L1274 1032L1273 1031M1083.67 1032.33L1084.33 1032.67L1083.67 1032.33M1105 1032L1105 1033L1108 1033L1105 1032M1260 1032L1261 1033L1260 1032M1271 1032L1272 1033L1271 1032M1087 1033L1087 1034L1090 1034L1087 1033M1110.67 1033.33L1111.33 1033.67L1110.67 1033.33M1258 1033L1259 1034L1258 1033M1269 1033L1270 1034L1269 1033M1092.67 1034.33L1093.33 1034.67L1092.67 1034.33M1114 1034L1114 1035L1117 1035L1114 1034M1256 1034L1257 1035L1256 1034M1267 1034L1268 1035L1267 1034M1097.67 1035.33L1098.33 1035.67L1097.67 1035.33M1119 1035L1119 1036L1122 1036L1119 1035M1254 1035L1255 1036L1254 1035M1265 1035L1266 1036L1265 1035M1101 1036L1101 1037L1104 1037L1101 1036M1124.67 1036.33L1125.33 1036.67L1124.67 1036.33M1252 1036L1253 1037L1252 1036M1263 1036L1264 1037L1263 1036M1106.67 1037.33L1107.33 1037.67L1106.67 1037.33M1128 1037L1128 1038L1131 1038L1128 1037M1250 1037L1251 1038L1250 1037M1260.67 1037.33L1261.33 1037.67L1260.67 1037.33M1110 1038L1110 1039L1113 1039L1110 1038M1133 1038L1133 1039L1136 1039L1133 1038M1248 1038L1249 1039L1248 1038M1258 1038L1259 1039L1258 1038M1115.67 1039.33L1116.33 1039.67L1115.67 1039.33M1138.67 1039.33L1139.33 1039.67L1138.67 1039.33M1245.67 1039.33L1246.33 1039.67L1245.67 1039.33M1256 1039L1257 1040L1256 1039M1119 1040L1119 1041L1122 1041L1119 1040M1142 1040L1142 1041L1145 1041L1142 1040M1243.67 1040.33L1244.33 1040.67L1243.67 1040.33M1254 1040L1255 1041L1254 1040M1124 1041L1124 1042L1127 1042L1124 1041M1147 1041L1147 1042L1150 1042L1147 1041M1241.67 1041.33L1242.33 1041.67L1241.67 1041.33M1252 1041L1253 1042L1252 1041M1128 1042L1128 1043L1131 1043L1128 1042M1152.67 1042.33L1153.33 1042.67L1152.67 1042.33M1239 1042L1240 1043L1239 1042M1250 1042L1251 1043L1250 1042M1133 1043L1133 1044L1136 1044L1133 1043M1156 1043L1156 1044L1159 1044L1156 1043M1237 1043L1238 1044L1237 1043M1248 1043L1249 1044L1248 1043M1138.67 1044.33L1139.33 1044.67L1138.67 1044.33M1161.67 1044.33L1162.33 1044.67L1161.67 1044.33M1235 1044L1236 1045L1235 1044M1246 1044L1247 1045L1246 1044M1142 1045L1142 1046L1145 1046L1142 1045M1166.67 1045.33L1167.33 1045.67L1166.67 1045.33M1233 1045L1234 1046L1233 1045M1244 1045L1245 1046L1244 1045M1147.67 1046.33L1148.33 1046.67L1147.67 1046.33M1170 1046L1170 1047L1173 1047L1170 1046M1231 1046L1232 1047L1231 1046M1242 1046L1243 1047L1242 1046M1151 1047L1151 1048L1154 1048L1151 1047M1175.67 1047.33L1176.33 1047.67L1175.67 1047.33M1229 1047L1230 1048L1229 1047M1240 1047L1241 1048L1240 1047M1156.67 1048.33L1157.33 1048.67L1156.67 1048.33M1179 1048L1179 1049L1182 1049L1179 1048M1227 1048L1228 1049L1227 1048M1238 1048L1239 1049L1238 1048M1160 1049L1160 1050L1163 1050L1160 1049M1184 1049L1184 1050L1187 1050L1184 1049M1225 1049L1226 1050L1225 1049M1235.67 1049.33L1236.33 1049.67L1235.67 1049.33M1165 1050L1165 1051L1168 1051L1165 1050M1189.67 1050.33L1190.33 1050.67L1189.67 1050.33M1223 1050L1224 1051L1223 1050M1233 1050L1234 1051L1233 1050M1169 1051L1169 1052L1172 1052L1169 1051M1193 1051L1193 1052L1196 1052L1193 1051M1221 1051L1222 1052L1221 1051M1231 1051L1232 1052L1231 1051M1174 1052L1174 1053L1177 1053L1174 1052M1198.67 1052.33L1199.33 1052.67L1198.67 1052.33M1219 1052L1220 1053L1219 1052M1229 1052L1230 1053L1229 1052M1438 1052L1438 1091L1439 1091C1439 1079.83 1442.31 1062.27 1438 1052M1178 1053L1178 1054L1181 1054L1178 1053M1203.67 1053.33L1204.33 1053.67L1203.67 1053.33M1217 1053L1218 1054L1217 1053M1227 1053L1228 1054L1227 1053M1183 1054L1183 1055L1186 1055L1183 1054M1207 1054L1207 1055L1210 1055L1207 1054M1215 1054L1216 1055L1215 1054M1225 1054L1226 1055L1225 1054M1187 1055L1187 1056L1190 1056L1187 1055M1212.67 1055.33L1213.33 1055.67L1212.67 1055.33M1223 1055L1224 1056L1223 1055M1192 1056L1192 1057L1195 1057L1192 1056M1221 1056L1222 1057L1221 1056M1196 1057L1196 1058L1200 1058L1196 1057M1219 1057L1220 1058L1219 1057M1201 1058L1201 1059L1204 1059L1201 1058M1217 1058L1218 1059L1217 1058M1206 1059L1206 1060L1209 1060L1206 1059M1215 1059L1216 1060L1215 1059M1213.33 1060.67L1213.67 1061.33L1213.33 1060.67M1444 1081L1445 1082L1444 1081M1443 1086L1444 1087L1443 1086M1214 1089L1214 1117L1215 1117L1214 1089M1443 1089L1443 1125L1444 1125C1444 1114.61 1447.01 1098.56 1443 1089M1210 1109L1210 1149L1211 1149C1211 1137.57 1214.41 1119.51 1210 1109M899 1116L899 1185L900 1185L900 1138L899 1116M1437 1119L1437 1159L1438 1159C1438 1147.57 1441.41 1129.51 1437 1119M1443 1126L1444 1127L1443 1126M1215 1153L1215 1185L1216 1185L1215 1153M1211 1179L1211 1219L1212 1219C1212 1207.57 1215.41 1189.51 1211 1179M1436 1187L1436 1228L1437 1228C1437 1216.3 1440.51 1197.75 1436 1187M900 1218L900 1287L901 1287L901 1240L900 1218M1216 1219L1216 1252L1217 1252L1216 1219M1212 1249L1212 1288L1213 1288C1213 1276.83 1216.31 1259.27 1212 1249M1435 1258L1435 1283L1436 1283L1435 1258M1217 1284L1217 1318L1218 1318L1217 1284M1433 1284L1434 1285L1433 1284M1432 1285L1433 1286L1432 1285M1430 1286L1431 1287L1430 1286M1429 1287L1430 1288L1429 1287M1427 1288L1428 1289L1427 1288M1426 1289L1427 1290L1426 1289M1424 1290L1425 1291L1424 1290M1423 1291L1424 1292L1423 1291z"/>
<path style="fill:#818181; stroke:none;" d="M1434 1291L1435 1292L1434 1291z"/>
<path style="fill:#5a2012; stroke:none;" d="M1421 1292L1422 1293L1421 1292M1420 1293L1421 1294L1420 1293M1418 1294L1419 1295L1418 1294M1417 1295L1418 1296L1417 1295z"/>
<path style="fill:#ffffff; stroke:none;" d="M1429 1295L1430 1296L1429 1295z"/>
<path style="fill:#5a2012; stroke:none;" d="M1415 1296L1416 1297L1415 1296M1427 1296L1428 1297L1427 1296M1414 1297L1415 1298L1414 1297M1412 1298L1413 1299L1412 1298M1411 1299L1412 1300L1411 1299z"/>
<path style="fill:#ffffff; stroke:none;" d="M1424 1299L1423 1301L1424 1299z"/>
<path style="fill:#5a2012; stroke:none;" d="M1409 1300L1410 1301L1409 1300M1408 1301L1409 1302L1408 1301M1406 1302L1407 1303L1406 1302M1405 1303L1406 1304L1405 1303M1403 1304L1404 1305L1403 1304M1400 1306L1401 1307L1400 1306z"/>
<path style="fill:#ffffff; stroke:none;" d="M1416 1306L1417 1307L1416 1306z"/>
<path style="fill:#5a2012; stroke:none;" d="M1397 1308L1398 1309L1397 1308M1413 1308L1414 1309L1413 1308z"/>
<path style="fill:#ffffff; stroke:none;" d="M1414 1308L1415 1309L1414 1308z"/>
<path style="fill:#5a2012; stroke:none;" d="M1394 1310L1395 1311L1394 1310z"/>
<path style="fill:#ffffff; stroke:none;" d="M1410 1311L1409 1313L1410 1311z"/>
<path style="fill:#5a2012; stroke:none;" d="M1391 1312L1392 1313L1391 1312M1407 1313L1408 1314L1407 1313M1388 1314L1389 1315L1388 1314M1385 1316L1386 1317L1385 1316z"/>
<path style="fill:#ffffff; stroke:none;" d="M1403 1317L1404 1318L1403 1317z"/>
<path style="fill:#5a2012; stroke:none;" d="M1382 1318L1383 1319L1382 1318M1401 1318L1402 1319L1401 1318M1213 1319L1213 1356L1214 1356C1214 1345.35 1217.11 1328.8 1213 1319M901 1320L901 1342L902 1342L901 1320M1379 1320L1380 1321L1379 1320z"/>
<path style="fill:#818181; stroke:none;" d="M1398 1321L1399 1322L1398 1321z"/>
<path style="fill:#5a2012; stroke:none;" d="M1376 1322L1377 1323L1376 1322M1395 1323L1396 1324L1395 1323M1373 1324L1374 1325L1373 1324z"/>
<path style="fill:#ffffff; stroke:none;" d="M1395 1324L1396 1325L1395 1324z"/>
<path style="fill:#5a2012; stroke:none;" d="M1370 1326L1371 1327L1370 1326M1367 1328L1368 1329L1367 1328z"/>
<path style="fill:#ffffff; stroke:none;" d="M1390 1328L1391 1329L1390 1328z"/>
<path style="fill:#5a2012; stroke:none;" d="M1388 1329L1389 1330L1388 1329M1364 1330L1365 1331L1364 1330z"/>
<path style="fill:#818181; stroke:none;" d="M1386 1331L1387 1332L1386 1331z"/>
<path style="fill:#5a2012; stroke:none;" d="M1361 1332L1362 1333L1361 1332z"/>
<path style="fill:#ffffff; stroke:none;" d="M1385 1332L1386 1333L1385 1332z"/>
<path style="fill:#5a2012; stroke:none;" d="M1383 1333L1384 1334L1383 1333z"/>
<path style="fill:#ffffff; stroke:none;" d="M1384 1333L1385 1334L1384 1333z"/>
<path style="fill:#5a2012; stroke:none;" d="M1358 1334L1359 1335L1358 1334M1355 1336L1356 1337L1355 1336M1352 1338L1353 1339L1352 1338z"/>
<path style="fill:#ffffff; stroke:none;" d="M1377 1339L1378 1340L1377 1339z"/>
<path style="fill:#5a2012; stroke:none;" d="M1349 1340L1350 1341L1349 1340M1375 1340L1376 1341L1375 1340M902 1342L902 1343L905 1343L902 1342M1346 1342L1347 1343L1346 1342M895 1343L896 1344L895 1343M906 1343L906 1344L909 1344L906 1343z"/>
<path style="fill:#ffffff; stroke:none;" d="M894 1344L895 1345L894 1344z"/>
<path style="fill:#5a2012; stroke:none;" d="M910 1344L910 1345L913 1345L910 1344M1343 1344L1344 1345L1343 1344M914.667 1345.33L915.333 1345.67L914.667 1345.33M1369 1345L1368 1347L1369 1345z"/>
<path style="fill:#ffffff; stroke:none;" d="M1370 1345L1371 1346L1370 1345z"/>
<path style="fill:#5a2012; stroke:none;" d="M918.667 1346.33L919.333 1346.67L918.667 1346.33M1340 1346L1341 1347L1340 1346M921 1347L921 1348L924 1348L921 1347z"/>
<path style="fill:#ffffff; stroke:none;" d="M892 1348L891 1350L892 1348z"/>
<path style="fill:#5a2012; stroke:none;" d="M925.667 1348.33L926.333 1348.67L925.667 1348.33M1337 1348L1338 1349L1337 1348z"/>
<path style="fill:#ffffff; stroke:none;" d="M1366 1348L1365 1350L1366 1348z"/>
<path style="fill:#5a2012; stroke:none;" d="M929.667 1349.33L930.333 1349.67L929.667 1349.33M932 1350L932 1351L935 1351L932 1350M1334 1350L1335 1351L1334 1350M936.667 1351.33L937.333 1351.67L936.667 1351.33M1218 1351L1218 1384L1219 1384L1218 1351M890 1352L891 1353L890 1352M940.667 1352.33L941.333 1352.67L940.667 1352.33M1331 1352L1332 1353L1331 1352z"/>
<path style="fill:#ffffff; stroke:none;" d="M889 1353L890 1354L889 1353z"/>
<path style="fill:#5a2012; stroke:none;" d="M943 1353L943 1354L946 1354L943 1353z"/>
<path style="fill:#ffffff; stroke:none;" d="M888 1354L889 1355L888 1354z"/>
<path style="fill:#5a2012; stroke:none;" d="M947.667 1354.33L948.333 1354.67L947.667 1354.33M1328 1354L1329 1355L1328 1354M951.667 1355.33L952.333 1355.67L951.667 1355.33M1326 1355L1327 1356L1326 1355M954 1356L954 1357L957 1357L954 1356M1325 1356L1326 1357L1325 1356M1356 1356L1355 1358L1356 1356z"/>
<path style="fill:#ffffff; stroke:none;" d="M1357 1356L1358 1357L1357 1356z"/>
<path style="fill:#5a2012; stroke:none;" d="M958.667 1357.33L959.333 1357.67L958.667 1357.33M1323 1357L1324 1358L1323 1357z"/>
<path style="fill:#ffffff; stroke:none;" d="M1356 1357L1357 1358L1356 1357M886 1358L885 1360L886 1358z"/>
<path style="fill:#5a2012; stroke:none;" d="M962.667 1358.33L963.333 1358.67L962.667 1358.33M1322 1358L1323 1359L1322 1358M965.667 1359.33L966.333 1359.67L965.667 1359.33M1320 1359L1321 1360L1320 1359z"/>
<path style="fill:#818181; stroke:none;" d="M885 1360L886 1361L885 1360z"/>
<path style="fill:#5a2012; stroke:none;" d="M969.667 1360.33L970.333 1360.67L969.667 1360.33M1319 1360L1320 1361L1319 1360M972 1361L972 1362L975 1362L972 1361M1317 1361L1318 1362L1317 1361z"/>
<path style="fill:#ffffff; stroke:none;" d="M1351 1361L1352 1362L1351 1361z"/>
<path style="fill:#5a2012; stroke:none;" d="M884 1362L885 1363L884 1362M976.667 1362.33L977.333 1362.67L976.667 1362.33M1316 1362L1317 1363L1316 1362M980.667 1363.33L981.333 1363.67L980.667 1363.33M1314 1363L1315 1364L1314 1363z"/>
<path style="fill:#ffffff; stroke:none;" d="M882 1364L883 1365L882 1364z"/>
<path style="fill:#5a2012; stroke:none;" d="M983 1364L983 1365L986 1365L983 1364M1313 1364L1314 1365L1313 1364M987.667 1365.33L988.333 1365.67L987.667 1365.33M1311 1365L1312 1366L1311 1365z"/>
<path style="fill:#ffffff; stroke:none;" d="M1346 1365L1347 1366L1346 1365M881 1366L882 1367L881 1366z"/>
<path style="fill:#5a2012; stroke:none;" d="M991.667 1366.33L992.333 1366.67L991.667 1366.33M1310 1366L1311 1367L1310 1366M994 1367L994 1368L997 1368L994 1367M1308 1367L1309 1368L1308 1367M998.667 1368.33L999.333 1368.67L998.667 1368.33M1307 1368L1308 1369L1307 1368z"/>
<path style="fill:#818181; stroke:none;" d="M1342 1368L1343 1369L1342 1368z"/>
<path style="fill:#ffffff; stroke:none;" d="M879 1369L880 1370L879 1369z"/>
<path style="fill:#5a2012; stroke:none;" d="M1002.67 1369.33L1003.33 1369.67L1002.67 1369.33M1305 1369L1306 1370L1305 1369M1005.67 1370.33L1006.33 1370.67L1005.67 1370.33M1304 1370L1305 1371L1304 1370M1009.67 1371.33L1010.33 1371.67L1009.67 1371.33M1302 1371L1303 1372L1302 1371M878 1372L879 1373L878 1372M1012 1372L1012 1373L1015 1373L1012 1372M1301 1372L1302 1373L1301 1372z"/>
<path style="fill:#ffffff; stroke:none;" d="M1338 1372L1337 1374L1338 1372z"/>
<path style="fill:#5a2012; stroke:none;" d="M1016.67 1373.33L1017.33 1373.67L1016.67 1373.33M1299 1373L1300 1374L1299 1373M1336 1373L1337 1374L1336 1373M1020.67 1374.33L1021.33 1374.67L1020.67 1374.33M1298 1374L1299 1375L1298 1374z"/>
<path style="fill:#ffffff; stroke:none;" d="M877 1375L878 1376L877 1375z"/>
<path style="fill:#5a2012; stroke:none;" d="M1023 1375L1023 1376L1026 1376L1023 1375M1296 1375L1297 1376L1296 1375z"/>
<path style="fill:#818181; stroke:none;" d="M881 1376L882 1377L881 1376z"/>
<path style="fill:#5a2012; stroke:none;" d="M1027.67 1376.33L1028.33 1376.67L1027.67 1376.33M1295 1376L1296 1377L1295 1376M1031.67 1377.33L1032.33 1377.67L1031.67 1377.33M1293 1377L1294 1378L1293 1377M1331 1377L1330 1379L1331 1377z"/>
<path style="fill:#ffffff; stroke:none;" d="M1332 1377L1333 1378L1332 1377z"/>
<path style="fill:#5a2012; stroke:none;" d="M1034.67 1378.33L1035.33 1378.67L1034.67 1378.33M1292 1378L1293 1379L1292 1378M1038.67 1379.33L1039.33 1379.67L1038.67 1379.33M1290 1379L1291 1380L1290 1379M1041 1380L1041 1381L1044 1381L1041 1380M1289 1380L1290 1381L1289 1380M1045.67 1381.33L1046.33 1381.67L1045.67 1381.33M1287 1381L1288 1382L1287 1381z"/>
<path style="fill:#ffffff; stroke:none;" d="M1327 1381L1328 1382L1327 1381z"/>
<path style="fill:#818181; stroke:none;" d="M903 1382L904 1383L903 1382z"/>
<path style="fill:#5a2012; stroke:none;" d="M1049.67 1382.33L1050.33 1382.67L1049.67 1382.33M1286 1382L1287 1383L1286 1382z"/>
<path style="fill:#818181; stroke:none;" d="M907 1383L908 1384L907 1383z"/>
<path style="fill:#5a2012; stroke:none;" d="M908 1383L909 1384L908 1383M1052 1383L1052 1384L1055 1384L1052 1383M1284 1383L1285 1384L1284 1383M912 1384L913 1385L912 1384M1056.67 1384.33L1057.33 1384.67L1056.67 1384.33M1283 1384L1284 1385L1283 1384z"/>
<path style="fill:#818181; stroke:none;" d="M1323 1384L1324 1385L1323 1384z"/>
<path style="fill:#5a2012; stroke:none;" d="M916 1385L917 1386L916 1385M1060.67 1385.33L1061.33 1385.67L1060.67 1385.33M1281 1385L1282 1386L1281 1385M1063.67 1386.33L1064.33 1386.67L1063.67 1386.33M1280 1386L1281 1387L1280 1386M1067.67 1387.33L1068.33 1387.67L1067.67 1387.33M1278 1387L1279 1388L1278 1387M1070 1388L1070 1389L1073 1389L1070 1388M1277 1388L1278 1389L1277 1388M1074.67 1389.33L1075.33 1389.67L1074.67 1389.33M1275 1389L1276 1390L1275 1389M1317 1389L1318 1390L1317 1389z"/>
<path style="fill:#ffffff; stroke:none;" d="M1318 1389L1319 1390L1318 1389M934 1390L935 1391L934 1390z"/>
<path style="fill:#5a2012; stroke:none;" d="M1078.67 1390.33L1079.33 1390.67L1078.67 1390.33M1214 1390C1214 1399.41 1217.73 1419.44 1212 1427L1212 1428C1216.22 1427.1 1215 1422.65 1215 1419C1215 1411.34 1217.76 1396.52 1214 1390M1274 1390L1275 1391L1274 1390z"/>
<path style="fill:#ffffff; stroke:none;" d="M938 1391L939 1392L938 1391z"/>
<path style="fill:#5a2012; stroke:none;" d="M1081 1391L1081 1392L1084 1392L1081 1391M1272 1391L1273 1392L1272 1391M1085.67 1392.33L1086.33 1392.67L1085.67 1392.33M1271 1392L1272 1393L1271 1392M1089.67 1393.33L1090.33 1393.67L1089.67 1393.33M1269 1393L1270 1394L1269 1393M1312 1393L1313 1394L1312 1393z"/>
<path style="fill:#ffffff; stroke:none;" d="M950 1394L951 1395L950 1394z"/>
<path style="fill:#5a2012; stroke:none;" d="M1092.67 1394.33L1093.33 1394.67L1092.67 1394.33M1268 1394L1269 1395L1268 1394M1096.67 1395.33L1097.33 1395.67L1096.67 1395.33M1266 1395L1267 1396L1266 1395z"/>
<path style="fill:#818181; stroke:none;" d="M1310 1395L1311 1396L1310 1395z"/>
<path style="fill:#5a2012; stroke:none;" d="M1099 1396L1099 1397L1102 1397L1099 1396M1265 1396L1266 1397L1265 1396M1103.67 1397.33L1104.33 1397.67L1103.67 1397.33M1263 1397L1264 1398L1263 1397z"/>
<path style="fill:#ffffff; stroke:none;" d="M1308 1397L1307 1399L1308 1397z"/>
<path style="fill:#818181; stroke:none;" d="M966 1398L967 1399L966 1398z"/>
<path style="fill:#5a2012; stroke:none;" d="M1107.67 1398.33L1108.33 1398.67L1107.67 1398.33M1262 1398L1263 1399L1262 1398M1110.67 1399.33L1111.33 1399.67L1110.67 1399.33M1260 1399L1261 1400L1260 1399M1114.67 1400.33L1115.33 1400.67L1114.67 1400.33M1259 1400L1260 1401L1259 1400z"/>
<path style="fill:#818181; stroke:none;" d="M1304 1400L1303 1402L1304 1400z"/>
<path style="fill:#5a2012; stroke:none;" d="M1117 1401L1117 1402L1120 1402L1117 1401M1257 1401L1258 1402L1257 1401M1121.67 1402.33L1122.33 1402.67L1121.67 1402.33M1256 1402L1257 1403L1256 1402M986 1403L987 1404L986 1403M1125.67 1403.33L1126.33 1403.67L1125.67 1403.33M1254 1403L1255 1404L1254 1403z"/>
<path style="fill:#ffffff; stroke:none;" d="M1301 1403L1299 1406L1301 1403z"/>
<path style="fill:#5a2012; stroke:none;" d="M1128 1404L1128 1405L1131 1405L1128 1404M1253 1404L1254 1405L1253 1404M1299 1404L1300 1405L1299 1404M1132.67 1405.33L1133.33 1405.67L1132.67 1405.33M1251 1405L1252 1406L1251 1405M998 1406L999 1407L998 1406M1136.67 1406.33L1137.33 1406.67L1136.67 1406.33M1250 1406L1251 1407L1250 1406M1139.67 1407.33L1140.33 1407.67L1139.67 1407.33M1248 1407L1249 1408L1248 1407M1143.67 1408.33L1144.33 1408.67L1143.67 1408.33M1247 1408L1248 1409L1247 1408z"/>
<path style="fill:#ffffff; stroke:none;" d="M1295 1408L1296 1409L1295 1408M1009 1409L1010 1410L1009 1409z"/>
<path style="fill:#5a2012; stroke:none;" d="M1146 1409L1146 1410L1149 1410L1146 1409M1245 1409L1246 1410L1245 1409M1293 1409L1292 1411L1293 1409M1150.67 1410.33L1151.33 1410.67L1150.67 1410.33M1244 1410L1245 1411L1244 1410z"/>
<path style="fill:#ffffff; stroke:none;" d="M1293 1410L1294 1411L1293 1410M1017 1411L1018 1412L1017 1411z"/>
<path style="fill:#5a2012; stroke:none;" d="M1154.67 1411.33L1155.33 1411.67L1154.67 1411.33M1242 1411L1243 1412L1242 1411z"/>
<path style="fill:#ffffff; stroke:none;" d="M1020 1412L1021 1413L1020 1412z"/>
<path style="fill:#5a2012; stroke:none;" d="M1157 1412L1157 1413L1160 1413L1157 1412M1241 1412L1242 1413L1241 1412z"/>
<path style="fill:#818181; stroke:none;" d="M1024 1413L1025 1414L1024 1413z"/>
<path style="fill:#5a2012; stroke:none;" d="M1025 1413L1026 1414L1025 1413M1161.67 1413.33L1162.33 1413.67L1161.67 1413.33M1239 1413L1240 1414L1239 1413M1165.67 1414.33L1166.33 1414.67L1165.67 1414.33M1238 1414L1239 1415L1238 1414z"/>
<path style="fill:#ffffff; stroke:none;" d="M1031 1415L1032 1416L1031 1415z"/>
<path style="fill:#5a2012; stroke:none;" d="M1032 1415L1033 1416L1032 1415M1168.67 1415.33L1169.33 1415.67L1168.67 1415.33M1236 1415L1237 1416L1236 1415M1286 1415L1287 1416L1286 1415M1172.67 1416.33L1173.33 1416.67L1172.67 1416.33M1235 1416L1236 1417L1235 1416z"/>
<path style="fill:#818181; stroke:none;" d="M1285 1416L1286 1417L1285 1416z"/>
<path style="fill:#5a2012; stroke:none;" d="M1175 1417L1175 1418L1178 1418L1175 1417M1233 1417L1234 1418L1233 1417M1179.67 1418.33L1180.33 1418.67L1179.67 1418.33M1232 1418L1233 1419L1232 1418z"/>
<path style="fill:#818181; stroke:none;" d="M1047 1419L1048 1420L1047 1419z"/>
<path style="fill:#5a2012; stroke:none;" d="M1183.67 1419.33L1184.33 1419.67L1183.67 1419.33M1230 1419L1231 1420L1230 1419z"/>
<path style="fill:#818181; stroke:none;" d="M1051 1420L1052 1421L1051 1420z"/>
<path style="fill:#5a2012; stroke:none;" d="M1186 1420L1186 1421L1189 1421L1186 1420M1229 1420L1230 1421L1229 1420M1280 1420L1281 1421L1280 1420z"/>
<path style="fill:#ffffff; stroke:none;" d="M1281 1420L1282 1421L1281 1420z"/>
<path style="fill:#5a2012; stroke:none;" d="M1190.67 1421.33L1191.33 1421.67L1190.67 1421.33M1227 1421L1228 1422L1227 1421z"/>
<path style="fill:#ffffff; stroke:none;" d="M1280 1421L1281 1422L1280 1421z"/>
<path style="fill:#5a2012; stroke:none;" d="M1194.67 1422.33L1195.33 1422.67L1194.67 1422.33M1219 1422L1221 1427L1219 1422M1226 1422L1227 1423L1226 1422M1197.67 1423.33L1198.33 1423.67L1197.67 1423.33M1224 1423L1225 1424L1224 1423M1201.67 1424.33L1202.33 1424.67L1201.67 1424.33M1223 1424L1224 1425L1223 1424M1204 1425L1204 1426L1207 1426L1204 1425M1221 1425L1222 1426L1221 1425M1274 1425L1275 1426L1274 1425M1075 1426L1076 1427L1075 1426M1208.67 1426.33L1209.33 1426.67L1208.67 1426.33M1079 1427L1080 1428L1079 1427z"/>
<path style="fill:#ffffff; stroke:none;" d="M1082 1428L1083 1429L1082 1428z"/>
<path style="fill:#5a2012; stroke:none;" d="M1083 1428L1084 1429L1083 1428z"/>
<path style="fill:#ffffff; stroke:none;" d="M1086 1429L1087 1430L1086 1429M1269 1430L1268 1432L1269 1430z"/>
<path style="fill:#5a2012; stroke:none;" d="M1267 1431L1268 1432L1267 1431z"/>
<path style="fill:#818181; stroke:none;" d="M1266 1432L1267 1433L1266 1432z"/>
<path style="fill:#5a2012; stroke:none;" d="M1216 1433L1217 1434L1216 1433z"/>
<path style="fill:#ffffff; stroke:none;" d="M1265 1433L1266 1434L1265 1433z"/>
<path style="fill:#5a2012; stroke:none;" d="M1263 1434L1264 1435L1263 1434z"/>
<path style="fill:#818181; stroke:none;" d="M1110 1435L1111 1436L1110 1435z"/>
<path style="fill:#5a2012; stroke:none;" d="M1261 1436L1262 1437L1261 1436z"/>
<path style="fill:#ffffff; stroke:none;" d="M1262 1436L1263 1437L1262 1436z"/>
<path style="fill:#5a2012; stroke:none;" d="M1130 1440L1131 1441L1130 1440z"/>
<path style="fill:#ffffff; stroke:none;" d="M1257 1440L1258 1441L1257 1440z"/>
<path style="fill:#5a2012; stroke:none;" d="M1255 1441L1254 1443L1255 1441M1138 1442L1139 1443L1138 1442z"/>
<path style="fill:#ffffff; stroke:none;" d="M1255 1442L1256 1443L1255 1442M1145 1444L1146 1445L1145 1444z"/>
<path style="fill:#5a2012; stroke:none;" d="M1146 1444L1147 1445L1146 1444z"/>
<path style="fill:#818181; stroke:none;" d="M1252 1444L1253 1445L1252 1444z"/>
<path style="fill:#ffffff; stroke:none;" d="M1250 1446L1251 1447L1250 1446z"/>
<path style="fill:#5a2012; stroke:none;" d="M1157 1447L1158 1448L1157 1447M1248 1447L1249 1448L1248 1447z"/>
<path style="fill:#ffffff; stroke:none;" d="M1159 1448L1160 1449L1159 1448z"/>
<path style="fill:#5a2012; stroke:none;" d="M1160 1448L1161 1449L1160 1448z"/>
<path style="fill:#818181; stroke:none;" d="M1247 1448L1248 1449L1247 1448z"/>
<path style="fill:#ffffff; stroke:none;" d="M1163 1449L1164 1450L1163 1449M1246 1449L1247 1450L1246 1449z"/>
<path style="fill:#5a2012; stroke:none;" d="M1243 1451L1242 1453L1243 1451z"/>
<path style="fill:#ffffff; stroke:none;" d="M1244 1451L1245 1452L1244 1451M1175 1452L1176 1453L1175 1452M1243 1452L1244 1453L1243 1452M1242 1453L1243 1454L1242 1453z"/>
<path style="fill:#818181; stroke:none;" d="M1191 1456L1192 1457L1191 1456z"/>
<path style="fill:#5a2012; stroke:none;" d="M1236 1457L1237 1458L1236 1457z"/>
<path style="fill:#ffffff; stroke:none;" d="M1236 1458L1237 1459L1236 1458z"/>
<path style="fill:#5a2012; stroke:none;" d="M1231 1461L1232 1462L1231 1461z"/>
<path style="fill:#ffffff; stroke:none;" d="M1232 1461L1233 1462L1232 1461z"/>
<path style="fill:#5a2012; stroke:none;" d="M1215 1462L1216 1463L1215 1462M1223 1464L1224 1465L1223 1464z"/>
</svg>
