<svg id="svg" version="1.1" xmlns="http://www.w3.org/2000/svg" xmlns:xlink="http://www.w3.org/1999/xlink" width="400" height="400" viewBox="0, 0, 400,400"><g id="svgg"><path id="path0" d="M177.300 99.819 C 153.539 110.201,142.483 115.063,142.342 115.192 C 142.255 115.271,143.020 115.477,144.042 115.651 C 145.064 115.824,151.480 116.917,158.300 118.080 C 173.774 120.719,204.674 125.800,205.247 125.800 C 205.634 125.800,244.271 106.404,244.142 106.275 C 244.084 106.218,185.462 96.396,185.231 96.405 C 185.159 96.408,181.590 97.944,177.300 99.819 M225.500 116.842 L 205.900 126.620 205.953 147.760 C 205.983 159.387,206.063 175.620,206.131 183.834 L 206.256 198.768 207.778 197.821 C 219.019 190.827,228.767 184.788,236.300 180.150 L 245.500 174.486 245.419 149.493 C 245.374 135.747,245.284 120.577,245.219 115.782 L 245.100 107.063 225.500 116.842 M140.874 121.827 C 140.948 124.947,141.232 137.175,141.505 149.000 C 142.137 176.365,142.387 186.255,142.450 186.310 C 142.477 186.335,146.370 187.136,151.100 188.091 C 155.830 189.046,169.914 191.891,182.398 194.414 C 194.881 196.936,205.134 199.000,205.181 199.000 C 205.300 199.000,205.019 126.953,204.900 126.833 C 204.767 126.701,197.617 125.506,167.600 120.599 C 153.465 118.288,141.639 116.343,141.320 116.276 L 140.739 116.155 140.874 121.827 M141.071 167.100 C 141.070 168.090,141.104 168.520,141.146 168.056 C 141.188 167.592,141.189 166.782,141.147 166.256 C 141.106 165.730,141.072 166.110,141.071 167.100 M141.271 175.900 C 141.270 176.890,141.304 177.320,141.346 176.856 C 141.388 176.392,141.389 175.582,141.347 175.056 C 141.306 174.530,141.272 174.910,141.271 175.900 M141.466 184.100 C 141.467 184.870,141.503 185.160,141.546 184.746 C 141.589 184.331,141.589 183.701,141.544 183.346 C 141.500 182.990,141.465 183.330,141.466 184.100 M141.600 186.979 C 141.600 187.079,141.290 187.710,140.911 188.380 C 140.232 189.582,140.229 189.599,140.661 189.698 C 140.903 189.753,146.545 190.836,153.200 192.106 C 159.855 193.375,167.009 194.740,169.098 195.139 L 172.895 195.864 174.553 194.984 C 175.995 194.218,176.151 194.085,175.755 193.958 C 175.505 193.878,167.875 192.326,158.800 190.509 C 149.725 188.692,142.143 187.114,141.950 187.001 C 141.755 186.887,141.600 186.878,141.600 186.979 M106.257 188.100 C 106.259 188.650,106.298 188.851,106.344 188.547 C 106.389 188.243,106.388 187.793,106.341 187.547 C 106.293 187.301,106.256 187.550,106.257 188.100 M106.454 192.000 C 106.454 192.495,106.493 192.697,106.541 192.450 C 106.589 192.203,106.589 191.798,106.541 191.550 C 106.493 191.303,106.454 191.505,106.454 192.000 M106.657 195.900 C 106.659 196.450,106.698 196.651,106.744 196.347 C 106.789 196.043,106.788 195.593,106.741 195.347 C 106.693 195.101,106.656 195.350,106.657 195.900 M173.467 199.000 C 173.467 199.825,173.503 200.163,173.546 199.750 C 173.589 199.338,173.589 198.663,173.546 198.250 C 173.503 197.838,173.467 198.175,173.467 199.000 M106.857 199.900 C 106.859 200.450,106.898 200.651,106.944 200.347 C 106.989 200.043,106.988 199.593,106.941 199.347 C 106.893 199.101,106.856 199.350,106.857 199.900 M172.667 202.800 C 172.667 203.625,172.703 203.963,172.746 203.550 C 172.789 203.138,172.789 202.463,172.746 202.050 C 172.703 201.638,172.667 201.975,172.667 202.800 M107.057 203.700 C 107.059 204.250,107.098 204.451,107.144 204.147 C 107.189 203.843,107.188 203.393,107.141 203.147 C 107.093 202.901,107.056 203.150,107.057 203.700 M173.667 205.800 C 173.667 206.625,173.703 206.963,173.746 206.550 C 173.789 206.138,173.789 205.463,173.746 205.050 C 173.703 204.638,173.667 204.975,173.667 205.800 M178.680 208.700 C 178.680 210.350,178.711 210.998,178.749 210.141 C 178.786 209.283,178.786 207.933,178.748 207.141 C 178.710 206.348,178.680 207.050,178.680 208.700 M107.254 207.600 C 107.254 208.095,107.293 208.298,107.341 208.050 C 107.389 207.803,107.389 207.398,107.341 207.150 C 107.293 206.903,107.254 207.105,107.254 207.600 M172.867 209.800 C 172.867 210.625,172.903 210.963,172.946 210.550 C 172.989 210.138,172.989 209.463,172.946 209.050 C 172.903 208.638,172.867 208.975,172.867 209.800 M107.457 211.500 C 107.459 212.050,107.498 212.251,107.544 211.947 C 107.589 211.643,107.588 211.193,107.541 210.947 C 107.493 210.701,107.456 210.950,107.457 211.500 M173.869 212.700 C 173.869 213.580,173.904 213.915,173.947 213.445 C 173.989 212.974,173.988 212.254,173.945 211.845 C 173.902 211.435,173.868 211.820,173.869 212.700 M107.654 215.400 C 107.654 215.895,107.693 216.097,107.741 215.850 C 107.789 215.603,107.789 215.197,107.741 214.950 C 107.693 214.703,107.654 214.905,107.654 215.400 M173.067 216.800 C 173.067 217.625,173.103 217.963,173.146 217.550 C 173.189 217.138,173.189 216.463,173.146 216.050 C 173.103 215.638,173.067 215.975,173.067 216.800 M174.069 219.500 C 174.069 220.380,174.104 220.715,174.147 220.245 C 174.189 219.774,174.188 219.054,174.145 218.645 C 174.102 218.235,174.068 218.620,174.069 219.500 M107.857 219.300 C 107.859 219.850,107.898 220.051,107.944 219.747 C 107.989 219.443,107.988 218.993,107.941 218.747 C 107.893 218.501,107.856 218.750,107.857 219.300 M108.057 223.100 C 108.059 223.650,108.098 223.851,108.144 223.547 C 108.189 223.243,108.188 222.793,108.141 222.547 C 108.093 222.301,108.056 222.550,108.057 223.100 M178.879 225.100 C 178.879 226.640,178.911 227.244,178.949 226.441 C 178.987 225.639,178.986 224.379,178.948 223.641 C 178.910 222.904,178.879 223.560,178.879 225.100 M173.266 223.900 C 173.267 224.670,173.303 224.960,173.346 224.546 C 173.389 224.131,173.389 223.501,173.344 223.146 C 173.300 222.790,173.265 223.130,173.266 223.900 M174.269 226.300 C 174.269 227.180,174.304 227.515,174.347 227.045 C 174.389 226.574,174.388 225.854,174.345 225.445 C 174.302 225.035,174.268 225.420,174.269 226.300 M108.257 226.900 C 108.259 227.450,108.298 227.651,108.344 227.347 C 108.389 227.043,108.388 226.593,108.341 226.347 C 108.293 226.101,108.256 226.350,108.257 226.900 M173.464 231.000 C 173.464 231.715,173.500 232.007,173.545 231.650 C 173.589 231.293,173.589 230.707,173.545 230.350 C 173.500 229.993,173.464 230.285,173.464 231.000 M108.457 230.900 C 108.459 231.450,108.498 231.651,108.544 231.347 C 108.589 231.043,108.588 230.593,108.541 230.347 C 108.493 230.101,108.456 230.350,108.457 230.900 M174.469 233.100 C 174.469 233.980,174.504 234.315,174.547 233.845 C 174.589 233.374,174.588 232.654,174.545 232.245 C 174.502 231.835,174.468 232.220,174.469 233.100 M108.657 234.700 C 108.659 235.250,108.698 235.451,108.744 235.147 C 108.789 234.843,108.788 234.393,108.741 234.147 C 108.693 233.901,108.656 234.150,108.657 234.700 M173.666 237.900 C 173.667 238.670,173.703 238.960,173.746 238.546 C 173.789 238.131,173.789 237.501,173.744 237.146 C 173.700 236.790,173.665 237.130,173.666 237.900 M108.857 238.700 C 108.859 239.250,108.898 239.451,108.944 239.147 C 108.989 238.843,108.988 238.393,108.941 238.147 C 108.893 237.901,108.856 238.150,108.857 238.700 M174.670 240.000 C 174.670 240.935,174.704 241.318,174.746 240.850 C 174.789 240.382,174.789 239.618,174.746 239.150 C 174.704 238.683,174.670 239.065,174.670 240.000 M179.076 241.100 C 179.077 242.420,179.109 242.934,179.148 242.242 C 179.187 241.550,179.187 240.470,179.148 239.842 C 179.108 239.214,179.076 239.780,179.076 241.100 M109.057 242.500 C 109.059 243.050,109.098 243.251,109.144 242.947 C 109.189 242.643,109.188 242.193,109.141 241.947 C 109.093 241.701,109.056 241.950,109.057 242.500 M173.864 245.000 C 173.864 245.715,173.900 246.007,173.945 245.650 C 173.989 245.293,173.989 244.707,173.945 244.350 C 173.900 243.993,173.864 244.285,173.864 245.000 M174.870 246.800 C 174.870 247.735,174.904 248.118,174.946 247.650 C 174.989 247.183,174.989 246.418,174.946 245.950 C 174.904 245.482,174.870 245.865,174.870 246.800 M109.260 246.400 C 109.260 247.005,109.297 247.253,109.343 246.950 C 109.389 246.648,109.389 246.153,109.343 245.850 C 109.297 245.548,109.260 245.795,109.260 246.400 M109.457 250.500 C 109.459 251.050,109.498 251.251,109.544 250.947 C 109.589 250.643,109.588 250.193,109.541 249.947 C 109.493 249.701,109.456 249.950,109.457 250.500 M174.062 251.900 C 174.063 252.560,174.100 252.806,174.145 252.446 C 174.189 252.087,174.189 251.547,174.143 251.246 C 174.097 250.946,174.061 251.240,174.062 251.900 M175.070 253.600 C 175.070 254.535,175.104 254.918,175.146 254.450 C 175.189 253.982,175.189 253.218,175.146 252.750 C 175.104 252.282,175.070 252.665,175.070 253.600 M108.450 253.913 C 108.313 254.062,108.200 254.325,108.200 254.498 C 108.200 254.671,108.065 254.864,107.900 254.928 C 107.735 254.991,107.600 255.162,107.600 255.307 C 107.600 255.452,107.488 255.690,107.350 255.836 C 106.406 256.834,106.481 257.589,107.525 257.597 C 107.759 257.599,108.314 257.728,108.759 257.885 C 109.204 258.042,109.823 258.218,110.134 258.276 C 110.445 258.334,111.420 258.574,112.300 258.810 C 113.180 259.046,114.035 259.269,114.200 259.306 C 114.365 259.344,115.220 259.562,116.100 259.792 C 116.980 260.022,117.880 260.249,118.100 260.297 C 118.320 260.345,119.155 260.559,119.955 260.773 C 120.755 260.987,121.475 261.175,121.555 261.190 C 122.087 261.291,122.871 261.490,124.000 261.811 C 124.715 262.014,125.525 262.226,125.800 262.282 C 126.384 262.401,129.007 263.092,129.954 263.377 C 130.313 263.486,130.673 263.591,130.754 263.613 C 130.834 263.634,130.990 263.681,131.100 263.719 C 131.311 263.790,136.687 265.122,137.453 265.293 C 139.296 265.704,140.762 266.075,141.100 266.216 C 141.447 266.360,143.270 266.830,144.500 267.091 C 145.240 267.248,151.294 268.808,151.900 268.998 C 152.230 269.101,152.725 269.232,153.000 269.289 C 154.070 269.511,156.591 270.171,156.755 270.272 C 156.850 270.331,157.147 270.428,157.414 270.487 C 157.681 270.547,158.260 270.684,158.700 270.791 C 159.140 270.899,160.040 271.119,160.700 271.280 C 161.360 271.441,162.215 271.665,162.600 271.778 C 162.985 271.890,163.525 272.028,163.800 272.085 C 164.708 272.270,166.884 272.819,167.873 273.112 C 169.067 273.465,169.493 273.474,169.837 273.150 C 169.983 273.012,170.642 272.450,171.301 271.900 C 171.960 271.350,172.747 270.632,173.050 270.305 C 173.352 269.978,173.601 269.798,173.603 269.905 C 173.605 270.027,173.661 270.025,173.753 269.900 C 173.834 269.790,174.341 269.346,174.879 268.913 C 175.418 268.480,176.205 267.775,176.629 267.347 C 177.053 266.919,177.400 266.620,177.400 266.683 C 177.400 266.805,178.182 266.183,178.939 265.459 C 179.522 264.901,179.640 263.356,179.063 263.826 C 178.878 263.976,177.911 264.797,176.913 265.649 C 175.916 266.501,174.947 267.198,174.760 267.199 C 174.462 267.200,165.277 265.354,145.900 261.400 C 142.710 260.749,137.175 259.622,133.600 258.897 C 130.025 258.171,124.940 257.136,122.300 256.597 C 119.660 256.058,115.655 255.243,113.400 254.786 C 111.145 254.330,109.165 253.885,109.000 253.799 C 108.821 253.706,108.599 253.751,108.450 253.913 M179.276 257.500 C 179.277 258.820,179.309 259.334,179.348 258.642 C 179.387 257.950,179.387 256.870,179.348 256.242 C 179.308 255.614,179.276 256.180,179.276 257.500 M281.396 261.427 C 277.933 263.751,267.977 270.414,259.272 276.232 L 243.444 286.812 227.572 282.419 C 218.842 280.003,205.130 276.216,197.100 274.003 C 179.158 269.059,179.749 269.230,179.475 268.881 C 179.287 268.639,179.198 268.674,178.921 269.096 C 178.739 269.373,178.639 269.600,178.697 269.600 C 178.755 269.600,178.477 270.063,178.079 270.629 C 177.682 271.195,177.337 271.788,177.314 271.945 C 177.291 272.103,177.184 272.292,177.076 272.366 C 176.784 272.566,175.580 274.600,175.752 274.603 C 175.833 274.605,175.768 274.690,175.606 274.792 C 175.241 275.023,175.289 275.043,177.500 275.585 C 178.380 275.801,179.575 276.110,180.154 276.272 C 180.734 276.434,181.251 276.576,181.302 276.589 C 181.354 276.601,181.509 276.645,181.648 276.686 C 182.166 276.840,183.717 277.217,184.183 277.302 C 184.448 277.350,185.078 277.524,185.583 277.688 C 186.087 277.852,186.754 278.029,187.065 278.083 C 187.376 278.136,187.916 278.271,188.265 278.382 C 188.614 278.494,189.125 278.624,189.400 278.672 C 189.675 278.719,190.395 278.899,191.000 279.072 C 191.605 279.245,192.325 279.428,192.600 279.478 C 193.126 279.575,196.400 280.423,198.100 280.904 C 198.650 281.059,199.325 281.229,199.600 281.281 C 199.875 281.333,201.135 281.654,202.400 281.995 C 203.665 282.335,205.015 282.668,205.400 282.735 C 205.785 282.801,206.190 282.925,206.300 283.010 C 206.478 283.147,207.242 283.329,208.244 283.472 C 208.434 283.500,208.651 283.584,208.728 283.661 C 208.804 283.737,209.065 283.800,209.308 283.800 C 209.551 283.800,210.114 283.928,210.559 284.085 C 211.004 284.242,211.623 284.413,211.934 284.465 C 212.245 284.517,213.153 284.743,213.950 284.967 C 214.748 285.191,215.400 285.324,215.400 285.263 C 215.400 285.201,215.513 285.240,215.650 285.349 C 215.858 285.514,216.847 285.785,217.700 285.909 C 217.810 285.925,218.035 285.990,218.200 286.053 C 218.365 286.116,218.725 286.213,219.000 286.268 C 219.275 286.323,219.995 286.506,220.600 286.674 C 221.205 286.842,221.925 287.026,222.200 287.082 C 222.915 287.227,225.790 287.973,226.500 288.196 C 226.830 288.300,227.325 288.428,227.600 288.480 C 227.875 288.533,228.640 288.724,229.300 288.906 C 229.960 289.087,230.635 289.266,230.800 289.303 C 230.965 289.339,231.100 289.383,231.100 289.400 C 231.100 289.417,231.235 289.462,231.400 289.501 C 231.565 289.540,232.420 289.765,233.300 290.001 C 234.180 290.238,235.125 290.470,235.400 290.518 C 236.119 290.642,241.260 291.960,242.841 292.427 C 245.225 293.130,245.437 293.127,246.239 292.370 C 246.630 292.002,246.995 291.700,247.050 291.700 C 247.105 291.700,247.679 291.238,248.325 290.673 C 248.971 290.108,249.815 289.388,250.200 289.073 C 250.585 288.758,251.080 288.333,251.300 288.129 C 251.520 287.925,251.902 287.623,252.148 287.457 C 252.395 287.292,252.538 287.054,252.466 286.928 C 252.395 286.803,252.408 286.765,252.496 286.845 C 252.661 286.994,254.192 285.815,255.350 284.648 C 255.707 284.287,256.000 284.038,256.000 284.093 C 256.000 284.223,257.109 283.258,257.773 282.550 C 258.057 282.248,258.365 282.000,258.459 282.000 C 258.552 282.000,258.747 281.887,258.891 281.750 C 259.035 281.613,259.501 281.213,259.927 280.861 C 260.352 280.510,260.970 279.982,261.300 279.688 C 261.630 279.395,262.102 279.020,262.348 278.855 C 262.595 278.691,262.747 278.476,262.686 278.378 C 262.626 278.280,262.703 278.200,262.858 278.200 C 263.012 278.200,263.355 278.013,263.619 277.785 C 263.884 277.556,264.587 276.949,265.182 276.435 C 265.778 275.921,266.430 275.343,266.632 275.150 C 266.835 274.957,267.083 274.800,267.185 274.800 C 267.288 274.800,267.535 274.594,267.735 274.341 C 267.936 274.089,268.617 273.494,269.248 273.019 C 269.914 272.518,270.341 272.060,270.266 271.928 C 270.194 271.802,270.205 271.762,270.289 271.838 C 270.443 271.976,270.640 271.851,271.460 271.093 C 271.702 270.869,272.350 270.328,272.900 269.890 C 274.575 268.558,274.834 268.333,275.768 267.400 C 276.263 266.905,276.730 266.518,276.805 266.541 C 276.881 266.563,277.361 266.192,277.872 265.716 C 278.382 265.241,278.800 264.906,278.800 264.971 C 278.800 265.037,279.219 264.643,279.730 264.096 C 280.242 263.548,280.593 263.235,280.510 263.400 C 280.428 263.565,280.639 263.395,280.980 263.023 C 281.321 262.650,281.600 262.402,281.600 262.471 C 281.600 262.601,282.056 262.250,282.989 261.400 C 283.291 261.125,283.932 260.585,284.414 260.200 C 284.896 259.815,285.540 259.232,285.845 258.905 C 286.150 258.578,286.400 258.380,286.400 258.465 C 286.400 258.549,286.613 258.412,286.873 258.159 C 287.134 257.907,287.516 257.593,287.723 257.462 C 287.931 257.331,288.008 257.218,287.896 257.212 C 287.783 257.205,284.858 259.102,281.396 261.427 M174.262 258.700 C 174.263 259.360,174.300 259.606,174.345 259.246 C 174.389 258.887,174.389 258.347,174.343 258.046 C 174.297 257.746,174.261 258.040,174.262 258.700 M175.270 260.400 C 175.270 261.335,175.304 261.718,175.346 261.250 C 175.389 260.782,175.389 260.018,175.346 259.550 C 175.304 259.082,175.270 259.465,175.270 260.400 M174.369 265.400 C 174.331 265.950,174.368 266.400,174.450 266.400 C 174.533 266.400,174.600 265.950,174.600 265.400 C 174.600 264.110,174.459 264.110,174.369 265.400 " stroke="none" fill="#1d2f94" fill-rule="evenodd"></path><path id="path1" d="M241.950 107.412 C 240.657 108.067,239.600 108.648,239.600 108.703 C 239.600 108.758,240.680 108.262,242.000 107.600 C 243.320 106.938,244.400 106.353,244.400 106.298 C 244.400 106.162,244.550 106.094,241.950 107.412 M246.087 111.400 C 246.087 114.205,246.115 115.353,246.149 113.950 C 246.184 112.547,246.184 110.253,246.149 108.850 C 246.115 107.447,246.087 108.595,246.087 111.400 M245.290 114.200 C 245.290 118.215,245.317 119.858,245.350 117.850 C 245.382 115.843,245.382 112.558,245.350 110.550 C 245.317 108.543,245.290 110.185,245.290 114.200 M141.824 115.181 C 141.602 115.321,141.622 115.378,141.924 115.465 C 142.641 115.673,145.411 116.056,145.506 115.961 C 145.559 115.908,144.837 115.751,143.902 115.612 C 142.967 115.473,142.252 115.278,142.313 115.179 C 142.453 114.952,142.184 114.953,141.824 115.181 M140.866 124.100 C 140.867 124.870,140.903 125.160,140.946 124.746 C 140.989 124.331,140.989 123.701,140.944 123.346 C 140.900 122.990,140.865 123.330,140.866 124.100 M141.064 133.000 C 141.064 133.715,141.100 134.008,141.145 133.650 C 141.189 133.292,141.189 132.708,141.145 132.350 C 141.100 131.993,141.064 132.285,141.064 133.000 M205.093 141.800 C 205.093 147.245,205.118 149.472,205.150 146.750 C 205.181 144.028,205.181 139.572,205.150 136.850 C 205.118 134.128,205.093 136.355,205.093 141.800 M205.890 141.200 C 205.890 144.995,205.917 146.547,205.950 144.650 C 205.983 142.753,205.983 139.648,205.950 137.750 C 205.917 135.853,205.890 137.405,205.890 141.200 M141.264 141.400 C 141.264 142.115,141.300 142.407,141.345 142.050 C 141.389 141.692,141.389 141.108,141.345 140.750 C 141.300 140.393,141.264 140.685,141.264 141.400 M141.464 150.200 C 141.464 150.915,141.500 151.208,141.545 150.850 C 141.589 150.493,141.589 149.907,141.545 149.550 C 141.500 149.192,141.464 149.485,141.464 150.200 M245.489 159.600 C 245.489 162.955,245.516 164.328,245.550 162.650 C 245.583 160.972,245.583 158.228,245.550 156.550 C 245.516 154.873,245.489 156.245,245.489 159.600 M141.664 158.800 C 141.664 159.515,141.700 159.808,141.745 159.450 C 141.789 159.093,141.789 158.508,141.745 158.150 C 141.700 157.793,141.664 158.085,141.664 158.800 M141.050 164.700 C 141.053 165.140,141.094 165.296,141.141 165.048 C 141.189 164.799,141.187 164.439,141.137 164.248 C 141.087 164.056,141.048 164.260,141.050 164.700 M141.864 167.200 C 141.864 167.915,141.900 168.208,141.945 167.850 C 141.989 167.493,141.989 166.908,141.945 166.550 C 141.900 166.192,141.864 166.485,141.864 167.200 M141.250 173.500 C 141.253 173.940,141.294 174.096,141.341 173.848 C 141.389 173.599,141.387 173.239,141.337 173.048 C 141.287 172.856,141.248 173.060,141.250 173.500 M142.067 175.600 C 142.067 176.425,142.103 176.763,142.146 176.350 C 142.189 175.938,142.189 175.263,142.146 174.850 C 142.103 174.438,142.067 174.775,142.067 175.600 M228.800 185.819 C 223.135 189.335,215.653 193.968,212.173 196.114 L 205.845 200.016 195.393 197.908 C 183.214 195.452,184.639 195.591,182.282 196.629 C 180.191 197.549,180.062 197.693,181.150 197.894 C 181.878 198.028,190.932 200.005,225.946 207.676 L 242.792 211.367 249.846 207.962 C 253.726 206.090,263.740 201.275,272.100 197.262 C 288.491 189.394,287.907 189.696,287.070 189.523 C 286.756 189.458,277.230 187.417,265.900 184.987 C 241.325 179.716,239.808 179.396,239.409 179.412 C 239.239 179.419,234.465 182.302,228.800 185.819 M141.454 182.000 C 141.454 182.495,141.493 182.697,141.541 182.450 C 141.589 182.203,141.589 181.798,141.541 181.550 C 141.493 181.303,141.454 181.505,141.454 182.000 M206.091 190.700 C 206.091 195.210,206.118 197.084,206.150 194.863 C 206.182 192.643,206.182 188.953,206.150 186.663 C 206.118 184.374,206.091 186.190,206.091 190.700 M142.270 184.600 C 142.270 185.535,142.304 185.918,142.346 185.450 C 142.389 184.983,142.389 184.218,142.346 183.750 C 142.304 183.283,142.270 183.665,142.270 184.600 M105.246 185.600 C 105.246 185.985,105.288 186.143,105.338 185.950 C 105.388 185.758,105.388 185.442,105.338 185.250 C 105.288 185.058,105.246 185.215,105.246 185.600 M271.197 198.616 C 261.794 203.135,251.625 208.006,248.600 209.442 C 245.575 210.878,243.074 212.075,243.041 212.102 C 243.009 212.129,243.127 221.140,243.305 232.126 C 243.482 243.111,243.734 259.580,243.864 268.721 L 244.100 285.343 265.700 270.864 L 287.300 256.385 287.347 253.043 C 287.443 246.290,288.394 199.161,288.521 194.850 C 288.598 192.265,288.578 190.400,288.474 190.400 C 288.375 190.400,280.601 194.097,271.197 198.616 M160.100 194.400 C 160.430 194.484,160.925 194.553,161.200 194.553 C 161.646 194.553,161.635 194.536,161.100 194.400 C 160.770 194.316,160.275 194.247,160.000 194.247 C 159.554 194.247,159.565 194.264,160.100 194.400 M167.500 195.800 C 167.830 195.884,168.325 195.953,168.600 195.953 C 169.046 195.953,169.035 195.936,168.500 195.800 C 168.170 195.716,167.675 195.647,167.400 195.647 C 166.954 195.647,166.965 195.664,167.500 195.800 M171.217 196.471 C 171.263 196.510,171.615 196.600,172.000 196.671 C 172.492 196.761,172.611 196.741,172.400 196.603 C 172.129 196.425,171.018 196.302,171.217 196.471 M179.479 205.150 C 179.549 208.863,179.748 224.590,179.922 240.100 C 180.095 255.610,180.297 268.355,180.369 268.422 C 180.441 268.489,182.075 268.969,184.000 269.489 C 185.925 270.009,199.785 273.816,214.800 277.950 C 229.815 282.084,242.395 285.507,242.756 285.556 L 243.411 285.645 243.301 282.673 C 243.240 281.038,243.055 270.475,242.890 259.200 C 242.725 247.925,242.503 233.075,242.397 226.200 C 242.290 219.325,242.202 213.325,242.201 212.866 C 242.200 212.117,242.144 212.020,241.650 211.919 C 240.568 211.698,188.808 200.403,184.332 199.412 C 181.820 198.855,179.672 198.400,179.558 198.400 C 179.418 198.400,179.393 200.568,179.479 205.150 M172.654 200.600 C 172.654 201.095,172.693 201.298,172.741 201.050 C 172.789 200.803,172.789 200.398,172.741 200.150 C 172.693 199.903,172.654 200.105,172.654 200.600 M173.460 201.400 C 173.460 202.005,173.497 202.253,173.543 201.950 C 173.589 201.648,173.589 201.153,173.543 200.850 C 173.497 200.548,173.460 200.795,173.460 201.400 M178.678 203.300 C 178.678 204.730,178.710 205.289,178.748 204.542 C 178.787 203.795,178.787 202.625,178.748 201.942 C 178.709 201.259,178.677 201.870,178.678 203.300 M172.850 207.700 C 172.853 208.140,172.894 208.296,172.941 208.048 C 172.989 207.799,172.987 207.439,172.937 207.248 C 172.887 207.056,172.848 207.260,172.850 207.700 M173.660 208.200 C 173.660 208.805,173.697 209.053,173.743 208.750 C 173.789 208.447,173.789 207.953,173.743 207.650 C 173.697 207.347,173.660 207.595,173.660 208.200 M173.054 214.600 C 173.054 215.095,173.093 215.298,173.141 215.050 C 173.189 214.803,173.189 214.398,173.141 214.150 C 173.093 213.903,173.054 214.105,173.054 214.600 M173.857 215.100 C 173.859 215.650,173.898 215.851,173.944 215.547 C 173.989 215.243,173.988 214.793,173.941 214.547 C 173.893 214.301,173.856 214.550,173.857 215.100 M178.874 220.400 C 178.874 221.555,178.907 222.028,178.947 221.450 C 178.988 220.873,178.988 219.928,178.947 219.350 C 178.907 218.773,178.874 219.245,178.874 220.400 M173.257 221.700 C 173.259 222.250,173.298 222.451,173.344 222.147 C 173.389 221.843,173.388 221.393,173.341 221.147 C 173.293 220.901,173.256 221.150,173.257 221.700 M174.057 221.900 C 174.059 222.450,174.098 222.651,174.144 222.347 C 174.189 222.043,174.188 221.593,174.141 221.347 C 174.093 221.101,174.056 221.350,174.057 221.900 M107.246 224.800 C 107.246 225.185,107.288 225.343,107.338 225.150 C 107.388 224.957,107.388 224.643,107.338 224.450 C 107.288 224.257,107.246 224.415,107.246 224.800 M174.257 228.700 C 174.259 229.250,174.298 229.451,174.344 229.147 C 174.389 228.843,174.388 228.393,174.341 228.147 C 174.293 227.901,174.256 228.150,174.257 228.700 M173.457 228.900 C 173.459 229.450,173.498 229.651,173.544 229.347 C 173.589 229.043,173.588 228.593,173.541 228.347 C 173.493 228.101,173.456 228.350,173.457 228.900 M174.457 235.500 C 174.459 236.050,174.498 236.251,174.544 235.947 C 174.589 235.643,174.588 235.193,174.541 234.947 C 174.493 234.701,174.456 234.950,174.457 235.500 M173.654 235.800 C 173.654 236.295,173.693 236.498,173.741 236.250 C 173.789 236.003,173.789 235.597,173.741 235.350 C 173.693 235.103,173.654 235.305,173.654 235.800 M179.072 237.000 C 179.072 238.045,179.106 238.472,179.147 237.950 C 179.188 237.428,179.188 236.572,179.147 236.050 C 179.106 235.528,179.072 235.955,179.072 237.000 M174.657 242.500 C 174.659 243.050,174.698 243.251,174.744 242.947 C 174.789 242.643,174.788 242.193,174.741 241.947 C 174.693 241.701,174.656 241.950,174.657 242.500 M173.857 242.900 C 173.859 243.450,173.898 243.651,173.944 243.347 C 173.989 243.043,173.988 242.593,173.941 242.347 C 173.893 242.101,173.856 242.350,173.857 242.900 M174.860 249.400 C 174.860 250.005,174.897 250.253,174.943 249.950 C 174.989 249.648,174.989 249.153,174.943 248.850 C 174.897 248.548,174.860 248.795,174.860 249.400 M174.057 249.900 C 174.059 250.450,174.098 250.651,174.144 250.347 C 174.189 250.043,174.188 249.593,174.141 249.347 C 174.093 249.101,174.056 249.350,174.057 249.900 M109.446 252.000 C 109.446 252.385,109.488 252.543,109.538 252.350 C 109.588 252.157,109.588 251.843,109.538 251.650 C 109.488 251.457,109.446 251.615,109.446 252.000 M179.271 253.500 C 179.270 254.490,179.304 254.920,179.346 254.456 C 179.388 253.992,179.389 253.182,179.347 252.656 C 179.306 252.130,179.272 252.510,179.271 253.500 M175.060 256.200 C 175.060 256.805,175.097 257.053,175.143 256.750 C 175.189 256.447,175.189 255.953,175.143 255.650 C 175.097 255.347,175.060 255.595,175.060 256.200 M174.254 256.800 C 174.254 257.295,174.293 257.498,174.341 257.250 C 174.389 257.002,174.389 256.598,174.341 256.350 C 174.293 256.103,174.254 256.305,174.254 256.800 M287.200 257.418 C 286.868 257.690,286.834 257.757,287.100 257.620 C 287.752 257.283,288.114 257.006,287.900 257.008 C 287.790 257.008,287.475 257.193,287.200 257.418 M175.262 263.100 C 175.263 263.760,175.300 264.006,175.345 263.646 C 175.389 263.287,175.389 262.747,175.343 262.446 C 175.297 262.146,175.261 262.440,175.262 263.100 M174.454 263.600 C 174.454 264.095,174.493 264.298,174.541 264.050 C 174.589 263.803,174.589 263.397,174.541 263.150 C 174.493 262.903,174.454 263.105,174.454 263.600 M243.500 286.507 C 243.170 286.658,243.040 286.786,243.212 286.791 C 243.383 286.796,243.698 286.668,243.912 286.506 C 244.386 286.148,244.285 286.148,243.500 286.507 " stroke="none" fill="#e1421f" fill-rule="evenodd"></path><path id="path2" d="M140.934 169.200 C 140.987 172.445,141.104 177.798,141.195 181.095 L 141.360 187.090 140.787 188.226 C 140.471 188.851,140.118 189.409,140.002 189.466 C 139.885 189.523,139.905 189.547,140.045 189.519 C 140.185 189.490,140.582 188.966,140.927 188.352 L 141.555 187.238 141.369 179.669 C 141.267 175.506,141.106 170.120,141.011 167.700 C 140.842 163.382,140.840 163.410,140.934 169.200 M123.350 173.714 C 122.602 174.120,122.648 174.289,123.400 173.900 C 123.730 173.729,124.000 173.547,124.000 173.495 C 124.000 173.366,123.979 173.373,123.350 173.714 M116.550 177.714 C 115.802 178.120,115.848 178.289,116.600 177.900 C 116.930 177.729,117.200 177.547,117.200 177.495 C 117.200 177.366,117.179 177.373,116.550 177.714 M113.150 179.714 C 112.402 180.120,112.448 180.289,113.200 179.900 C 113.530 179.729,113.800 179.547,113.800 179.495 C 113.800 179.366,113.779 179.373,113.150 179.714 M110.750 181.114 C 110.002 181.520,110.048 181.689,110.800 181.300 C 111.130 181.129,111.400 180.947,111.400 180.895 C 111.400 180.766,111.379 180.773,110.750 181.114 M108.350 182.514 C 107.602 182.920,107.648 183.089,108.400 182.700 C 108.730 182.529,109.000 182.347,109.000 182.295 C 109.000 182.166,108.979 182.173,108.350 182.514 M106.201 184.874 C 106.202 185.218,106.651 194.185,107.199 204.800 C 107.746 215.415,108.469 229.455,108.804 236.000 C 109.140 242.545,109.478 249.066,109.557 250.491 L 109.700 253.082 112.900 253.728 C 114.660 254.084,123.390 255.861,132.300 257.679 C 157.902 262.901,174.173 266.200,174.324 266.200 C 174.482 266.200,174.480 266.150,173.396 228.600 C 172.959 213.475,172.602 200.133,172.601 198.950 C 172.600 197.768,172.542 196.800,172.471 196.800 C 172.347 196.800,108.760 184.768,107.050 184.421 L 106.200 184.248 106.201 184.874 M179.700 194.990 L 182.300 195.537 181.408 195.907 C 179.747 196.596,178.518 197.299,178.447 197.600 C 178.389 197.849,178.411 197.847,178.578 197.586 C 178.689 197.414,179.687 196.885,180.797 196.411 C 181.908 195.937,182.771 195.504,182.716 195.449 C 182.559 195.292,178.159 194.415,177.600 194.429 C 177.325 194.436,178.270 194.689,179.700 194.990 M175.200 195.559 C 173.738 196.376,173.497 196.586,173.476 197.057 C 173.454 197.546,173.461 197.552,173.538 197.112 C 173.605 196.733,174.016 196.406,175.312 195.699 C 176.241 195.193,177.000 194.739,177.000 194.690 C 177.000 194.552,177.007 194.549,175.200 195.559 M178.438 202.600 C 178.422 205.185,178.540 217.740,178.700 230.500 C 178.860 243.260,178.987 255.680,178.982 258.100 L 178.974 262.500 177.337 263.858 L 175.700 265.215 175.589 263.258 L 175.477 261.300 175.439 263.462 C 175.409 265.147,175.455 265.590,175.650 265.471 C 175.788 265.387,176.690 264.649,177.654 263.829 L 179.409 262.340 179.304 258.920 C 179.246 257.039,179.099 246.635,178.978 235.800 C 178.856 224.965,178.692 212.005,178.611 207.000 C 178.512 200.758,178.457 199.376,178.438 202.600 M173.678 201.900 C 173.678 203.330,173.710 203.889,173.748 203.142 C 173.787 202.395,173.787 201.225,173.748 200.542 C 173.709 199.859,173.677 200.470,173.678 201.900 M173.879 208.500 C 173.879 210.040,173.911 210.644,173.949 209.841 C 173.987 209.039,173.986 207.779,173.948 207.041 C 173.910 206.304,173.879 206.960,173.879 208.500 M174.079 215.300 C 174.079 216.840,174.111 217.444,174.149 216.641 C 174.187 215.839,174.186 214.579,174.148 213.841 C 174.110 213.104,174.079 213.760,174.079 215.300 M174.278 222.300 C 174.278 223.730,174.310 224.289,174.348 223.542 C 174.387 222.795,174.387 221.625,174.348 220.942 C 174.309 220.259,174.277 220.870,174.278 222.300 M174.478 229.000 C 174.478 230.485,174.510 231.093,174.548 230.350 C 174.587 229.607,174.587 228.393,174.548 227.650 C 174.510 226.907,174.478 227.515,174.478 229.000 M174.679 235.700 C 174.679 237.240,174.711 237.844,174.749 237.041 C 174.787 236.239,174.786 234.979,174.748 234.241 C 174.710 233.504,174.679 234.160,174.679 235.700 M174.878 242.700 C 174.878 244.130,174.910 244.689,174.948 243.942 C 174.987 243.195,174.987 242.025,174.948 241.342 C 174.909 240.659,174.877 241.270,174.878 242.700 M175.077 249.600 C 175.077 250.975,175.109 251.538,175.148 250.850 C 175.187 250.163,175.187 249.038,175.148 248.350 C 175.109 247.663,175.077 248.225,175.077 249.600 M175.276 256.500 C 175.277 257.820,175.309 258.334,175.348 257.642 C 175.387 256.950,175.387 255.870,175.348 255.242 C 175.308 254.614,175.276 255.180,175.276 256.500 " stroke="none" fill="#6d74f3" fill-rule="evenodd"></path><path id="path3" d="M131.400 169.165 C 126.285 172.182,118.828 176.570,114.830 178.916 C 108.966 182.358,107.651 183.204,108.030 183.296 C 108.288 183.358,115.385 184.712,123.800 186.303 C 132.215 187.895,139.343 189.249,139.640 189.312 C 140.135 189.418,140.229 189.331,140.766 188.264 L 141.352 187.100 141.168 179.700 C 141.066 175.630,140.920 170.361,140.842 167.990 L 140.700 163.681 131.400 169.165 M175.443 195.594 C 174.532 196.118,173.746 196.588,173.696 196.637 C 173.646 196.687,173.736 200.997,173.896 206.214 C 174.287 218.942,174.717 233.534,175.210 250.792 C 175.434 258.653,175.642 265.109,175.671 265.138 C 175.701 265.168,176.456 264.586,177.350 263.846 L 178.974 262.500 178.988 259.000 C 178.995 257.075,178.862 243.800,178.691 229.500 C 178.521 215.200,178.408 202.105,178.441 200.400 L 178.500 197.300 179.508 196.789 C 180.062 196.507,180.917 196.111,181.408 195.908 L 182.300 195.539 180.100 195.079 C 177.277 194.488,177.389 194.476,175.443 195.594 " stroke="none" fill="#848bfb" fill-rule="evenodd"></path><path id="path4" d="M177.800 98.324 C 173.895 100.031,164.670 104.040,157.300 107.235 C 143.091 113.394,139.938 114.815,139.726 115.158 C 139.654 115.275,139.727 120.935,139.888 127.736 C 140.445 151.139,140.671 162.395,140.586 162.458 C 140.539 162.493,135.415 165.481,129.200 169.099 C 122.985 172.717,115.155 177.283,111.800 179.246 C 108.445 181.209,105.565 182.889,105.400 182.978 C 105.184 183.096,105.090 183.528,105.065 184.521 C 105.045 185.279,105.090 185.696,105.165 185.446 C 105.239 185.197,105.319 186.950,105.341 189.343 C 105.364 191.736,105.454 193.718,105.541 193.747 C 105.629 193.775,105.671 194.663,105.636 195.720 C 105.600 196.777,105.647 197.594,105.740 197.537 C 105.833 197.480,105.885 198.393,105.856 199.566 C 105.822 200.898,105.867 201.550,105.976 201.300 C 106.079 201.061,106.107 201.816,106.045 203.180 C 105.982 204.547,106.014 205.415,106.125 205.347 C 106.234 205.279,106.282 206.099,106.243 207.366 C 106.204 208.637,106.249 209.397,106.354 209.245 C 106.458 209.094,106.493 209.891,106.439 211.195 C 106.390 212.408,106.428 213.401,106.524 213.402 C 106.621 213.403,106.729 215.135,106.764 217.252 C 106.799 219.368,106.889 221.122,106.964 221.150 C 107.039 221.177,107.085 222.122,107.066 223.250 C 107.046 224.496,107.092 225.065,107.183 224.700 C 107.266 224.370,107.302 225.270,107.264 226.700 C 107.225 228.193,107.266 229.137,107.362 228.917 C 107.457 228.699,107.489 229.550,107.438 230.895 C 107.387 232.232,107.424 233.209,107.524 233.147 C 107.623 233.085,107.670 233.960,107.631 235.142 C 107.591 236.380,107.637 237.200,107.745 237.134 C 107.847 237.071,107.888 237.293,107.838 237.635 C 107.700 238.573,108.428 252.069,108.630 252.325 C 108.727 252.448,108.758 252.676,108.699 252.830 C 108.449 253.482,109.095 253.795,111.900 254.384 C 113.440 254.707,128.265 257.729,144.844 261.100 L 174.987 267.228 177.194 265.297 L 179.400 263.365 179.400 264.249 C 179.400 264.735,179.341 265.192,179.269 265.264 C 178.980 265.553,179.221 268.440,179.565 268.809 C 179.886 269.153,183.875 270.273,232.924 283.784 C 238.548 285.333,243.255 286.600,243.385 286.600 C 243.592 286.600,266.228 271.529,282.353 260.656 C 285.352 258.634,287.886 257.030,287.985 257.091 C 288.356 257.320,288.383 256.354,289.210 214.200 C 289.330 208.095,289.490 199.995,289.567 196.200 C 289.661 191.493,289.639 189.230,289.497 189.080 C 289.382 188.958,287.581 188.492,285.494 188.043 C 283.407 187.594,272.835 185.330,262.000 183.012 C 251.165 180.694,242.051 178.730,241.746 178.649 C 241.225 178.509,241.341 178.406,243.671 176.951 C 245.034 176.098,246.262 175.267,246.398 175.102 C 246.595 174.865,246.611 167.856,246.473 141.152 C 246.378 122.643,246.252 109.525,246.194 112.000 L 246.088 116.500 246.044 111.438 C 246.015 108.104,246.068 106.419,246.200 106.500 C 246.313 106.570,246.400 106.406,246.400 106.124 C 246.400 105.849,246.322 105.575,246.226 105.516 C 246.102 105.440,193.274 96.568,185.500 95.318 C 185.036 95.243,183.287 95.926,177.800 98.324 M214.478 101.212 C 230.330 103.858,243.570 106.092,243.900 106.176 C 244.439 106.313,242.518 107.323,224.933 116.142 L 205.366 125.955 180.033 121.767 C 166.100 119.464,151.910 117.130,148.500 116.579 C 145.090 116.028,142.139 115.515,141.943 115.438 C 141.687 115.337,142.485 114.913,144.743 113.948 C 146.479 113.206,156.225 108.959,166.400 104.512 C 176.575 100.064,185.070 96.419,185.278 96.412 C 185.486 96.405,198.626 98.565,214.478 101.212 M245.400 125.050 C 245.400 134.978,245.456 150.165,245.523 158.800 L 245.646 174.500 238.173 179.084 C 234.063 181.606,225.285 187.028,218.668 191.134 C 212.050 195.240,206.493 198.654,206.318 198.721 C 206.029 198.832,206.000 197.029,206.000 178.771 C 206.000 167.732,205.940 151.485,205.867 142.667 L 205.734 126.633 225.317 116.828 C 236.088 111.435,245.013 107.017,245.150 107.011 C 245.348 107.002,245.400 110.738,245.400 125.050 M164.946 120.089 C 178.011 122.227,192.354 124.577,196.819 125.311 L 204.938 126.645 205.069 130.772 C 205.268 137.056,205.236 198.888,205.034 198.955 C 204.804 199.032,143.236 186.635,142.650 186.394 C 142.216 186.215,142.200 186.115,142.200 183.654 C 142.200 181.488,140.951 125.515,140.747 118.550 C 140.694 116.732,140.736 116.200,140.936 116.200 C 141.077 116.200,151.882 117.950,164.946 120.089 M141.078 164.050 C 141.131 164.408,141.274 169.650,141.397 175.700 C 141.571 184.318,141.676 186.744,141.881 186.901 C 142.025 187.012,149.738 188.624,159.021 190.484 C 168.305 192.344,175.974 193.930,176.065 194.008 C 176.277 194.191,173.302 195.800,172.750 195.800 C 172.327 195.800,170.275 195.414,142.000 190.017 C 101.413 182.270,106.764 183.349,107.300 183.024 C 109.743 181.542,140.736 163.418,140.841 163.410 C 140.918 163.405,141.025 163.692,141.078 164.050 M242.509 179.984 C 244.044 180.305,254.570 182.557,265.900 184.987 C 277.230 187.417,286.756 189.458,287.070 189.523 C 287.907 189.696,288.491 189.394,272.100 197.262 C 263.740 201.275,253.726 206.090,249.846 207.962 L 242.792 211.367 225.946 207.676 C 190.932 200.005,181.878 198.028,181.150 197.894 C 180.062 197.693,180.191 197.549,182.282 196.629 C 184.639 195.591,183.214 195.452,195.393 197.908 L 205.845 200.016 212.173 196.114 C 215.653 193.968,223.135 189.335,228.800 185.819 C 234.465 182.302,239.239 179.419,239.409 179.412 C 239.579 179.406,240.974 179.663,242.509 179.984 M124.500 187.493 C 134.070 189.310,148.766 192.090,157.158 193.673 C 165.550 195.255,172.458 196.592,172.511 196.644 C 172.622 196.755,174.633 266.233,174.528 266.338 C 174.490 266.377,172.937 266.092,171.079 265.706 C 169.221 265.319,154.659 262.349,138.721 259.105 C 122.782 255.862,109.690 253.156,109.627 253.093 C 109.564 253.030,109.484 252.376,109.449 251.639 C 109.187 246.065,106.187 187.477,106.084 185.922 L 105.953 183.944 106.526 184.068 C 106.842 184.135,114.930 185.677,124.500 187.493 M288.521 194.850 C 288.394 199.161,287.443 246.290,287.347 253.043 L 287.300 256.385 265.700 270.864 L 244.100 285.343 243.864 268.721 C 243.734 259.580,243.482 243.111,243.305 232.126 C 243.127 221.140,243.009 212.129,243.041 212.102 C 243.074 212.075,245.575 210.878,248.600 209.442 C 251.625 208.006,261.794 203.135,271.197 198.616 C 280.601 194.097,288.375 190.400,288.474 190.400 C 288.578 190.400,288.598 192.265,288.521 194.850 M180.200 194.729 C 183.629 195.400,183.603 195.334,180.909 196.506 L 178.626 197.500 178.722 203.400 C 178.835 210.334,179.402 258.311,179.401 260.818 L 179.400 262.535 177.461 264.162 C 176.394 265.056,175.483 265.749,175.436 265.702 C 175.388 265.655,175.227 261.450,175.078 256.358 C 173.824 213.750,173.399 198.913,173.399 197.768 L 173.400 196.436 175.350 195.331 C 177.682 194.009,176.974 194.097,180.200 194.729 M184.332 199.412 C 188.808 200.403,240.568 211.698,241.650 211.919 C 242.144 212.020,242.200 212.117,242.201 212.866 C 242.202 213.325,242.290 219.325,242.397 226.200 C 242.503 233.075,242.725 247.925,242.890 259.200 C 243.055 270.475,243.240 281.038,243.301 282.673 L 243.411 285.645 242.756 285.556 C 242.395 285.507,229.815 282.084,214.800 277.950 C 199.785 273.816,185.925 270.009,184.000 269.489 C 182.075 268.969,180.441 268.489,180.369 268.422 C 180.297 268.355,180.095 255.610,179.922 240.100 C 179.748 224.590,179.549 208.863,179.479 205.150 C 179.393 200.568,179.418 198.400,179.558 198.400 C 179.672 198.400,181.820 198.855,184.332 199.412 M196.681 311.231 C 196.608 311.349,196.668 311.519,196.815 311.609 C 197.100 311.785,197.400 311.683,197.400 311.410 C 197.400 311.140,196.825 310.998,196.681 311.231 " stroke="none" fill="#0a0809" fill-rule="evenodd"></path></g></svg>